<svg width="517" height="444" viewBox="0 0 517 444" fill="none" xmlns="http://www.w3.org/2000/svg">
<path d="M137.097 119.979C139.061 126.544 144.996 142.903 162.118 156.4C172.131 164.257 184.101 169.737 196.972 172.357L187.592 185.049C174.351 183.377 161.765 178.738 150.95 171.543C127.001 155.473 120.726 132.189 119.231 125.712L137.097 119.979Z" fill="white" stroke="#231F20" stroke-width="4" stroke-miterlimit="10"/>
<path d="M144.246 177.268L166.141 153.127C154.286 146.081 147.687 138.509 143.797 132.666C137.843 123.708 136.4 115.992 131.287 115.475C126.389 114.985 121.252 121.441 119.226 125.708C110.003 145.205 140.256 173.596 144.246 177.268Z" fill="white" stroke="#231F20" stroke-width="4" stroke-miterlimit="10"/>
<path d="M271.788 136.347C284.961 141.795 299.063 145.118 313.471 146.168C346.443 148.479 372.418 137.748 386.228 130.618L392.44 142.487C382.801 147.505 372.634 151.618 362.092 154.764C345.879 159.578 311.359 169.784 276.557 153.945C271.69 151.723 267.041 149.121 262.661 146.168L271.788 136.347Z" fill="white" stroke="#231F20" stroke-width="4" stroke-miterlimit="10"/>
<path d="M76.8646 242.627L148.064 303.702L183.903 245.953L108.164 191.527L76.8646 242.627Z" fill="white" stroke="#231F20" stroke-width="4" stroke-miterlimit="10"/>
<path d="M257.228 105.974C263.686 116.007 272.399 124.669 282.788 131.384C287.899 134.659 293.375 137.426 299.126 139.638L292.646 146.606L279.41 158.493C260.265 147.573 245.226 131.549 236.313 112.574" fill="white"/>
<path d="M257.228 105.974C263.686 116.007 272.399 124.669 282.788 131.384C287.899 134.659 293.375 137.426 299.126 139.638L292.646 146.606L279.41 158.493C260.265 147.573 245.226 131.549 236.313 112.574" stroke="#231F20" stroke-width="4" stroke-miterlimit="10"/>
<path d="M200.398 223.235L183.922 226.736C189.641 248.733 193.318 271.133 194.912 293.697C196.958 322.776 195.542 351.972 190.688 380.769L204.613 380.498C206.318 373.933 214.169 342.785 214.767 313.436C215.034 300.048 213.926 286.739 213.926 286.739C213.529 282.012 212.793 274.747 211.388 266.23C208.968 251.656 205.293 237.279 200.398 223.235Z" fill="#231F20"/>
<path d="M191.844 378.883C191.725 380.021 191.543 381.745 191.309 383.841C190.167 393.977 189.747 395.045 189.876 397.032C190.239 403.396 195.438 408.03 198.62 410.862C200.57 412.613 212.827 423.519 223.946 419.326C229.881 417.086 234.779 410.788 233.671 405.759C233.002 402.695 229.786 400.625 223.363 396.459C215.957 391.645 212.077 390.91 209.229 386.485C207.938 384.431 207.152 382.145 206.925 379.784L191.844 378.883Z" fill="white" stroke="#231F20" stroke-width="4" stroke-miterlimit="10"/>
<path d="M184.275 223.235C185.417 228.487 186.803 235.625 187.955 244.133C187.955 244.133 190.717 264.554 190.253 286.31C189.326 329.279 172.124 382.134 170.59 386.822L153.922 385.762C163.397 357.208 169.109 327.718 170.939 297.921C172.455 272.975 171.222 247.954 167.259 223.235H184.275Z" fill="#231F20"/>
<path d="M243.916 91.47C230.225 100.851 217.876 111.772 207.16 123.975C196.623 136.001 169.051 168.335 165.964 213.948C165.584 219.553 165.584 225.175 165.964 230.78H207.16C205.953 222.898 205.529 214.932 205.893 206.98C208.168 157.49 240.609 121.751 257.228 105.974L243.916 91.47Z" fill="white" stroke="#231F20" stroke-width="4" stroke-miterlimit="10"/>
<path d="M154.157 384.826C154.032 386.052 153.836 387.89 153.583 390.17C152.35 401.111 151.896 402.24 152.021 404.385C152.408 411.243 158.013 416.237 161.439 419.265C163.542 421.134 176.73 432.907 188.715 428.386C195.108 425.97 200.388 419.195 199.194 413.764C198.467 410.473 195.008 408.228 188.084 403.742C180.104 398.568 175.918 397.759 172.855 392.993C171.461 390.781 170.614 388.316 170.375 385.771L154.157 384.826Z" fill="white" stroke="#231F20" stroke-width="4" stroke-miterlimit="10"/>
<path d="M108.164 191.527L183.922 245.953C173.214 258.126 163.558 271.044 155.041 284.59C150.988 291.041 147.395 297.338 144.15 303.409L66.8824 241.38L108.164 191.527Z" fill="white" stroke="#231F20" stroke-width="4" stroke-miterlimit="10"/>
<path d="M190.401 136.553C184.852 144.614 179.312 152.998 173.782 161.705C164.798 175.876 156.656 189.715 149.273 203.111C144.796 203.002 136.696 203.479 128.993 208.14C123.054 211.738 114.395 219.62 116.321 226.329C116.918 228.417 118.901 231.642 121.811 231.747C124.602 231.848 126.628 229.021 126.881 228.653C125.879 230.624 125.537 232.823 125.897 234.973C126.021 235.664 126.915 240.662 130.541 241.538C133.49 242.273 137.504 240.141 139.276 235.992C138.01 239.905 139.119 243.958 142.091 246.312C145.799 249.24 151.17 248.54 154.061 246.956C159.728 243.892 161.707 234.386 157.019 223.996C157.874 227.467 160.842 229.712 163.642 229.541C167.188 229.327 168.841 225.287 168.994 224.898C170.255 221.664 168.698 218.648 167.723 216.771C165.434 212.342 161.511 209.961 159.413 208.893C161.477 202.254 164.018 195.748 167.02 189.417C174.727 173.257 185.319 158.386 198.362 145.415L190.401 136.553Z" fill="white" stroke="#231F20" stroke-width="4" stroke-miterlimit="10"/>
<path d="M125.099 229.498C128.333 225.41 132.101 221.7 136.319 218.451C132.6 222.075 129.379 226.102 126.728 230.443L125.099 229.498Z" fill="#231F20"/>
<path d="M137.91 237.839C138.428 234.669 139.636 231.625 141.46 228.889C142.356 227.543 143.397 226.283 144.566 225.126C145.73 223.979 147.01 222.935 148.389 222.01C147.126 223.04 145.973 224.177 144.944 225.406C143.926 226.624 143.042 227.932 142.306 229.31C140.851 232.033 140.006 234.996 139.821 238.023L137.91 237.839Z" fill="#231F20"/>
<path d="M241.803 89.7283C231.683 92.5732 222.126 96.8847 213.496 102.499C193.904 115.27 184.318 131.502 180.118 140.037L200.823 157.061C205.047 150.216 209.945 142.934 215.608 135.393C221.27 127.852 227.014 120.95 232.509 114.88" fill="white"/>
<path d="M241.803 89.7283C231.683 92.5732 222.126 96.8847 213.496 102.499C193.904 115.27 184.318 131.502 180.118 140.037L200.823 157.061C205.047 150.216 209.945 142.934 215.608 135.393C221.27 127.852 227.014 120.95 232.509 114.88" stroke="#231F20" stroke-width="4" stroke-miterlimit="10"/>
<path d="M212.98 41.8923C212.349 40.9689 207.881 34.6753 199.461 33.7694C197.149 33.5199 190.569 33.2485 185.943 37.6383C185.255 38.2904 181.274 42.063 182.12 46.5359C183.028 51.2276 188.657 53.5778 193.111 55.4379C197.187 57.1283 201.592 58.0525 206.065 58.1558" fill="white"/>
<path d="M212.984 41.8924C211.279 39.7009 209.098 37.8562 206.577 36.4742C204.1 35.1155 201.29 34.3494 198.405 34.2466C196.979 34.1971 195.55 34.2954 194.148 34.5398C192.764 34.7704 191.423 35.177 190.162 35.7477C188.924 36.3194 187.795 37.0701 186.818 37.971C185.828 38.8719 184.982 39.8958 184.304 41.0127C183.632 42.0907 183.203 43.2813 183.043 44.514C182.894 45.7001 183.116 46.9006 183.683 47.9758C184.292 49.0636 185.141 50.0235 186.177 50.7943C187.274 51.6007 188.454 52.3085 189.699 52.9082C190.956 53.5384 192.275 54.103 193.613 54.6588C194.911 55.2143 196.248 55.688 197.617 56.0768C200.368 56.8663 203.215 57.3397 206.094 57.486L206.051 58.8384C203.019 58.8403 200.001 58.4618 197.082 57.7136C195.616 57.33 194.179 56.8578 192.781 56.3C191.429 55.7442 190.067 55.1796 188.724 54.5275C187.348 53.878 186.051 53.0975 184.854 52.1992C183.593 51.2573 182.568 50.0782 181.848 48.7417C181.144 47.3557 180.881 45.8162 181.088 44.2995C181.295 42.8365 181.834 41.4292 182.67 40.168C183.465 38.9362 184.446 37.8134 185.585 36.8331C186.718 35.8347 188.028 35.0206 189.46 34.426C192.292 33.2889 195.395 32.8368 198.472 33.1131C201.514 33.3558 204.435 34.3213 206.944 35.914C208.174 36.6958 209.306 37.6 210.318 38.61C211.339 39.6085 212.234 40.7096 212.984 41.8924Z" fill="#231F20"/>
<path d="M310.432 55.6436C311.032 52.3177 311.173 48.9358 310.853 45.5775C310.514 42.2157 309.735 38.9035 308.53 35.7128C307.13 31.8264 303.699 22.303 297.062 15.1824C287.285 4.71364 270.083 -1.03715 253.544 0.875404C230.244 3.56261 218.327 20.7581 214.652 26.0275C212.86 28.614 192.604 58.9173 211.503 85.321C221.849 99.7637 241.565 109.764 262.399 107.291C281.599 105.016 293.182 93.1682 296.197 89.8814" fill="white"/>
<path d="M310.432 55.6436C311.495 49.7487 311.097 43.7102 309.266 37.9754C307.355 32.2859 305.047 26.6839 301.764 21.5502C298.538 16.3847 294.038 11.9814 288.623 8.69194C285.921 7.06945 283.057 5.68606 280.07 4.56047C277.079 3.44931 273.982 2.59655 270.818 2.01332C270.025 1.8864 269.241 1.70696 268.429 1.61505L266.04 1.32182C264.434 1.19928 262.834 1.05048 261.223 1.05923C260.42 1.05923 259.618 1.02422 258.834 1.05923C258.05 1.09424 257.228 1.10737 256.445 1.16864L254.055 1.4006C253.257 1.475 252.469 1.61943 251.666 1.72446C245.349 2.79457 239.334 5.02792 233.986 8.28929C228.673 11.5831 223.99 15.6586 220.128 20.3511C218.181 22.6903 216.387 25.1338 214.757 27.6687C213.148 30.2108 211.711 32.8418 210.457 35.5465C207.92 40.952 206.153 46.6343 205.2 52.4531C204.234 58.247 204.383 64.1511 205.64 69.898C206.947 75.6228 209.506 81.0462 213.161 85.8418C214.984 88.24 217.037 90.4839 219.297 92.5467C220.463 93.5445 221.586 94.5818 222.847 95.4833L223.769 96.1836C224.075 96.4155 224.376 96.6519 224.725 96.8576L226.665 98.1443C227.301 98.5819 227.998 98.9496 228.667 99.3478L229.68 99.9299C230.02 100.122 230.354 100.324 230.713 100.49C232.122 101.173 233.498 101.912 234.975 102.477C237.873 103.702 240.887 104.685 243.978 105.414L246.314 105.882C246.706 105.956 247.093 106.053 247.485 106.11L248.67 106.263L251.059 106.574L253.449 106.718L254.638 106.797C255.04 106.797 255.436 106.797 255.833 106.797L258.222 106.775C259.02 106.775 259.809 106.657 260.612 106.609L261.801 106.517C262.002 106.517 262.198 106.49 262.399 106.464L262.986 106.377L265.376 106.031C265.772 105.983 266.155 105.891 266.546 105.808L267.708 105.554L268.874 105.304C269.265 105.226 269.638 105.099 270.02 104.994C270.785 104.779 271.549 104.556 272.309 104.341C275.323 103.361 278.235 102.137 281.011 100.683C286.579 97.7434 291.556 93.9508 295.724 89.47L296.847 90.3453C292.612 94.9901 287.538 98.9352 281.847 102.009C278.992 103.535 275.996 104.826 272.892 105.869C272.109 106.114 271.32 106.333 270.532 106.565C270.135 106.674 269.748 106.81 269.347 106.897L268.138 107.169L266.933 107.44C266.532 107.528 266.131 107.628 265.72 107.681L263.273 108.066L262.662 108.162C262.456 108.188 262.251 108.197 262.045 108.219L260.807 108.324C259.986 108.39 259.159 108.486 258.332 108.512L255.847 108.543C255.436 108.543 255.021 108.543 254.61 108.543L253.367 108.473L250.887 108.324L248.431 108.013L247.198 107.856C246.792 107.799 246.391 107.703 245.985 107.624L243.557 107.147C240.348 106.4 237.218 105.391 234.206 104.131C232.677 103.545 231.238 102.788 229.776 102.079C229.41 101.905 229.055 101.713 228.71 101.505L227.654 100.906C226.957 100.494 226.221 100.127 225.576 99.6629L223.559 98.35C223.22 98.1399 222.9 97.9123 222.604 97.6541L221.648 96.932C220.339 95.9998 219.168 94.9275 217.954 93.8946C215.595 91.7633 213.457 89.4351 211.57 86.9403C207.751 81.9399 205.079 76.2823 203.714 70.3094C202.42 64.3505 202.276 58.2299 203.289 52.2255C204.284 46.2553 206.115 40.4274 208.736 34.8856C209.99 32.0959 211.434 29.3814 213.061 26.7583C214.764 24.18 216.63 21.6957 218.652 19.3182C222.691 14.5338 227.565 10.3933 233.078 7.06386C235.854 5.41409 238.807 4.0269 241.889 2.92364C244.977 1.83497 248.18 1.04436 251.446 0.564679C252.264 0.468395 253.076 0.332722 253.893 0.267073L256.354 0.0788822C257.176 0.0263636 257.998 0.0307394 258.82 0.00885664C259.642 -0.0130261 260.463 0.00885734 261.281 0.0394932C262.924 0.0394932 264.559 0.236438 266.188 0.389617L268.62 0.735365C269.433 0.840402 270.231 1.03735 271.01 1.17302C271.406 1.25617 271.812 1.3262 272.209 1.41373L273.394 1.71571C274.182 1.92141 274.98 2.08772 275.75 2.35031C276.519 2.61291 277.303 2.82298 278.077 3.07244L280.351 3.91712C283.363 5.10395 286.243 6.55189 288.953 8.24115C291.65 9.93766 294.12 11.9193 296.312 14.1451C298.492 16.3713 300.392 18.8141 301.979 21.4277C305.228 26.6139 307.479 32.2509 309.328 37.9492C311.14 43.6969 311.517 49.7443 310.432 55.6436Z" fill="#231F20"/>
<path d="M284.385 60.4577C291.638 59.221 299.065 59.0894 306.366 60.0682C313.595 61.066 315.359 62.4797 316.085 63.1668C320.954 67.7534 319.86 77.6838 314.393 83.6753C308.181 90.4808 296.101 92.4283 289.469 87.9293C287.844 86.8092 286.534 85.351 285.646 83.6753" fill="white"/>
<path d="M284.385 60.4577C291.778 58.7371 299.469 58.3624 307.02 59.3548C308.938 59.5824 310.831 59.9602 312.678 60.4839C313.648 60.7612 314.581 61.1386 315.459 61.6087C315.929 61.8675 316.362 62.1808 316.744 62.5409C317.079 62.9042 317.423 63.263 317.734 63.6394C318.873 65.1875 319.61 66.9541 319.889 68.8038C320.181 70.5978 320.17 72.4223 319.855 74.2132C319.546 75.9876 318.995 77.7197 318.216 79.3688C317.446 81.0245 316.421 82.5706 315.172 83.9598C313.899 85.3275 312.422 86.5252 310.786 87.5179C309.141 88.4743 307.376 89.2444 305.529 89.8112C303.685 90.3542 301.772 90.6763 299.838 90.7697C299.36 90.7697 298.882 90.8222 298.405 90.8003L296.971 90.7259C296.493 90.6734 296.015 90.599 295.538 90.5334C295.298 90.508 295.061 90.4626 294.83 90.3977L294.128 90.2358C293.658 90.1311 293.198 89.9935 292.752 89.8244L292.064 89.6055L291.418 89.3036L290.778 89.0016C290.568 88.8933 290.365 88.7735 290.171 88.6427C289.784 88.3845 289.368 88.1613 289.01 87.868C287.568 86.7215 286.425 85.2932 285.665 83.6884C286.549 85.2023 287.78 86.5235 289.273 87.5617C290.784 88.5347 292.494 89.218 294.3 89.5705L294.974 89.6931C295.198 89.7407 295.427 89.7729 295.657 89.7893C296.135 89.8244 296.57 89.8725 297.028 89.9031H298.405C298.882 89.9031 299.322 89.8462 299.781 89.82C301.607 89.6581 303.402 89.2816 305.123 88.6996C306.833 88.1142 308.461 87.3459 309.973 86.4106C311.447 85.4478 312.772 84.3085 313.916 83.0232C315.039 81.7267 315.952 80.2879 316.625 78.7517C317.316 77.2188 317.797 75.6135 318.058 73.9725C318.333 72.3497 318.333 70.6979 318.058 69.0751C317.816 67.4923 317.18 65.9815 316.2 64.6592C315.942 64.3528 315.66 64.0639 315.392 63.7838C315.118 63.5239 314.81 63.296 314.475 63.1055C313.722 62.6964 312.92 62.3688 312.085 62.1295C310.335 61.6256 308.548 61.2351 306.738 60.961C303.068 60.3779 299.353 60.0545 295.628 59.9937C291.874 59.9415 288.119 60.0964 284.385 60.4577Z" fill="#231F20"/>
<path d="M227.349 64.3398C231.376 72.1602 237.391 78.9829 244.889 84.2369C252.388 89.4909 261.151 93.0232 270.446 94.5381" fill="white"/>
<path d="M227.349 64.3398C229.631 68.075 232.312 71.5935 235.353 74.8435C236.86 76.452 238.455 77.9901 240.131 79.452C241.818 80.9051 243.61 82.2487 245.435 83.5397C249.147 86.0711 253.127 88.2556 257.314 90.0608C261.543 91.8751 265.929 93.3653 270.427 94.5161C268.063 94.3524 265.72 94.0039 263.421 93.4745C258.794 92.4181 254.354 90.7663 250.233 88.5684C246.115 86.35 242.325 83.6569 238.956 80.5549C237.284 79.0026 235.723 77.3537 234.282 75.6182C231.414 72.1697 229.081 68.3742 227.349 64.3398Z" fill="#231F20"/>
<path d="M260.655 45.9058C262.716 45.9058 264.387 43.333 264.387 40.1593C264.387 36.9856 262.716 34.4128 260.655 34.4128C258.593 34.4128 256.923 36.9856 256.923 40.1593C256.923 43.333 258.593 45.9058 260.655 45.9058Z" fill="#231F20"/>
<path d="M305.759 51.9583C307.957 51.9583 309.739 49.2308 309.739 45.8662C309.739 42.5017 307.957 39.7742 305.759 39.7742C303.56 39.7742 301.778 42.5017 301.778 45.8662C301.778 49.2308 303.56 51.9583 305.759 51.9583Z" fill="#231F20"/>
<path d="M82.5319 235.756L66.9971 239.021C72.3925 259.769 75.8597 280.899 77.3616 302.183C79.2948 329.616 77.9585 357.16 73.3763 384.327L86.5172 384.073C88.1228 377.867 95.5485 348.492 96.0742 320.801C96.3226 308.171 95.2761 295.61 95.2761 295.61C94.9034 291.154 94.2105 284.301 92.8869 276.261C90.6049 262.531 87.1425 248.987 82.5319 235.756Z" fill="#0D4E32"/>
<path d="M74.461 382.598C74.3511 383.67 74.1791 385.298 73.9593 387.277C72.8793 396.839 72.4827 397.846 72.5878 399.724C72.9319 405.724 77.8442 410.096 80.8355 412.77C82.6752 414.407 94.2439 424.709 104.728 420.753C110.328 418.639 114.949 412.7 113.903 407.952C113.267 405.072 110.238 403.107 104.178 399.198C97.1923 394.669 93.5272 393.947 90.8464 389.789C89.6159 387.848 88.8686 385.683 88.6579 383.447L74.461 382.598Z" fill="white" stroke="#231F20" stroke-width="4" stroke-miterlimit="10"/>
<path d="M67.322 235.756C68.4019 240.706 69.7112 247.442 70.796 255.451C72.4287 268.661 73.1533 281.953 72.9654 295.247C72.1005 335.782 55.8728 385.649 54.4153 390.073L38.6846 389.071C47.6241 362.131 53.0143 334.309 54.7403 306.197C56.1725 282.662 55.0102 259.055 51.2711 235.734L67.322 235.756Z" fill="#0D4E32"/>
<path d="M123.593 111.445C110.673 120.293 99.0207 130.596 88.9113 142.111C78.972 153.455 52.958 183.96 50.0479 227.016C49.692 232.304 49.692 237.607 50.0479 242.894H88.9113C87.7757 235.459 87.3759 227.944 87.7166 220.443C89.8622 173.754 120.468 140.032 136.147 125.156L123.593 111.445Z" fill="white" stroke="#231F20" stroke-width="4" stroke-miterlimit="10"/>
<path d="M38.9092 388.204C38.7897 389.36 38.6034 391.115 38.3644 393.246C37.2033 403.553 36.778 404.625 36.8927 406.656C37.2558 413.125 42.5456 417.838 45.7759 420.718C47.7589 422.468 60.226 433.585 71.508 429.322C77.5432 427.046 82.5224 420.643 81.3946 415.527C80.7113 412.424 77.4476 410.306 70.9154 406.069C63.3893 401.19 59.4471 400.428 56.5466 395.929C55.2325 393.843 54.4333 391.518 54.2051 389.119L38.9092 388.204Z" fill="white" stroke="#231F20" stroke-width="4" stroke-miterlimit="10"/>
<path d="M73.0992 153.976C67.8652 161.582 62.6455 169.492 57.4402 177.706C48.9679 191.076 41.2889 204.131 34.3219 216.771C30.0977 216.67 22.4521 217.116 15.2079 221.515C9.60279 224.911 1.43159 232.347 3.26174 238.675C3.8256 240.645 5.69877 243.686 8.4464 243.787C11.0793 243.883 12.986 241.214 13.2249 240.868C12.2686 242.724 11.9359 244.799 12.2692 246.829C12.3886 247.481 13.2249 252.181 16.6558 253.035C19.4321 253.731 23.2215 251.722 24.8939 247.805C23.6993 251.499 24.741 255.319 27.5508 257.538C31.0486 260.3 36.0995 259.639 38.8423 258.147C44.1847 255.236 46.053 246.291 41.6329 236.487C42.4357 239.761 45.2503 241.879 47.8784 241.717C51.2234 241.516 52.7859 237.704 52.9293 237.34C54.1191 234.277 52.6473 231.445 51.7299 229.673C50.0299 226.504 47.2895 223.902 43.8932 222.233C45.8366 215.967 48.2311 209.827 51.0609 203.851C58.3313 188.606 68.3264 174.578 80.6349 162.344L73.0992 153.976Z" fill="white" stroke="#231F20" stroke-width="4" stroke-miterlimit="10"/>
<path d="M11.4473 241.647C14.5142 237.79 18.0847 234.29 22.0794 231.227C18.5763 234.66 15.5464 238.474 13.0576 242.584L11.4473 241.647Z" fill="#231F20"/>
<path d="M23.5129 249.525C24.2585 245.035 26.4612 240.853 29.8349 237.524C30.9347 236.447 32.1426 235.467 33.4426 234.596C32.2543 235.571 31.1695 236.647 30.2028 237.809C29.2462 238.959 28.417 240.193 27.7276 241.494C26.3679 244.065 25.5848 246.86 25.4243 249.713L23.5129 249.525Z" fill="#231F20"/>
<path d="M121.601 109.799C112.051 112.482 103.033 116.55 94.8891 121.848C76.4107 133.896 67.3603 149.214 63.3989 157.263L82.9334 173.324C86.9234 166.869 91.5346 159.998 96.8865 152.882C102.238 145.765 107.643 139.279 112.828 133.546" fill="white"/>
<path d="M121.601 109.799C112.051 112.482 103.033 116.55 94.8891 121.848C76.4107 133.896 67.3603 149.214 63.3989 157.263L82.9334 173.324C86.9234 166.869 91.5346 159.998 96.8865 152.882C102.238 145.765 107.643 139.279 112.828 133.546" stroke="#231F20" stroke-width="4" stroke-miterlimit="10"/>
<path d="M118.012 75.4824C117.415 74.6071 113.2 68.6726 105.254 67.8148C103.075 67.5828 96.8673 67.3246 92.4998 71.4648C91.8499 72.0819 88.094 75.64 88.9111 79.8633C89.7665 84.2879 95.0801 86.5068 99.2756 88.2618C103.122 89.857 107.278 90.7277 111.499 90.822" fill="white"/>
<path d="M118.012 75.4825C116.4 73.4184 114.339 71.6824 111.958 70.3839C109.624 69.1098 106.979 68.3921 104.264 68.2963C102.922 68.2546 101.579 68.35 100.26 68.5808C98.9575 68.7988 97.6948 69.1833 96.509 69.723C95.3455 70.2619 94.284 70.9682 93.3648 71.815C92.4369 72.6627 91.6424 73.6245 91.0042 74.6729C90.3783 75.6803 89.9771 76.7916 89.8239 77.9422C89.6863 79.0521 89.8951 80.1751 90.426 81.1808C90.998 82.1949 91.7937 83.0891 92.7627 83.8067C93.7934 84.5672 94.9025 85.2341 96.0742 85.798C97.2592 86.3889 98.5064 86.9228 99.7632 87.4524C100.987 87.9701 102.248 88.4088 103.538 88.7653C106.127 89.5142 108.808 89.9641 111.518 90.1045L111.475 91.47C108.61 91.4796 105.757 91.1247 102.998 90.4153C101.617 90.06 100.264 89.6214 98.946 89.1023C97.6702 88.5771 96.3848 88.0432 95.1233 87.4261C93.8222 86.8171 92.5953 86.0836 91.4629 85.2378C90.2601 84.3458 89.2821 83.226 88.5959 81.9554C87.9263 80.641 87.6777 79.1795 87.8791 77.7408C88.0711 76.3458 88.5823 75.0036 89.3795 73.802C90.1342 72.638 91.0621 71.576 92.1367 70.6465C93.2097 69.7033 94.4509 68.9351 95.8066 68.3751C98.487 67.3059 101.422 66.8854 104.331 67.154C107.205 67.384 109.963 68.2999 112.331 69.8106C113.491 70.5527 114.56 71.4082 115.518 72.3621C116.477 73.3112 117.314 74.3583 118.012 75.4825Z" fill="#231F20"/>
<path d="M209.95 88.4677C210.513 85.331 210.646 82.142 210.347 78.975C210.028 75.7967 209.291 72.6653 208.153 69.6486C206.835 65.9854 203.6 57.0004 197.335 50.2824C188.117 40.4001 171.861 34.9644 156.278 36.7763C134.297 39.3191 123.053 55.5342 119.603 60.506C117.917 62.9437 98.8027 91.5313 116.636 116.443C126.394 130.08 144.991 139.503 164.65 137.174C182.761 135.025 193.694 123.848 196.537 120.745" fill="white"/>
<path d="M209.95 88.4676C210.947 82.9032 210.567 77.2047 208.837 71.793C207.059 66.4274 204.851 61.1405 201.755 56.3044C198.71 51.4318 194.464 47.2788 189.355 44.177C184.254 41.1078 178.551 38.9735 172.563 37.8923C171.813 37.7697 171.077 37.6034 170.322 37.5159L168.067 37.2358C166.552 37.1264 165.042 36.9863 163.522 36.9951C162.767 36.9951 162.008 36.9601 161.253 36.9951C160.498 37.0301 159.738 37.0432 158.983 37.1001L156.727 37.3189C155.972 37.389 155.232 37.529 154.486 37.6297C148.531 38.6359 142.863 40.7446 137.829 43.8269C132.824 46.9434 128.408 50.7869 124.755 55.2059C122.917 57.4082 121.224 59.7085 119.685 62.0946C118.17 64.4955 116.82 66.9803 115.642 69.5347C113.247 74.6292 111.579 79.9849 110.677 85.4697C109.766 90.9307 109.906 96.4959 111.093 101.912C112.341 107.304 114.769 112.408 118.232 116.915C119.946 119.176 121.879 121.29 124.009 123.231C125.108 124.172 126.164 125.152 127.354 126.001L128.219 126.657C128.503 126.884 128.8 127.097 129.108 127.296L130.933 128.509C131.53 128.946 132.19 129.27 132.821 129.642L133.776 130.189C134.097 130.373 134.412 130.561 134.732 130.719C136.06 131.362 137.36 132.062 138.751 132.592C141.496 133.744 144.349 134.665 147.276 135.345L149.474 135.782C149.842 135.853 150.205 135.94 150.577 135.993L151.696 136.141L153.927 136.43L156.173 136.57L157.296 136.64C157.674 136.64 158.046 136.64 158.424 136.64H160.679C161.429 136.64 162.175 136.531 162.925 136.483L164.048 136.395C164.234 136.395 164.421 136.369 164.607 136.347L165.166 136.264L167.388 135.936C167.76 135.883 168.128 135.813 168.492 135.726L169.591 135.489L170.69 135.253C171.053 135.179 171.407 135.056 171.77 134.96C172.487 134.754 173.204 134.561 173.925 134.347C176.764 133.42 179.508 132.264 182.125 130.894C187.363 128.118 192.048 124.549 195.983 120.338L197.106 121.213C193.119 125.608 188.33 129.337 182.952 132.233C180.256 133.676 177.426 134.896 174.494 135.879C173.753 136.111 173.008 136.316 172.262 136.54C171.89 136.64 171.522 136.767 171.139 136.85L170.002 137.109L168.865 137.362C168.482 137.446 168.105 137.537 167.718 137.59L165.405 137.953L164.827 138.041C164.636 138.067 164.44 138.076 164.244 138.098L163.078 138.198C162.299 138.255 161.52 138.352 160.741 138.373L158.395 138.404C158.003 138.404 157.611 138.404 157.22 138.404L156.049 138.334L153.707 138.198L151.385 137.901L150.224 137.752C149.837 137.699 149.459 137.608 149.077 137.537L146.783 137.1C143.752 136.397 140.797 135.445 137.953 134.255C136.519 133.704 135.153 132.986 133.772 132.321C133.418 132.159 133.093 131.966 132.759 131.774L131.765 131.209C131.11 130.824 130.422 130.474 129.801 130.036L127.889 128.784C127.569 128.579 127.262 128.358 126.967 128.124L126.059 127.445C124.826 126.57 123.718 125.55 122.571 124.579C120.342 122.567 118.323 120.369 116.54 118.014C112.936 113.295 110.411 107.956 109.119 102.319C107.9 96.6947 107.766 90.918 108.723 85.2509C109.662 79.6139 111.391 74.1111 113.864 68.8782C115.079 66.2578 116.472 63.71 118.036 61.2499C119.633 58.8111 121.388 56.4625 123.292 54.2168C127.093 49.6798 131.7 45.7606 136.921 42.6233C139.544 41.0748 142.331 39.7728 145.24 38.7369C148.15 37.7119 151.169 36.9668 154.247 36.5137C155.017 36.4217 155.786 36.2992 156.56 36.2379L158.882 36.0541C159.657 36.0103 160.431 36.0147 161.21 35.9928C161.988 35.971 162.758 35.9928 163.532 36.0191C165.085 36.0191 166.628 36.2117 168.167 36.3561L170.461 36.6843C171.23 36.785 171.98 36.9688 172.735 37.122C175.757 37.7349 178.71 38.6037 181.556 39.7173C184.401 40.8389 187.121 42.2077 189.68 43.805C192.226 45.4064 194.557 47.278 196.623 49.3807C198.68 51.4812 200.473 53.7876 201.965 56.2563C205.028 61.1449 207.15 66.4624 208.899 71.8411C210.598 77.2422 210.957 82.923 209.95 88.4676Z" fill="#231F20"/>
<path d="M185.374 93.0059C192.215 91.8411 199.219 91.7184 206.103 92.6427C212.922 93.5792 214.585 94.9141 215.273 95.5618C219.866 99.8903 218.833 109.261 213.677 114.911C207.819 121.331 196.417 123.169 190.158 118.928C188.634 117.866 187.406 116.49 186.574 114.911" fill="white"/>
<path d="M185.374 93.0063C192.347 91.3605 199.606 90.9932 206.734 91.9253C208.549 92.1356 210.34 92.4915 212.086 92.9888C213.006 93.2483 213.89 93.6052 214.719 94.0523C215.163 94.2986 215.574 94.5925 215.942 94.9276C216.263 95.2734 216.587 95.6147 216.898 95.9736C217.979 97.4397 218.677 99.1138 218.938 100.867C219.213 102.564 219.2 104.289 218.9 105.983C218.61 107.661 218.089 109.299 217.352 110.858C216.629 112.424 215.663 113.886 214.485 115.2C213.277 116.491 211.88 117.622 210.332 118.561C208.78 119.465 207.113 120.191 205.368 120.723C203.625 121.234 201.819 121.537 199.992 121.625C199.514 121.625 199.079 121.673 198.625 121.651L197.258 121.581C196.781 121.528 196.351 121.458 195.901 121.397C195.452 121.336 195.013 121.204 194.573 121.112C194.13 121.012 193.696 120.882 193.273 120.723L192.633 120.504L192.026 120.215C191.613 120.039 191.218 119.83 190.846 119.589C190.478 119.344 190.091 119.13 189.751 118.854C188.393 117.774 187.317 116.428 186.602 114.915C187.442 116.341 188.605 117.586 190.014 118.565C191.441 119.477 193.053 120.117 194.755 120.447C196.45 120.777 198.192 120.857 199.915 120.684C201.635 120.528 203.327 120.171 204.947 119.62C206.557 119.069 208.089 118.343 209.511 117.458C210.898 116.554 212.145 115.482 213.219 114.272C214.276 113.052 215.134 111.697 215.766 110.25C216.412 108.808 216.862 107.298 217.104 105.755C217.359 104.226 217.359 102.671 217.104 101.142C216.872 99.6578 216.275 98.2408 215.359 96.9977C215.116 96.7132 214.848 96.4419 214.6 96.1662C214.344 95.9233 214.057 95.7102 213.744 95.5316C213.044 95.1496 212.298 94.8413 211.522 94.6125C209.872 94.1412 208.19 93.7728 206.486 93.5096C203.025 92.9584 199.523 92.6497 196.011 92.5862C192.46 92.5357 188.908 92.676 185.374 93.0063Z" fill="#231F20"/>
<path d="M131.564 96.6565C135.364 104.034 141.038 110.469 148.113 115.424C155.187 120.379 163.455 123.709 172.224 125.134" fill="white"/>
<path d="M131.564 96.6565C133.732 100.175 136.274 103.49 139.152 106.552C140.58 108.067 142.091 109.516 143.677 110.893C145.273 112.259 146.96 113.519 148.685 114.745C152.188 117.117 155.936 119.169 159.876 120.872C163.862 122.589 167.993 124.007 172.229 125.113C169.997 124.971 167.782 124.652 165.611 124.158C161.238 123.173 157.041 121.62 153.148 119.546C149.259 117.458 145.679 114.921 142.497 111.996C140.921 110.529 139.449 108.971 138.091 107.331C135.382 104.069 133.185 100.476 131.564 96.6565Z" fill="#231F20"/>
<path d="M162.987 79.2639C164.932 79.2639 166.509 76.8381 166.509 73.8457C166.509 70.8533 164.932 68.4275 162.987 68.4275C161.042 68.4275 159.465 70.8533 159.465 73.8457C159.465 76.8381 161.042 79.2639 162.987 79.2639Z" fill="#231F20"/>
<path d="M205.54 84.9753C207.611 84.9753 209.291 82.4025 209.291 79.2288C209.291 76.055 207.611 73.4822 205.54 73.4822C203.468 73.4822 201.788 76.055 201.788 79.2288C201.788 82.4025 203.468 84.9753 205.54 84.9753Z" fill="#231F20"/>
<path d="M380.465 158.493C378.535 166.799 376.38 175.306 374 184.012C370.115 198.17 365.92 211.641 361.538 224.395C364.472 226.876 369.322 231.791 371.095 239.152C372.442 244.842 372.624 254.794 366.842 257.971C365.04 258.961 361.586 259.893 359.674 258.3C357.825 256.777 358.456 253.818 358.542 253.437C357.844 255.267 356.57 256.866 354.881 258.033C354.332 258.405 350.38 261.096 347.446 259.586C345.057 258.378 343.953 254.733 345.64 251.074C343.786 254.295 340.331 256.251 336.838 256.059C332.485 255.818 329.541 252.321 328.757 249.656C327.185 244.457 332.356 237.27 342.4 233.332C339.504 235.082 336.073 234.798 334.41 233.104C332.294 230.946 333.98 227.414 334.148 227.091C335.533 224.307 338.577 223.274 340.474 222.627C343.902 221.517 347.622 221.415 351.116 222.333C354.308 216.922 357.103 211.322 359.483 205.571C365.531 190.868 368.863 175.345 369.341 159.639L380.465 158.493Z" fill="white" stroke="#231F20" stroke-width="4" stroke-miterlimit="10"/>
<path d="M357.28 254.658C358.57 250.378 359.282 245.968 359.402 241.529C359.921 246.012 359.837 250.536 359.153 255L357.28 254.658Z" fill="#231F20"/>
<path d="M343.791 251.998C345.734 249.976 347.218 247.619 348.153 245.065C348.623 243.77 348.954 242.436 349.142 241.083C349.328 239.714 349.373 238.332 349.276 236.956C349.532 238.329 349.647 239.721 349.62 241.113C349.52 245.408 348.013 249.577 345.296 253.079L343.791 251.998Z" fill="#231F20"/>
<path d="M390.978 112.902C393.842 121.13 395.249 129.725 395.145 138.36C394.892 157.976 386.797 172.659 382.114 179.811L358.007 174.594C361.328 168.283 364.658 161.298 367.807 153.669C370.956 146.041 373.541 138.697 375.606 131.918" fill="white"/>
<path d="M390.978 112.902C393.842 121.13 395.249 129.725 395.145 138.36C394.892 157.976 386.797 172.659 382.114 179.811L358.007 174.594C361.328 168.283 364.658 161.298 367.807 153.669C370.956 146.041 373.541 138.697 375.606 131.918" stroke="#231F20" stroke-width="4" stroke-miterlimit="10"/>
<path d="M504.653 292.446L424.585 332.364L406.981 272.427L489.448 239.494C494.523 257.143 499.591 274.793 504.653 292.446Z" fill="white" stroke="#231F20" stroke-width="4" stroke-miterlimit="10"/>
<path d="M398.968 248.724L414.316 252.151C401.367 299.144 398.504 347.993 405.887 395.986L392.889 395.575C391.384 389.408 384.46 360.225 384.317 332.797C384.255 320.289 385.473 307.851 385.473 307.851C385.908 303.444 386.697 296.665 388.125 288.721C390.583 275.148 394.209 261.774 398.968 248.724Z" fill="#0D4E32"/>
<path d="M404.836 394.244C404.931 395.307 405.075 396.922 405.266 398.883C406.221 408.367 406.575 409.387 406.441 411.225C406.016 417.164 401.094 421.436 398.084 424.044C396.239 425.646 384.637 435.708 374.325 431.664C368.811 429.502 364.319 423.558 365.423 418.871C366.092 416.026 369.121 414.118 375.18 410.302C382.167 405.899 385.803 405.242 388.522 401.141C389.757 399.239 390.524 397.112 390.768 394.909L404.836 394.244Z" fill="white" stroke="#231F20" stroke-width="4" stroke-miterlimit="10"/>
<path d="M414.029 248.908C412.892 253.801 411.497 260.453 410.307 268.388C408.496 281.452 407.585 294.608 407.578 307.777C407.846 347.931 423.19 397.496 424.571 401.912L440.163 401.115C424.533 351.754 421.038 299.834 429.927 249.087L414.029 248.908Z" fill="#0D4E32"/>
<path d="M392.326 119.808C402.312 131.237 410.689 143.77 417.26 157.114C423.706 170.244 440.354 205.427 431.447 247.345C430.359 252.496 428.922 257.579 427.146 262.567L389.874 253.709C392.979 246.839 395.397 239.726 397.099 232.456C407.731 187.207 387.542 147.906 376.552 130.071L392.326 119.808Z" fill="white" stroke="#231F20" stroke-width="4" stroke-miterlimit="10"/>
<path d="M439.953 400.231C440.058 401.373 440.211 403.115 440.431 405.229C441.429 415.449 441.835 416.53 441.697 418.53C441.219 424.928 435.929 429.532 432.689 432.342C430.702 434.067 418.196 444.912 407.082 440.553C401.142 438.224 396.301 431.8 397.491 426.771C398.213 423.707 401.476 421.646 408.004 417.532C415.53 412.792 419.472 412.083 422.377 407.663C423.708 405.615 424.532 403.325 424.791 400.953L439.953 400.231Z" fill="white" stroke="#231F20" stroke-width="4" stroke-miterlimit="10"/>
<path d="M489.448 239.494L406.981 272.427C413.543 285.734 418.964 299.489 423.195 313.567C425.206 320.272 426.86 326.745 428.212 332.942L514 293.448L489.448 239.494Z" fill="white" stroke="#231F20" stroke-width="4" stroke-miterlimit="10"/>
<path d="M429.168 172.091C432.121 180.575 434.988 189.35 437.769 198.416C442.261 213.164 446.074 227.432 449.319 241.135C453.395 242.01 460.601 244.172 466.368 250.046C470.817 254.575 476.632 263.565 473.168 269.219C472.093 270.97 469.474 273.469 466.813 272.939C464.261 272.427 463.157 269.438 463.018 269.049C463.423 271.046 463.17 273.109 462.292 274.975C462.001 275.574 459.903 279.885 456.4 279.924C453.533 279.959 450.465 277.167 449.925 273.031C450.064 276.848 448.014 280.275 444.736 281.758C440.631 283.609 435.967 281.824 433.745 279.767C429.416 275.762 430.056 266.76 436.957 258.366C435.298 261.324 432.025 262.711 429.55 261.959C426.396 261 425.937 256.991 425.899 256.606C425.584 253.411 427.768 251.022 429.129 249.529C431.631 246.885 434.973 245.023 438.686 244.203C438.525 237.753 437.896 231.32 436.804 224.946C433.974 208.674 428.206 192.947 419.735 178.41L429.168 172.091Z" fill="white" stroke="#231F20" stroke-width="4" stroke-miterlimit="10"/>
<path d="M462.655 270.725C461.387 266.217 459.522 261.868 457.103 257.775C460.101 261.62 462.576 265.787 464.471 270.182L462.655 270.725Z" fill="#231F20"/>
<path d="M448.845 274.734C449.457 271.962 449.457 269.107 448.845 266.335C448.539 264.93 448.081 263.556 447.479 262.234C446.868 260.9 446.121 259.622 445.247 258.418C446.257 259.548 447.149 260.762 447.909 262.046C450.245 266.004 451.224 270.516 450.719 274.992L448.845 274.734Z" fill="#231F20"/>
<path d="M394.681 118.688C403.105 123.437 410.644 129.392 417.011 136.325C431.452 152.081 435.963 168.834 437.559 177.465L414.469 188.406C412.4 181.307 409.839 173.67 406.651 165.648C403.464 157.626 400.033 150.155 396.617 143.463" fill="white"/>
<path d="M394.681 118.688C403.105 123.437 410.644 129.392 417.011 136.325C431.452 152.081 435.963 168.834 437.559 177.465L414.469 188.406C412.4 181.307 409.839 173.67 406.651 165.648C403.464 157.626 400.033 150.155 396.617 143.463" stroke="#231F20" stroke-width="4" stroke-miterlimit="10"/>
<path d="M424.695 84.5552C425.603 83.9644 431.93 80.0124 439.547 82.0125C441.64 82.5595 447.417 84.4983 449.682 89.8069C450.016 90.5947 451.966 95.1637 449.457 98.7349C446.829 102.481 441.052 102.674 436.484 102.783C432.305 102.898 428.145 102.24 424.251 100.849" fill="white"/>
<path d="M424.695 84.5549C425.795 83.7778 426.99 83.1198 428.255 82.5942C429.525 82.0546 430.857 81.6451 432.226 81.3731C435.021 80.8205 437.925 80.9473 440.65 81.7408C443.421 82.5145 445.928 83.9265 447.933 85.8416C448.934 86.8282 449.742 87.9652 450.322 89.2028C450.919 90.4287 451.326 91.7251 451.531 93.0542C451.756 94.4259 451.666 95.8254 451.268 97.1638C450.849 98.5503 450.011 99.8002 448.85 100.77C447.697 101.691 446.341 102.375 444.874 102.775C443.484 103.155 442.054 103.399 440.607 103.505C439.174 103.624 437.793 103.663 436.407 103.689C432.136 103.771 427.894 103.026 423.959 101.501L424.499 100.227C427.034 101.045 429.669 101.571 432.345 101.794C433.676 101.909 435.014 101.942 436.35 101.895C437.721 101.847 439.083 101.794 440.411 101.672C441.717 101.564 443.008 101.343 444.268 101.011C445.453 100.69 446.553 100.148 447.498 99.4177C448.408 98.6885 449.071 97.7365 449.409 96.6736C449.75 95.5702 449.848 94.4157 449.696 93.2774C449.554 92.0955 449.232 90.9377 448.74 89.8374C448.257 88.7425 447.582 87.727 446.743 86.8307C445.885 85.9227 444.892 85.1287 443.795 84.4718C442.686 83.8008 441.498 83.2459 440.254 82.8174C437.734 81.9529 435.018 81.682 432.355 82.0296C429.638 82.3757 427.029 83.2356 424.695 84.5549Z" fill="#231F20"/>
<path d="M335.266 64.2523C336.06 61.1893 337.268 58.2285 338.859 55.4379C340.479 52.6535 342.455 50.0559 344.746 47.7002C347.48 44.8117 354.189 37.7348 362.709 33.7872C375.252 27.9795 392.373 28.706 405.863 35.8047C424.886 45.8183 428.398 64.5674 429.478 70.3182C430.009 73.1367 435.552 105.948 408.869 122.478C394.266 131.52 373.336 133.629 356.348 124.622C340.689 116.307 335.361 102.302 334.057 98.455" fill="white"/>
<path d="M335.266 64.2523C336.659 58.8122 339.366 53.7274 343.188 49.372C347.011 45.0699 351.183 40.9515 356.019 37.5553C358.415 35.8229 361.016 34.343 363.774 33.1437C366.538 31.9428 369.448 31.0466 372.442 30.4741C375.441 29.9182 378.491 29.6251 381.55 29.5987C384.615 29.5734 387.675 29.8123 390.691 30.3121C391.446 30.4478 392.206 30.5441 392.952 30.7191L395.183 31.2224C396.65 31.6295 398.131 32.0146 399.555 32.5354C400.277 32.7805 400.989 33.0168 401.696 33.3188C402.403 33.6208 403.13 33.879 403.794 34.1941L405.844 35.1701C406.522 35.494 407.172 35.8791 407.841 36.2292C410.465 37.7211 412.914 39.4576 415.148 41.4111C417.372 43.3699 419.376 45.5281 421.13 47.8533C424.592 52.5467 427.169 57.7396 428.752 63.215C429.56 65.9354 430.191 68.6975 430.639 71.4867C431.043 74.283 431.253 77.0998 431.27 79.9203C431.349 85.5667 430.635 91.1989 429.144 96.6781C427.652 102.196 425.118 107.432 421.656 112.149C418.123 116.856 413.586 120.86 408.319 123.918C405.704 125.444 402.938 126.743 400.057 127.795C398.624 128.286 397.19 128.824 395.675 129.192L394.562 129.498C394.195 129.609 393.822 129.703 393.444 129.778L391.183 130.259C390.433 130.439 389.659 130.518 388.899 130.64C388.14 130.763 387.375 130.894 386.606 130.955C385.062 131.082 383.524 131.262 381.975 131.262C378.879 131.352 375.779 131.188 372.715 130.771L370.431 130.386C370.053 130.316 369.666 130.268 369.293 130.181L368.166 129.909L365.92 129.367L363.722 128.675L362.622 128.325C362.264 128.198 361.911 128.049 361.557 127.909L359.44 127.065C358.738 126.771 358.064 126.412 357.381 126.084L356.353 125.585C356.181 125.498 356.009 125.419 355.842 125.331L355.364 125.047L353.381 123.918C353.051 123.731 352.732 123.528 352.425 123.309L351.47 122.679L350.514 122.045C350.198 121.839 349.917 121.607 349.62 121.371C349.033 120.907 348.435 120.456 347.857 119.988C345.587 118.062 343.508 115.956 341.645 113.694C337.936 109.166 335.114 104.082 333.307 98.6695L334.707 98.2668C336.55 103.495 339.35 108.398 342.988 112.766C344.808 114.933 346.834 116.949 349.042 118.788C349.601 119.226 350.184 119.664 350.753 120.101C351.039 120.316 351.317 120.539 351.618 120.749L352.521 121.349L353.429 121.948C353.73 122.145 354.026 122.355 354.346 122.526L356.258 123.603L356.735 123.874L357.213 124.115L358.202 124.587C358.871 124.894 359.512 125.235 360.19 125.515L362.24 126.321C362.584 126.452 362.924 126.596 363.268 126.719L364.328 127.047L366.441 127.708L368.6 128.22L369.68 128.478C370.039 128.557 370.411 128.605 370.775 128.671L372.973 129.034C375.92 129.425 378.899 129.571 381.875 129.472C383.371 129.472 384.847 129.288 386.329 129.165C387.074 129.104 387.8 128.955 388.536 128.855C389.272 128.754 390.013 128.658 390.734 128.478L392.909 128.01C393.272 127.937 393.631 127.846 393.984 127.739L395.054 127.441C396.488 127.078 397.869 126.566 399.264 126.08C402.036 125.048 404.701 123.788 407.225 122.316C412.266 119.41 416.612 115.597 419.998 111.108C423.339 106.572 425.788 101.536 427.232 96.2274C428.695 90.8984 429.404 85.4192 429.34 79.9247C429.323 77.1818 429.118 74.4426 428.728 71.7231C428.319 69.0031 427.732 66.3081 426.97 63.6527C425.474 58.3378 423.042 53.282 419.768 48.6849C416.452 44.113 412.151 40.2096 407.129 37.2139C406.489 36.8594 405.868 36.4743 405.218 36.1461L403.249 35.157C402.585 34.8375 401.892 34.5661 401.218 34.2817C400.545 33.9972 399.847 33.7258 399.149 33.472C397.768 32.9337 396.325 32.5354 394.896 32.1065L392.727 31.5726C392.001 31.3888 391.255 31.2793 390.524 31.1349C387.569 30.5854 384.565 30.2923 381.55 30.2596C378.534 30.2404 375.522 30.4851 372.557 30.9905C366.596 32.0363 360.985 34.3444 356.172 37.7304C351.321 41.0697 347.092 45.1267 343.236 49.4114C339.398 53.7483 336.674 58.8205 335.266 64.2523Z" fill="#231F20"/>
<path d="M355.828 77.0054C350.719 73.8006 345.011 71.4819 338.988 70.1649C333.005 68.8825 331.085 69.5828 330.253 69.9592C324.681 72.4713 321.618 81.3382 323.492 88.1394C325.618 95.8466 334.195 101.103 341.095 99.1903C342.826 98.6776 344.406 97.8076 345.711 96.6475" fill="white"/>
<path d="M355.828 77.0053C352.978 75.5327 350.019 74.2443 346.973 73.1496C343.956 72.0829 340.841 71.2656 337.665 70.7075C336.123 70.4218 334.554 70.2752 332.982 70.2698C332.274 70.2679 331.573 70.3867 330.913 70.6199C330.263 70.912 329.652 71.2718 329.092 71.6922C327.941 72.6121 326.985 73.719 326.273 74.9571C325.528 76.2207 324.949 77.5605 324.548 78.9485C324.151 80.3464 323.911 81.7776 323.831 83.22C323.74 84.6577 323.859 86.1001 324.184 87.509C324.837 90.3456 326.355 92.9544 328.562 95.0323C329.669 96.071 330.93 96.9623 332.308 97.6801C333.687 98.4089 335.199 98.9013 336.771 99.1331C338.354 99.3526 339.97 99.2541 341.506 98.8443C343.056 98.3735 344.486 97.6219 345.712 96.6341C344.572 97.7465 343.187 98.625 341.65 99.2119C341.26 99.3539 340.859 99.468 340.45 99.5533L339.839 99.7065L339.213 99.7809L338.582 99.8553C338.372 99.8815 338.162 99.8553 337.947 99.8553C337.524 99.8692 337.101 99.8546 336.68 99.8115C334.985 99.6649 333.336 99.219 331.825 98.4985C329.525 97.4452 327.505 95.9415 325.91 94.0938C324.314 92.2461 323.182 90.0997 322.593 87.8066C322.211 86.276 322.05 84.7059 322.115 83.1369C322.162 81.5743 322.39 80.0207 322.794 78.5021C323.222 76.9811 323.846 75.512 324.653 74.1256C325.466 72.6936 326.563 71.4128 327.888 70.3486L328.418 69.9635C328.592 69.8291 328.779 69.7104 328.977 69.609L329.57 69.2939C329.771 69.1819 329.982 69.0853 330.201 69.005C331.079 68.7036 332.011 68.5552 332.948 68.5673C334.662 68.5721 336.368 68.7631 338.033 69.1363C344.538 70.4927 350.622 73.1833 355.828 77.0053Z" fill="#231F20"/>
<path d="M403.479 99.1641C396.931 104.577 389.063 108.474 380.533 110.53C372.003 112.586 363.06 112.74 354.451 110.981" fill="white"/>
<path d="M403.479 99.1641C400.404 102.088 396.898 104.603 393.061 106.635C391.138 107.66 389.144 108.571 387.093 109.361C382.961 110.932 378.624 112.006 374.191 112.556C369.769 113.095 365.285 113.046 360.878 112.412C358.689 112.104 356.533 111.619 354.437 110.963C358.767 111.429 363.131 111.575 367.487 111.401C371.802 111.218 376.086 110.648 380.279 109.698C382.362 109.186 384.431 108.622 386.458 107.948C388.484 107.274 390.5 106.446 392.412 105.536C396.319 103.748 400.025 101.614 403.479 99.1641Z" fill="#231F20"/>
<path d="M387.483 68.5519C388.731 65.8178 388.301 63.0498 386.524 62.3694C384.746 61.6891 382.294 63.354 381.046 66.0882C379.799 68.8224 380.228 71.5903 382.006 72.2707C383.783 72.951 386.236 71.2861 387.483 68.5519Z" fill="#231F20"/>
<path d="M346.563 58.6652C347.886 55.7659 347.423 52.8277 345.528 52.1026C343.634 51.3775 341.026 53.14 339.703 56.0394C338.38 58.9387 338.843 61.8769 340.738 62.602C342.632 63.3271 345.24 61.5646 346.563 58.6652Z" fill="#231F20"/>
<path d="M364.395 2.44214L412.381 39.4503L411.244 40.8508C406.677 38.121 401.782 35.8829 396.655 34.181C394.089 33.3299 391.471 32.6182 388.813 32.0496L386.811 31.6513C386.142 31.5288 385.464 31.4325 384.795 31.3231C383.452 31.078 382.09 30.9511 380.733 30.7847C378.01 30.5097 375.272 30.3811 372.533 30.3996C371.85 30.3996 371.162 30.3996 370.478 30.439C369.795 30.4784 369.107 30.4871 368.424 30.5265C367.057 30.6228 365.69 30.7191 364.328 30.8854C358.861 31.4972 353.486 32.6717 348.306 34.3867C353.447 32.5307 358.799 31.2095 364.262 30.4478C365.628 30.2464 367 30.1151 368.376 29.9795C369.064 29.9226 369.757 29.8832 370.445 29.835C371.133 29.7869 371.826 29.7606 372.519 29.7431C375.288 29.649 378.062 29.706 380.824 29.9138C382.205 30.0451 383.59 30.1414 384.962 30.3515C385.645 30.4478 386.333 30.5309 387.021 30.6359L389.067 30.9861C391.793 31.4908 394.483 32.1456 397.123 32.9468C402.423 34.5454 407.503 36.7013 412.261 39.3716L411.124 40.7721L364.395 2.44214Z" fill="#231F20"/>
<path d="M346.409 12.8279C352.093 13.7986 357.705 15.0892 363.215 16.6924C368.729 18.2767 374.158 20.1936 379.462 22.2593C382.119 23.2922 384.776 24.3425 387.399 25.4585C390.022 26.5746 392.655 27.7518 395.178 29.0342C397.701 30.3165 400.22 31.7082 402.623 33.205C405.027 34.7018 407.349 36.2948 409.605 37.9535L408.649 39.1177C406.298 37.6078 403.961 36.0935 401.548 34.693C399.135 33.2925 396.712 31.9489 394.18 30.6972C391.647 29.4456 389.1 28.2989 386.51 27.196C383.92 26.0931 381.302 25.0078 378.673 23.918C373.417 21.7647 368.161 19.734 362.756 17.9134C357.352 16.0928 351.919 14.4034 346.409 12.8279Z" fill="#231F20"/>
<path d="M148.91 7.50146C151.098 9.31353 152.846 11.5262 154.042 13.9963C155.246 16.484 155.933 19.1556 156.068 21.8741C156.227 24.5808 155.95 27.2941 155.246 29.9269C154.57 32.5369 153.549 35.0617 152.207 37.4459L152.083 37.6997L151.796 37.5553C149.311 36.335 147.009 34.8241 144.949 33.0606C142.863 31.304 141.021 29.3197 139.463 27.1522C137.905 24.9861 136.652 22.6479 135.736 20.1935C134.811 17.7612 134.258 15.2236 134.092 12.6527C134.898 15.0643 135.875 17.4254 137.016 19.7208C138.169 21.9736 139.523 24.1357 141.064 26.185C142.609 28.2231 144.316 30.154 146.172 31.962C148.035 33.7739 150.047 35.4633 152.131 37.1526L151.715 37.2621C152.643 34.7855 153.375 32.2507 153.903 29.6775C154.157 28.3995 154.333 27.1128 154.448 25.8261C154.545 24.5413 154.561 23.2525 154.496 21.966C154.42 20.6809 154.243 19.4025 153.965 18.1409C153.703 16.8767 153.334 15.633 152.862 14.4208C151.893 11.9609 150.564 9.63311 148.91 7.50146Z" fill="#231F20"/>
</svg>
