<svg width="545" height="322" viewBox="0 0 545 322" fill="none" xmlns="http://www.w3.org/2000/svg">
<path d="M662.367 97.5178C583.486 144.878 513.541 164.072 467.058 172.777C425.04 180.645 322.539 199.836 222.05 177.793C202.222 173.446 154.208 161.296 99.9601 178.629C85.3 183.335 71.2615 189.793 58.1494 197.863C60.6566 203.993 63.1651 210.126 65.6749 216.261C95.9796 206.29 127.473 200.385 159.332 198.7C233.934 194.848 252.048 217.823 335.777 217.516C379.548 217.361 416.331 210.931 461.209 203.09C489.841 198.087 515.693 193.485 548.177 183.649C587.926 171.592 626.224 155.185 662.375 134.727L662.367 97.5178Z" fill="#231F20"/>
<path d="M65.6669 216.679C65.2757 221.846 63.3859 226.786 60.229 230.894C53.3249 236.264 46.2297 236.635 44.3413 234.24C42.5247 231.934 44.3971 225.635 50.1697 220.297C47.2707 221.841 44.5426 223.686 42.0307 225.802C32.9634 233.455 30.9037 241.232 24.167 241.929C23.4459 242.005 21.0755 242.216 19.1155 240.806C15.4981 238.2 16.1714 232.224 16.267 231.372C16.5403 229.113 17.3608 226.955 18.6573 225.085C12.1676 226.782 6.38301 224.814 4.71377 221.201C3.37918 218.313 4.81735 214.691 5.25558 213.592C6.20125 211.236 7.79014 209.192 9.84101 207.696C9.18367 207.759 6.70571 207.931 4.84524 206.277C1.8414 203.608 3.37519 198.764 3.51463 198.346C3.9409 197.071 5.10818 194.585 9.84898 192.039C16.263 188.597 22.689 188.541 26.7605 188.677C42.6641 189.195 50.6159 189.454 57.1893 195.601C62.205 200.29 66.2446 207.987 65.6669 216.679Z" fill="white" stroke="#231F20" stroke-width="5.14" stroke-miterlimit="10"/>
<path d="M38.6444 212.942C34.7172 214.259 31.0015 216.138 27.613 218.52C24.2626 220.865 21.2689 223.683 18.725 226.886L17.1753 225.547C20.0726 222.453 23.4016 219.794 27.0593 217.651C30.6735 215.531 34.5757 213.945 38.6444 212.942Z" fill="#231F20"/>
<path d="M39.0906 202.795C34.1174 201.97 29.0357 202.051 24.0913 203.034C19.211 204.01 14.5545 205.883 10.3589 208.56L9.31915 206.795C13.8477 204.31 18.7988 202.689 23.92 202.015C28.9825 201.356 34.1224 201.621 39.0906 202.795Z" fill="#231F20"/>
<path d="M662.367 317.236C633.798 301.129 588.131 280.365 528.979 274.131C512.271 272.37 487.945 269.776 456.261 274.019C410.447 280.154 392.986 294.707 350.82 297.795C328.852 299.351 306.776 297.45 285.397 292.162C285.742 286.69 286.088 281.221 286.433 275.752C322.563 280.608 350.139 276.872 368.381 272.708C403.599 264.669 408.033 254.128 444.075 248.646C471.42 244.487 494.885 246.71 520.023 248.853C538.299 250.492 556.459 253.227 574.407 257.044C604.541 263.411 633.996 272.647 662.371 284.624L662.367 317.236Z" fill="white" stroke="#231F20" stroke-width="5.14" stroke-miterlimit="10"/>
<path d="M290.389 293.066C288.576 298.99 283.931 302.627 281.704 304.181C272.987 307.48 264.972 306.488 263.295 304.097C261.701 301.795 264.928 296.771 272.37 293.281C268.909 294.039 265.522 295.106 262.251 296.468C250.698 301.316 246.969 307.567 239.296 306.914C238.471 306.846 235.778 306.587 233.842 305.022C230.256 302.137 232.109 297.165 232.372 296.456C233.162 294.493 234.482 292.788 236.184 291.532C228.615 291.783 222.488 289.038 221.277 285.644C220.309 282.935 222.584 280.114 223.269 279.27C225.297 276.752 228.149 275.569 229.492 275.099C228.743 275.035 225.934 274.7 224.157 272.967C221.281 270.139 223.882 266.29 224.113 265.96C224.822 264.948 226.583 263.047 232.364 261.753C240.172 260.004 247.383 261.143 251.917 262.008C269.637 265.39 278.497 267.079 284.736 273.533C289.509 278.453 292.624 285.76 290.389 293.066Z" fill="white" stroke="#231F20" stroke-width="5.14" stroke-miterlimit="10"/>
<path d="M260.797 284.891C256.337 285.287 251.937 286.184 247.678 287.564C243.461 288.922 239.442 290.833 235.726 293.245L234.671 291.492C238.677 289.299 242.958 287.647 247.399 286.58C251.787 285.514 256.282 284.947 260.797 284.891Z" fill="#231F20"/>
<path d="M263.155 276.318C257.709 274.715 252.068 273.876 246.391 273.824C240.766 273.754 235.161 274.515 229.758 276.083L229.245 274.091C234.88 272.816 240.672 272.378 246.435 272.792C252.144 273.19 257.771 274.376 263.155 276.318Z" fill="#231F20"/>
<path d="M665 54.504C634.746 41.8353 586.968 26.5412 527.493 27.2503C510.693 27.4495 486.228 27.7085 455.257 35.6165C410.491 47.0541 394.826 63.5474 353.31 71.5151C331.673 75.624 309.526 76.3109 287.676 73.5508L286.792 57.1333C323.24 57.7429 350.191 50.8149 367.823 44.5523C401.862 32.4612 405.037 21.4737 440.19 11.8248C466.882 4.50246 490.427 3.9726 515.645 3.17185C533.99 2.66968 552.349 3.26833 570.622 4.96459C601.294 7.77336 631.628 13.5097 661.207 22.0952L665 54.504Z" fill="white" stroke="#231F20" stroke-width="5.14" stroke-miterlimit="10"/>
<path d="M292.739 73.8815C291.628 79.9808 287.445 84.1519 285.409 85.9367C277.139 90.2313 269.075 90.1795 267.119 88.0003C265.247 85.9008 267.884 80.5345 274.868 76.1961C271.52 77.3565 268.281 78.8123 265.191 80.5465C254.279 86.7095 251.307 93.3546 243.61 93.6016C242.786 93.6295 240.081 93.6893 237.973 92.3587C234.085 89.9086 235.336 84.7574 235.515 84.0204C236.069 81.9785 237.181 80.1313 238.726 78.686C231.229 79.8174 224.83 77.8056 223.233 74.5787C221.958 72.0011 223.886 68.9335 224.472 68.0013C226.193 65.2644 228.89 63.7585 230.169 63.133C229.42 63.1569 226.583 63.1728 224.619 61.6391C221.432 59.1611 223.572 55.0378 223.763 54.6832C224.348 53.5956 225.874 51.4961 231.464 49.544C239.033 46.8948 246.307 47.1856 250.913 47.5162C268.912 48.807 277.904 49.4524 284.847 55.1334C290.158 59.4718 294.11 66.3679 292.739 73.8815Z" fill="white" stroke="#231F20" stroke-width="5.14" stroke-miterlimit="10"/>
<path d="M262.394 69.2124C258.012 70.1269 253.746 71.5314 249.678 73.3995C245.648 75.2411 241.88 77.6081 238.471 80.4389L237.216 78.8215C240.94 76.1738 244.997 74.0304 249.283 72.4473C253.519 70.8814 257.917 69.7963 262.394 69.2124Z" fill="#231F20"/>
<path d="M263.733 60.428C258.136 59.4715 252.434 59.2945 246.79 59.9021C241.195 60.491 235.719 61.9004 230.535 64.0851L229.79 62.1769C235.24 60.2554 240.942 59.1453 246.714 58.8822C252.431 58.6103 258.158 59.1305 263.733 60.428Z" fill="#231F20"/>
</svg>
