<svg width="400" height="456" viewBox="0 0 449 456" fill="none" xmlns="http://www.w3.org/2000/svg">
<g clip-path="url(#clip0_8_494)">
<path d="M291.6 388.292L211.327 416.446L137.106 372.628L211.681 349.013L291.6 388.292Z" fill="white" stroke="#231F20" stroke-width="4" stroke-linecap="round" stroke-linejoin="round"/>
<path d="M227.589 445.226C232.793 437.168 213.866 414.911 185.316 395.514C156.765 376.117 129.402 366.926 124.198 374.984C118.994 383.042 137.92 405.299 166.471 424.696C195.021 444.092 222.384 453.284 227.589 445.226Z" fill="white" stroke="#231F20" stroke-width="4" stroke-linecap="round" stroke-linejoin="round"/>
<path d="M291.6 388.292L211.327 416.446L214.653 447.644L294.514 420.242L291.6 388.292Z" fill="white" stroke="#231F20" stroke-width="4" stroke-linecap="round" stroke-linejoin="round"/>
<path d="M210.664 424.684L144.845 388.774C144.747 388.723 144.661 388.652 144.59 388.567C144.52 388.481 144.467 388.382 144.434 388.275C144.401 388.168 144.389 388.055 144.4 387.944C144.41 387.832 144.441 387.724 144.493 387.625C144.544 387.526 144.614 387.438 144.699 387.367C144.783 387.297 144.881 387.244 144.986 387.212C145.091 387.18 145.201 387.17 145.309 387.182C145.418 387.195 145.523 387.229 145.619 387.283L210.664 424.684Z" fill="#0D4E32"/>
<path d="M144.372 397.366L204.704 432.09L143.581 398.848C143.484 398.797 143.397 398.727 143.327 398.641C143.256 398.555 143.203 398.456 143.17 398.349C143.137 398.242 143.126 398.13 143.136 398.018C143.146 397.906 143.178 397.798 143.229 397.699C143.28 397.6 143.35 397.513 143.435 397.442C143.52 397.371 143.617 397.318 143.722 397.286C143.827 397.254 143.937 397.244 144.046 397.257C144.154 397.269 144.259 397.303 144.355 397.358L144.372 397.366Z" fill="#231F20"/>
<path d="M290.044 400.647L218.416 424.519L289.517 399.046C289.723 398.973 289.95 398.986 290.147 399.083C290.343 399.181 290.494 399.354 290.567 399.566C290.639 399.777 290.626 400.01 290.531 400.212C290.436 400.414 290.267 400.569 290.06 400.642L290.044 400.647Z" fill="#0D4E32"/>
<path d="M289.591 413.47L221.717 435.847L289.068 411.857C289.275 411.783 289.501 411.797 289.697 411.895C289.894 411.993 290.044 412.166 290.116 412.378C290.187 412.59 290.174 412.822 290.079 413.023C289.983 413.225 289.814 413.379 289.607 413.453L289.591 413.47Z" fill="#0D4E32"/>
<path d="M179.016 403.032L94.2155 405.316L36.1351 340.759L114.185 341.067L179.016 403.032Z" fill="#231F20" stroke="#231F20" stroke-width="4" stroke-linecap="round" stroke-linejoin="round"/>
<path d="M101.343 437.781C108.656 431.685 97.0764 404.646 75.4783 377.388C53.8803 350.129 30.4432 332.973 23.1299 339.069C15.8167 345.165 27.3968 372.204 48.9948 399.463C70.5929 426.721 94.03 443.877 101.343 437.781Z" fill="white" stroke="#231F20" stroke-width="4" stroke-linecap="round" stroke-linejoin="round"/>
<path d="M179.016 403.032L94.2154 405.316L88.3041 436.109L172.52 434.42C174.691 423.958 176.856 413.495 179.016 403.032Z" fill="white" stroke="#231F20" stroke-width="4" stroke-linecap="round" stroke-linejoin="round"/>
<path d="M91.1775 412.967L38.8191 358.538C38.7431 358.459 38.6831 358.366 38.6424 358.263C38.6017 358.16 38.5812 358.05 38.5819 357.939C38.5827 357.828 38.6048 357.719 38.6469 357.616C38.689 357.514 38.7503 357.421 38.8273 357.344C38.9044 357.266 38.9956 357.204 39.0958 357.162C39.1961 357.121 39.3033 357.1 39.4115 357.1C39.5197 357.101 39.6267 357.124 39.7263 357.167C39.826 357.21 39.9164 357.273 39.9923 357.352L91.1775 412.967Z" fill="#0D4E32"/>
<path d="M35.8676 366.594L83.3354 418.211L34.682 367.756C34.5408 367.594 34.4656 367.383 34.4719 367.167C34.4782 366.95 34.5655 366.744 34.7158 366.591C34.8661 366.439 35.0677 366.352 35.2791 366.347C35.4904 366.343 35.6952 366.423 35.8511 366.569L35.8676 366.594Z" fill="#0D4E32"/>
<path d="M173.932 414.348L98.6407 415.192L173.899 412.659C174.118 412.652 174.33 412.734 174.489 412.887C174.649 413.04 174.742 413.252 174.75 413.476C174.757 413.7 174.677 413.918 174.527 414.081C174.378 414.245 174.171 414.34 173.953 414.348H173.932Z" fill="#0D4E32"/>
<path d="M169.771 426.444L98.4761 427.019L169.738 424.756C169.956 424.749 170.168 424.831 170.327 424.985C170.486 425.139 170.579 425.351 170.586 425.575C170.592 425.799 170.512 426.016 170.362 426.179C170.212 426.342 170.005 426.438 169.787 426.444H169.771Z" fill="#0D4E32"/>
<path d="M96.9119 326.939L171.553 367.798L251.258 340.353L181.511 304.76L96.9119 326.939Z" fill="white" stroke="#231F20" stroke-width="4" stroke-linecap="round" stroke-linejoin="round"/>
<path d="M213.521 384.06C244.621 371.263 267.082 353.857 263.689 345.183C260.296 336.509 232.334 339.851 201.235 352.648C170.135 365.445 147.674 382.851 151.067 391.525C154.46 400.2 182.421 396.857 213.521 384.06Z" fill="white" stroke="#231F20" stroke-width="4" stroke-linecap="round" stroke-linejoin="round"/>
<path d="M96.9117 326.939L171.553 367.798L163.522 396.327L89.1315 356.237L96.9117 326.939Z" fill="white" stroke="#231F20" stroke-width="4" stroke-linecap="round" stroke-linejoin="round"/>
<path d="M170.964 375.609L240.666 352.45C240.874 352.381 241.1 352.4 241.294 352.502C241.489 352.604 241.636 352.781 241.703 352.995C241.77 353.208 241.752 353.44 241.652 353.639C241.553 353.839 241.38 353.99 241.172 354.059L170.964 375.609Z" fill="#0D4E32"/>
<path d="M240.859 363.702L175.698 383.61L240.369 362.077C240.474 362.035 240.585 362.017 240.697 362.021C240.809 362.025 240.919 362.053 241.02 362.103C241.121 362.152 241.211 362.222 241.284 362.308C241.358 362.395 241.414 362.496 241.448 362.605C241.483 362.714 241.495 362.829 241.485 362.943C241.474 363.058 241.441 363.169 241.388 363.269C241.334 363.37 241.261 363.458 241.173 363.529C241.085 363.6 240.984 363.652 240.876 363.681L240.859 363.702Z" fill="#0D4E32"/>
<path d="M97.3193 337.313L163.349 374.047L96.5495 338.804C96.368 338.694 96.2342 338.518 96.1757 338.311C96.1171 338.103 96.1382 337.881 96.2347 337.689C96.3311 337.497 96.4956 337.35 96.6943 337.279C96.8929 337.207 97.1107 337.217 97.3028 337.305L97.3193 337.313Z" fill="#0D4E32"/>
<path d="M95.8045 349.364L158.376 384.041L95.0388 350.867C94.8439 350.765 94.6965 350.588 94.6289 350.374C94.5614 350.161 94.5793 349.929 94.6786 349.729C94.778 349.529 94.9507 349.378 95.1587 349.308C95.3668 349.239 95.5931 349.257 95.788 349.359L95.8045 349.364Z" fill="#0D4E32"/>
<path d="M284.071 293.791L203.769 292.068L145.532 242.824L219.564 246.156L284.071 293.791Z" fill="white" stroke="#231F20" stroke-width="4" stroke-linecap="round" stroke-linejoin="round"/>
<path d="M212.906 315.255C217.855 309.546 203.823 288.464 181.566 268.166C159.308 247.869 137.253 236.043 132.304 241.752C127.355 247.461 141.387 268.543 163.644 288.841C185.902 309.138 207.958 320.964 212.906 315.255Z" fill="white" stroke="#231F20" stroke-width="4" stroke-linecap="round" stroke-linejoin="round"/>
<path d="M284.071 293.791L203.769 292.068L199.653 314.214L279.435 316.35L284.071 293.791Z" fill="white" stroke="#231F20" stroke-width="4" stroke-linecap="round" stroke-linejoin="round"/>
<path d="M201.258 297.506L148.978 256.128C148.82 255.987 148.721 255.789 148.701 255.575C148.68 255.361 148.74 255.147 148.869 254.977C148.997 254.807 149.183 254.693 149.39 254.659C149.597 254.625 149.809 254.674 149.982 254.794L201.258 297.506Z" fill="#231F20"/>
<path d="M146.512 261.33L194.075 301.019L145.499 262.669C145.326 262.532 145.213 262.331 145.185 262.108C145.157 261.886 145.216 261.662 145.349 261.484C145.482 261.307 145.679 261.191 145.895 261.162C146.112 261.133 146.331 261.194 146.504 261.33H146.512Z" fill="#231F20"/>
<path d="M279.728 302.041L208.441 299.423L279.765 300.352C279.873 300.353 279.98 300.377 280.079 300.42C280.178 300.464 280.268 300.527 280.344 300.607C280.419 300.686 280.479 300.78 280.519 300.883C280.559 300.986 280.579 301.096 280.578 301.207C280.576 301.318 280.554 301.427 280.511 301.529C280.469 301.631 280.407 301.724 280.329 301.801C280.252 301.878 280.16 301.939 280.06 301.981C279.96 302.022 279.852 302.042 279.744 302.041H279.728Z" fill="#231F20"/>
<path d="M276.369 310.667L208.857 308.011L276.406 308.982C276.624 308.985 276.832 309.077 276.985 309.237C277.137 309.397 277.221 309.613 277.219 309.837C277.216 310.061 277.127 310.275 276.97 310.431C276.814 310.588 276.603 310.674 276.385 310.671L276.369 310.667Z" fill="#231F20"/>
<path d="M229.95 343.803L223.529 330.68L259.178 272.756C249.433 296.445 239.69 320.127 229.95 343.803Z" fill="white" stroke="#231F20" stroke-width="4" stroke-linecap="round" stroke-linejoin="round"/>
<path d="M309.231 330.444L311.417 315.936L260.203 271.991L309.231 330.444Z" fill="white" stroke="#231F20" stroke-width="4" stroke-linecap="round" stroke-linejoin="round"/>
<path d="M223.57 334.852C221.956 330.25 220.344 325.646 218.733 321.041L260.866 267.908L223.57 334.852Z" fill="white" stroke="#231F20" stroke-width="4" stroke-linecap="round" stroke-linejoin="round"/>
<path d="M213.208 317.853C213.815 319.398 214.419 320.947 215.02 322.498L217.354 328.489C231.163 308.416 244.977 288.345 258.795 268.276L213.208 317.853Z" fill="white" stroke="#231F20" stroke-width="4" stroke-linecap="round" stroke-linejoin="round"/>
<path d="M312.594 325.93C313.003 321.058 313.415 316.184 313.829 311.309L259.828 271.012C277.42 289.316 295.008 307.623 312.594 325.93Z" fill="white" stroke="#231F20" stroke-width="4" stroke-linecap="round" stroke-linejoin="round"/>
<path d="M318.366 306.774L317.773 311.735C317.523 313.872 317.269 316.005 317.011 318.136L261.924 270.809L318.366 306.774Z" fill="white" stroke="#231F20" stroke-width="4" stroke-linecap="round" stroke-linejoin="round"/>
<path d="M210.446 289.868L258.886 243.246C258.167 251.691 257.445 260.148 256.72 268.618L210.1 328.831L210.446 289.868Z" fill="black" stroke="black" stroke-width="4" stroke-linecap="round" stroke-linejoin="round"/>
<path d="M266.752 241.697L321.317 282.429C322.585 292.464 323.852 302.5 325.117 312.537L259.828 269.678C262.134 260.352 264.442 251.025 266.752 241.697Z" fill="black" stroke="black" stroke-width="4" stroke-linecap="round" stroke-linejoin="round"/>
<path d="M259.141 241.697C257.527 251.614 255.915 261.531 254.304 271.451L263.282 272.16C265.126 262.004 266.969 251.85 268.811 241.697H259.141Z" fill="black" stroke="black" stroke-width="4" stroke-linecap="round" stroke-linejoin="round"/>
<path d="M47.1387 276.737L119.532 312.411L193.181 295.467L125.67 264.138L47.1387 276.737Z" fill="#231F20" stroke="#231F20" stroke-width="4" stroke-linecap="round" stroke-linejoin="round"/>
<path d="M156.737 328.152C185.534 320.359 207.339 308.054 205.439 300.667C203.539 293.281 178.654 293.61 149.856 301.403C121.059 309.196 99.2539 321.501 101.154 328.888C103.054 336.274 127.939 335.945 156.737 328.152Z" fill="white" stroke="#231F20" stroke-width="4" stroke-linecap="round" stroke-linejoin="round"/>
<path d="M47.1387 276.737L119.532 312.411L113.436 334.066L41.3179 299.001C43.2581 291.578 45.1984 284.157 47.1387 276.737Z" fill="white" stroke="#231F20" stroke-width="4" stroke-linecap="round" stroke-linejoin="round"/>
<path d="M119.38 318.427L183.936 304.072C184.042 304.048 184.151 304.046 184.258 304.066C184.364 304.086 184.466 304.128 184.557 304.188C184.648 304.249 184.727 304.327 184.788 304.418C184.85 304.51 184.893 304.613 184.915 304.722C184.961 304.94 184.92 305.168 184.802 305.356C184.684 305.543 184.498 305.675 184.285 305.723H184.265L119.38 318.427Z" fill="#0D4E32"/>
<path d="M184.479 313.179L124.246 324.879L184.154 311.524C184.367 311.476 184.59 311.518 184.774 311.639C184.958 311.76 185.087 311.951 185.134 312.17C185.18 312.389 185.14 312.618 185.022 312.806C184.903 312.995 184.717 313.127 184.504 313.175L184.479 313.179Z" fill="#0D4E32"/>
<path d="M48.0854 284.578L112.127 316.798L47.3774 286.102C47.1807 286.007 47.0286 285.836 46.9543 285.627C46.88 285.417 46.8896 285.186 46.9809 284.983C47.0722 284.781 47.2379 284.624 47.4417 284.546C47.6456 284.469 47.871 284.477 48.0689 284.569L48.0854 284.578Z" fill="#0D4E32"/>
<path d="M47.2786 293.837L107.969 324.267L46.5746 295.361C46.3866 295.261 46.2432 295.091 46.1744 294.886C46.1055 294.68 46.1165 294.456 46.205 294.258C46.2935 294.061 46.4527 293.906 46.6496 293.826C46.8465 293.746 47.0658 293.747 47.2621 293.829L47.2786 293.837Z" fill="#0D4E32"/>
<path d="M76.436 256.289L150.279 269.04L212.002 234.333L143.602 224.2L76.436 256.289Z" fill="white" stroke="#231F20" stroke-width="4" stroke-linecap="round" stroke-linejoin="round"/>
<path d="M187.594 273.255C211.424 258.633 227.852 241.825 224.287 235.714C220.723 229.602 198.515 236.502 174.685 251.124C150.855 265.746 134.427 282.554 137.992 288.665C141.557 294.777 163.764 287.877 187.594 273.255Z" fill="white" stroke="#231F20" stroke-width="4" stroke-linecap="round" stroke-linejoin="round"/>
<path d="M76.436 256.289L150.279 269.04V290.067L76.8353 277.788C76.7036 270.628 76.5705 263.461 76.436 256.289Z" fill="white" stroke="#231F20" stroke-width="4" stroke-linecap="round" stroke-linejoin="round"/>
<path d="M151.662 274.482L205.827 244.467C206.02 244.36 206.245 244.337 206.454 244.401C206.663 244.465 206.839 244.612 206.943 244.809C207.047 245.006 207.07 245.237 207.007 245.452C206.945 245.666 206.802 245.847 206.61 245.953L151.662 274.482Z" fill="#0D4E32"/>
<path d="M208.68 252.565L157.664 278.971L207.935 251.066C208.127 250.96 208.353 250.936 208.562 251C208.771 251.064 208.947 251.211 209.051 251.408C209.154 251.605 209.178 251.836 209.115 252.051C209.052 252.266 208.909 252.446 208.717 252.552L208.68 252.565Z" fill="#0D4E32"/>
<path d="M79.2723 263.044L144.754 274.976L79.0048 264.691C78.7975 264.648 78.6143 264.525 78.4931 264.347C78.3718 264.17 78.3219 263.951 78.3537 263.737C78.3855 263.522 78.4964 263.328 78.6636 263.196C78.8308 263.063 79.0414 263.001 79.2518 263.023L79.2723 263.044Z" fill="#0D4E32"/>
<path d="M80.882 271.527L142.914 282.75L80.6185 273.178C80.4125 273.134 80.2305 273.011 80.1101 272.834C79.9896 272.657 79.9399 272.44 79.971 272.226C80.002 272.013 80.1116 271.819 80.2772 271.686C80.4428 271.553 80.6519 271.49 80.8614 271.51L80.882 271.527Z" fill="#0D4E32"/>
<path d="M404.998 385.717L315.739 397.214L239.332 353.949L322.046 345.23L404.998 385.717Z" fill="white" stroke="#231F20" stroke-width="4" stroke-linecap="round" stroke-linejoin="round"/>
<path d="M331.484 420.615C335.547 413.641 314.875 393.299 285.312 375.181C255.749 357.062 228.489 348.027 224.426 355.001C220.363 361.975 241.035 382.317 270.599 400.436C300.162 418.555 327.421 427.589 331.484 420.615Z" fill="white" stroke="#231F20" stroke-width="4" stroke-linecap="round" stroke-linejoin="round"/>
<path d="M404.998 385.717L315.739 397.214L316.562 421.703L405.352 410.725C405.243 402.393 405.125 394.057 404.998 385.717Z" fill="white" stroke="#231F20" stroke-width="4" stroke-linecap="round" stroke-linejoin="round"/>
<path d="M314.278 403.48L246.379 367.616C246.185 367.514 246.038 367.336 245.972 367.123C245.905 366.91 245.924 366.678 246.023 366.478C246.123 366.279 246.296 366.129 246.504 366.06C246.712 365.992 246.938 366.011 247.133 366.113L314.278 403.48Z" fill="#0D4E32"/>
<path d="M244.898 373.734L307.181 408.437L244.111 375.229C243.917 375.126 243.77 374.949 243.703 374.736C243.637 374.522 243.655 374.29 243.755 374.091C243.855 373.892 244.028 373.741 244.236 373.673C244.444 373.604 244.67 373.623 244.865 373.726L244.898 373.734Z" fill="#0D4E32"/>
<path d="M402.113 395.238L322.692 404.345L401.915 393.562C402.133 393.533 402.354 393.594 402.529 393.731C402.703 393.869 402.817 394.072 402.845 394.296C402.874 394.52 402.814 394.747 402.68 394.926C402.546 395.105 402.347 395.222 402.129 395.251L402.113 395.238Z" fill="#0D4E32"/>
<path d="M400.495 405.072L325.248 413.516L400.297 403.383C400.405 403.368 400.515 403.376 400.62 403.405C400.726 403.434 400.824 403.484 400.911 403.552C400.997 403.621 401.069 403.706 401.124 403.803C401.178 403.899 401.213 404.006 401.227 404.117C401.242 404.228 401.234 404.341 401.206 404.449C401.177 404.557 401.129 404.658 401.062 404.747C400.996 404.835 400.913 404.909 400.818 404.965C400.724 405.021 400.619 405.057 400.511 405.072H400.495Z" fill="#0D4E32"/>
<path d="M115.288 408.487C116.52 403.311 117.755 398.134 118.993 392.958L70.4177 340.18L115.288 408.487Z" fill="white" stroke="#231F20" stroke-width="4" stroke-linecap="round" stroke-linejoin="round"/>
<path d="M26.2966 404.768C25.0863 399.608 23.8774 394.448 22.6699 389.289L71.4922 335.798L26.2966 404.768Z" fill="white" stroke="#231F20" stroke-width="4" stroke-linecap="round" stroke-linejoin="round"/>
<path d="M17.2896 385.278C17.7588 387.017 18.2295 388.757 18.7015 390.496C19.3053 392.748 19.9118 394.992 20.521 397.227L69.3145 335.975L17.2896 385.278Z" fill="white" stroke="#231F20" stroke-width="4" stroke-linecap="round" stroke-linejoin="round"/>
<path d="M119.211 403.927L121.928 388.174L70.113 339.044L119.211 403.927Z" fill="white" stroke="#231F20" stroke-width="4" stroke-linecap="round" stroke-linejoin="round"/>
<path d="M127.078 383.703C126.713 385.482 126.345 387.258 125.975 389.031C125.503 391.32 125.028 393.61 124.55 395.901L72.2948 339.044L127.078 383.703Z" fill="white" stroke="#231F20" stroke-width="4" stroke-linecap="round" stroke-linejoin="round"/>
<path d="M17.1949 354.629C35.4285 339.361 53.662 324.095 71.8956 308.83C70.3093 317.936 68.7231 327.044 67.1369 336.152L12.9713 396.889L17.1949 354.629Z" fill="white" stroke="#231F20" stroke-width="4" stroke-linecap="round" stroke-linejoin="round"/>
<path d="M80.1616 307.922L132.528 357.567L133.467 390.627L70.2449 337.617L80.1616 307.922Z" fill="white" stroke="#231F20" stroke-width="4" stroke-linecap="round" stroke-linejoin="round"/>
<path d="M72.3072 307.171C69.6589 317.777 67.0092 328.383 64.3582 338.99L73.571 340.649L82.3022 308.138L72.3072 307.171Z" fill="white" stroke="#231F20" stroke-width="4" stroke-linecap="round" stroke-linejoin="round"/>
<path d="M331.596 386.878L328.249 373.392L251.554 357.5L331.596 386.878Z" fill="white" stroke="#231F20" stroke-width="4" stroke-linecap="round" stroke-linejoin="round"/>
<path d="M234.791 427.686L223.648 417.827L250.665 353.683C245.376 378.355 240.085 403.022 234.791 427.686Z" fill="white" stroke="#231F20" stroke-width="4" stroke-linecap="round" stroke-linejoin="round"/>
<path d="M215.999 417.455L219.96 420.69L225.064 424.857C232.85 401.533 240.637 378.21 248.425 354.886L215.999 417.455Z" fill="white" stroke="#231F20" stroke-width="4" stroke-linecap="round" stroke-linejoin="round"/>
<path d="M333.646 381.524C332.137 377.13 330.637 372.739 329.147 368.351L250.727 356.816L333.646 381.524Z" fill="white" stroke="#231F20" stroke-width="4" stroke-linecap="round" stroke-linejoin="round"/>
<path d="M332.547 362.465L333.852 367.012C334.426 368.966 334.995 370.921 335.56 372.877L253.052 355.739L332.547 362.465Z" fill="white" stroke="#231F20" stroke-width="4" stroke-linecap="round" stroke-linejoin="round"/>
<path d="M201.513 394.448L238.422 333.226C241.007 340.852 243.594 348.475 246.182 356.098C236.409 380.167 226.635 404.234 216.86 428.298C211.744 417.013 206.629 405.73 201.513 394.448Z" fill="black" stroke="black" stroke-width="4" stroke-linecap="round" stroke-linejoin="round"/>
<path d="M246.828 328.489L326.088 340.155L342.624 364.551L250.187 355.684L246.828 328.489Z" fill="black" stroke="black" stroke-width="4" stroke-linecap="round" stroke-linejoin="round"/>
<path d="M238.085 331.761L244.544 359.581L255.164 356.318C253.18 346.747 251.197 337.177 249.216 327.606L238.085 331.761Z" fill="black" stroke="black" stroke-width="4" stroke-linecap="round" stroke-linejoin="round"/>
<path d="M385.243 346.015L317.695 344.563L268.699 303.156L330.97 305.946L385.243 346.015Z" fill="white" stroke="#231F20" stroke-width="4" stroke-linecap="round" stroke-linejoin="round"/>
<path d="M325.064 361.577C329.2 356.757 317.319 339.101 298.529 322.141C279.738 305.181 261.153 295.339 257.018 300.159C252.882 304.979 264.763 322.635 283.553 339.596C302.344 356.556 320.929 366.397 325.064 361.577Z" fill="white" stroke="#231F20" stroke-width="3.9962" stroke-linecap="round" stroke-linejoin="round"/>
<path d="M385.243 346.015L317.695 344.563L314.241 363.196L381.34 364.994C382.647 358.672 383.948 352.346 385.243 346.015Z" fill="white" stroke="#231F20" stroke-width="4" stroke-linecap="round" stroke-linejoin="round"/>
<path d="M315.579 349.14L271.507 314.425C271.421 314.357 271.349 314.273 271.295 314.176C271.24 314.08 271.205 313.974 271.191 313.864C271.163 313.641 271.221 313.416 271.355 313.238C271.488 313.06 271.684 312.944 271.901 312.914C272.118 312.885 272.338 312.945 272.511 313.082L315.579 349.14Z" fill="#0D4E32"/>
<path d="M269.605 318.6L309.536 352.083L268.584 319.926C268.411 319.79 268.297 319.589 268.268 319.367C268.239 319.145 268.297 318.92 268.43 318.742C268.562 318.564 268.759 318.447 268.975 318.417C269.192 318.388 269.411 318.448 269.584 318.584L269.605 318.6Z" fill="#0D4E32"/>
<path d="M381.604 353.088L321.638 350.753L381.641 351.403C381.859 351.403 382.069 351.492 382.223 351.65C382.378 351.809 382.464 352.023 382.464 352.247C382.464 352.471 382.378 352.686 382.223 352.844C382.069 353.003 381.859 353.092 381.641 353.092L381.604 353.088Z" fill="#0D4E32"/>
<path d="M378.759 360.346L321.976 357.977L378.805 358.657C379.023 358.659 379.231 358.751 379.384 358.911C379.536 359.072 379.62 359.288 379.618 359.512C379.615 359.736 379.526 359.949 379.369 360.106C379.213 360.262 379.003 360.348 378.784 360.346H378.759Z" fill="#0D4E32"/>
<path d="M138.077 225.365C142.89 223.93 151.851 221.261 163.633 217.812C173.875 214.814 180.511 212.922 189.649 212.851C196.269 212.8 199.772 212.775 203.003 214.962C211.311 220.624 210.232 235.87 209.911 244.006C209.298 259.523 210.183 281.441 216.588 310.359H198.628C195.705 299.229 192.914 287.491 190.341 275.175C187.566 261.896 185.294 249.12 183.433 236.922C178.312 239.455 172.368 242.351 165.708 245.421C153.453 251.07 150.291 252.067 147.747 252.742C142.651 254.093 136.274 255.698 128.177 254.63C123.184 253.962 117.293 253.173 112.291 248.718C103.766 241.118 104.334 228.697 104.47 226.522L138.077 225.365Z" fill="#231F20"/>
<path d="M157.878 224.424C183.969 219.868 201.876 216.148 212.443 212.851C218.323 210.976 224.541 210.492 230.63 211.436C234.133 212.006 238.225 212.732 241.452 215.92C245.231 219.661 245.651 224.631 246.359 231.268C247.244 239.552 249.026 247.735 249.508 256.065C250.035 265.105 251.817 278.092 257.568 294.555L240.069 295.737C237.414 289.087 234.845 281.922 232.474 274.246C228.016 259.833 224.705 245.073 222.574 230.111C206.14 235.887 191.148 240.819 177.909 244.986C164.88 249.09 157.293 251.269 147.055 250.656C138.233 250.077 129.618 247.666 121.73 243.572L157.878 224.424Z" fill="#231F20"/>
<path d="M181.54 97.2631C165.14 103.736 150.026 113.218 136.937 125.244C129.111 132.459 122.084 140.537 115.984 149.332L122.673 154.761C119.944 159.085 117.483 163.581 115.305 168.222C111.74 175.773 108.963 183.688 107.018 191.837C104.404 203.199 103.549 214.913 104.486 226.548L138.098 225.365C137.892 223.82 137.596 221.342 137.406 218.285C137.001 207.322 138.086 196.354 140.63 185.698C144.264 171.008 159.829 141.66 190.324 113.075" fill="white"/>
<path d="M181.54 97.2631C165.14 103.736 150.026 113.218 136.937 125.244C129.111 132.459 122.084 140.537 115.984 149.332L122.673 154.761C119.944 159.085 117.483 163.581 115.305 168.222C111.74 175.773 108.963 183.688 107.018 191.837C104.404 203.199 103.549 214.913 104.486 226.548L138.098 225.365C137.892 223.82 137.596 221.342 137.406 218.285C137.001 207.322 138.086 196.354 140.63 185.698C144.264 171.008 159.829 141.66 190.324 113.075" stroke="#231F20" stroke-width="4" stroke-miterlimit="10"/>
<path d="M123.192 154.111L134.385 163.995L133.092 164.299C134.88 160.31 136.944 156.456 139.267 152.768C146.232 141.735 155.407 132.348 166.181 125.231C162.698 127.707 159.386 130.427 156.268 133.372C150.04 139.241 144.667 146 140.317 153.44C138.147 157.144 136.241 161.003 134.611 164.988L134.175 166.047L133.319 165.292L122.126 155.403L123.192 154.111Z" fill="#231F20"/>
<path d="M299.886 153.579L298.318 142.956L249.796 177.844L256.531 178.376L299.886 153.579Z" fill="white" stroke="#0D4E32" stroke-width="4" stroke-miterlimit="10"/>
<path d="M299.639 149.636C286.1 158.042 272.203 165.731 258.688 174.124C271.91 165.258 285.565 157.058 298.758 148.204L299.639 149.636Z" fill="#0D4E32"/>
<path d="M180.634 166.149L190.926 156.239L251.266 176.793L245.886 179.444L180.634 166.149Z" fill="white" stroke="#0D4E32" stroke-width="4" stroke-miterlimit="10"/>
<path d="M186.41 159.959L228.213 171.823L186.002 161.597L186.41 159.959Z" fill="#0D4E32"/>
<path d="M165.074 140.811C162.184 149.741 161.805 159.326 163.979 168.467L175.847 168.644L175.892 165.266L180.634 166.144L183.701 163.189C181.781 148.008 182.415 132.601 185.574 117.64C182.557 120.616 179.465 123.834 176.345 127.3C172.183 131.919 168.441 136.454 165.074 140.811Z" fill="white" stroke="#231F20" stroke-width="4" stroke-miterlimit="10"/>
<path d="M175.546 203.701C175.593 190.77 175.708 177.962 175.892 165.279L248.586 178.739L248.932 253.473L175.702 249.711C175.552 234.55 175.499 219.214 175.546 203.701Z" fill="white" stroke="#0D4E32" stroke-width="4" stroke-miterlimit="10"/>
<path d="M132.166 163.164C129.068 167.172 127.004 171.916 126.164 176.958C125.793 179.246 124.015 190.262 130.997 198.744C138.275 207.581 149.962 207.463 154.136 207.421C156.34 207.396 158.537 207.158 160.698 206.712C161.713 204.358 163.115 202.202 164.843 200.336C167.761 197.228 171.468 195.02 175.546 193.96V203.701C178.244 203.994 180.965 203.994 183.664 203.701C193.408 202.637 198.418 198.157 203.349 200.868C203.876 201.159 205.597 202.135 206.284 204.056C207.552 207.598 204.325 211.474 203.868 212.027C202.64 213.481 201.086 214.607 199.34 215.308C204.568 217.2 207.614 221.325 207.083 224.652C206.671 227.312 203.995 229.17 203.189 229.718C201.448 230.919 199.414 231.594 197.318 231.669C197.796 231.935 199.574 232.991 200.081 235.047C200.904 238.349 197.611 241.017 197.318 241.249C196.438 241.942 194.49 243.132 190.065 242.664C183.89 242.014 179.362 238.826 176.942 236.998C172.656 233.751 165.897 227.78 159.31 217.694C152.355 219.33 145.11 219.147 138.242 217.162C134.813 216.152 121.134 212.124 114.07 198.035C105.659 181.264 113.868 164.679 114.761 162.99C116.519 159.596 118.78 156.503 121.463 153.82L132.166 163.164Z" fill="white" stroke="#231F20" stroke-width="4" stroke-miterlimit="10"/>
<path d="M180.037 214.328C183.329 215.276 186.737 215.731 190.156 215.68C193.535 215.627 196.889 215.072 200.114 214.033L200.525 215.663C193.709 217.271 186.584 216.807 180.021 214.328H180.037Z" fill="#231F20"/>
<path d="M175.031 221.244C178.048 224.188 181.56 226.547 185.397 228.207C189.189 229.842 193.244 230.738 197.356 230.85L197.253 232.539C193.005 232.139 188.867 230.93 185.051 228.975C181.283 227.041 177.888 224.422 175.031 221.244Z" fill="#231F20"/>
<path d="M256.704 177.844C257.222 202.814 257.74 227.786 258.256 252.759L304.015 239.299L303.669 151.477L256.704 177.844Z" fill="white" stroke="#0D4E32" stroke-width="4" stroke-miterlimit="10"/>
<path d="M315.15 194.767C314.405 192.49 313.329 190.34 311.96 188.391C308.93 184.144 305.415 182.594 303.727 182.016V191.756C301.655 192.05 299.554 192.05 297.482 191.756C289.08 190.566 285.376 186.926 282.333 188.923C279.925 190.502 279.925 194.336 279.925 194.94C279.925 198.406 282.066 201.67 285.421 203.363C281.399 205.255 279.057 209.38 279.464 212.707C279.794 215.367 281.839 217.225 282.461 217.774C283.705 218.94 285.306 219.628 286.989 219.72C285.885 220.526 285.124 221.734 284.861 223.098C284.231 226.4 286.763 229.068 286.989 229.3C287.664 229.993 289.163 231.179 292.567 230.715C296.33 230.2 299.273 228.266 302.669 225.049C310.626 217.495 315.142 213.226 316.221 205.745C316.722 202.05 316.355 198.286 315.15 194.767Z" fill="white" stroke="#231F20" stroke-width="4" stroke-miterlimit="10"/>
<path d="M285.511 202.523C288.848 203.047 292.244 203.02 295.572 202.443C298.943 201.858 302.201 200.728 305.226 199.095C299.298 202.937 292.324 204.728 285.33 204.204L285.511 202.523Z" fill="#231F20"/>
<path d="M286.792 218.918C290.334 218.213 293.779 217.062 297.046 215.49C298.688 214.693 300.281 213.795 301.817 212.8C303.364 211.808 304.851 210.72 306.271 209.545C304.94 210.835 303.535 212.044 302.064 213.163C297.592 216.554 292.544 219.062 287.179 220.56L286.792 218.918Z" fill="#231F20"/>
<path d="M245.997 180.145C247.097 179.121 248.39 178.338 249.796 177.844C252.035 177.056 254.465 177.056 256.704 177.844C257.979 178.309 259.152 179.027 260.158 179.955V253.291C258.456 254.618 256.418 255.417 254.287 255.592C251.488 255.773 248.721 254.891 246.515 253.114L245.997 180.145Z" fill="white" stroke="#0D4E32" stroke-width="4" stroke-miterlimit="10"/>
<path d="M240.069 295.737C240.287 297.168 240.612 299.343 240.991 301.994C242.819 314.796 242.679 316.228 243.407 318.643C245.741 326.369 252.875 330.587 257.222 333.163C259.894 334.746 276.69 344.685 287.611 336.351C293.452 331.896 296.922 322.747 294.173 316.869C292.505 313.306 288.339 311.659 280.016 308.37C270.416 304.57 265.921 304.76 261.446 300.132C259.399 297.973 257.841 295.378 256.881 292.532L240.069 295.737Z" fill="white" stroke="#231F20" stroke-width="4" stroke-miterlimit="10"/>
<path d="M197.623 304.144C197.747 305.588 197.928 307.779 198.129 310.452C199.109 323.35 198.875 324.769 199.443 327.226C201.258 335.101 208.087 339.804 212.266 342.676C214.826 344.44 230.926 355.524 242.374 347.97C248.495 343.93 252.563 335.042 250.196 328.97C248.767 325.297 244.721 323.367 236.632 319.504C227.303 315.054 222.808 314.927 218.65 309.996C216.751 307.701 215.366 305.007 214.592 302.104L197.623 304.144Z" fill="white" stroke="#231F20" stroke-width="4" stroke-miterlimit="10"/>
<path d="M166.049 168.488C165.836 171.297 166.562 174.096 168.107 176.426C169.912 179.032 172.621 180.831 175.678 181.454L175.83 168.636L166.049 168.488Z" fill="white" stroke="#231F20" stroke-width="4" stroke-miterlimit="10"/>
<path d="M177.835 60.7324C175.472 58.7412 172.758 57.2334 169.841 56.2907C166.432 55.1971 163.196 54.1796 160.632 55.8178C157.244 58.0133 157.013 63.6416 157.87 67.1544C158.989 71.744 162.336 74.2731 163.855 75.4173C169.207 79.4707 175.221 79.268 177.337 79.0907" fill="white"/>
<path d="M177.637 60.9942C175.795 59.6534 173.799 58.5515 171.693 57.7135C170.647 57.2913 169.581 56.9831 168.47 56.6664C167.404 56.3365 166.317 56.0812 165.218 55.9022C164.201 55.7124 163.156 55.7571 162.159 56.0331C161.691 56.1737 161.25 56.3981 160.858 56.696L160.562 56.9155L160.298 57.1773C160.115 57.351 159.949 57.5418 159.8 57.7473C159.184 58.6121 158.754 59.6006 158.536 60.648C158.287 61.7336 158.17 62.8471 158.191 63.9624C158.164 66.223 158.733 68.449 159.837 70.4055C161.02 72.3646 162.587 74.0498 164.44 75.354C166.266 76.7423 168.336 77.7572 170.536 78.3433C171.642 78.6376 172.77 78.8395 173.908 78.9471C175.04 79.0189 176.209 79.192 177.32 78.7529L177.374 79.4284C176.188 79.1793 175.048 79.3567 173.883 79.2511C172.723 79.1834 171.571 79.0182 170.437 78.7571C168.147 78.2529 165.966 77.3181 164.007 76C161.982 74.7248 160.241 73.0256 158.899 71.0135C157.578 68.9213 156.838 66.4998 156.758 64.0089C156.696 62.762 156.789 61.5121 157.034 60.2891C157.275 59.0129 157.783 57.8057 158.524 56.7509C159.306 55.6439 160.417 54.8263 161.69 54.4202C162.921 54.0688 164.214 54.0154 165.469 54.264C166.64 54.4821 167.794 54.7869 168.923 55.176C170.043 55.5333 171.143 55.9562 172.216 56.4427C174.363 57.4488 176.335 58.8064 178.057 60.4622L177.637 60.9942Z" fill="#231F20"/>
<path d="M276.562 57.5911C276.657 52.8664 276.15 44.6838 271.725 36.3364C263.08 20.0556 244.659 12.8102 229.251 13.3127C205.984 14.0769 192.358 32.4098 189.188 36.6911C173.356 58.0851 177.526 82.3333 178.139 85.5718C178.909 89.6631 184.668 117.711 209.911 128.786C211.866 129.631 235.228 139.452 255.032 126.426C259.732 123.304 263.781 119.257 266.946 114.519" fill="white"/>
<path d="M276.562 57.5911C276.638 51.4213 275.441 45.3046 273.051 39.6424C270.604 34.0333 266.926 29.0809 262.302 25.1729C257.69 21.2798 252.396 18.3249 246.705 16.4667C241.04 14.5724 235.094 13.7149 229.139 13.9333C223.206 14.1975 217.378 15.631 211.973 18.1555C206.58 20.7418 201.639 24.2209 197.347 28.4536C195.185 30.5442 193.17 32.789 191.317 35.1711C189.448 37.5347 187.746 40.0321 186.224 42.6444C183.205 47.8941 180.996 53.5911 179.675 59.5333C178.322 65.4798 177.778 71.5895 178.057 77.6889C178.171 80.7272 178.538 83.75 179.152 86.7244C179.795 89.6994 180.636 92.6253 181.671 95.4813C183.698 101.222 186.509 106.638 190.02 111.568C193.53 116.487 197.848 120.742 202.781 124.142C205.257 125.818 207.875 127.263 210.603 128.461C213.368 129.589 216.216 130.493 219.12 131.163C224.933 132.572 230.931 133 236.878 132.43C239.849 132.14 242.784 131.537 245.634 130.631C248.485 129.711 251.227 128.467 253.81 126.924C256.403 125.379 258.817 123.538 261.006 121.435C263.21 119.342 265.197 117.022 266.938 114.511C265.26 117.078 263.329 119.461 261.174 121.621C259.009 123.782 256.612 125.685 254.028 127.292C251.442 128.91 248.689 130.228 245.82 131.222C242.942 132.203 239.973 132.878 236.961 133.236C233.955 133.59 230.924 133.666 227.904 133.464C226.394 133.372 224.883 133.215 223.376 132.996C221.87 132.776 220.383 132.51 218.902 132.181C215.931 131.533 213.014 130.648 210.179 129.534C207.363 128.34 204.657 126.89 202.094 125.202C199.532 123.507 197.13 121.572 194.919 119.421C192.713 117.266 190.692 114.921 188.875 112.412C185.264 107.383 182.365 101.855 180.264 95.9922C179.194 93.072 178.322 90.0799 177.654 87.0369C177.007 83.9804 176.616 80.8728 176.485 77.748C176.176 71.5099 176.711 65.2579 178.074 59.1702C179.455 53.0743 181.75 47.2348 184.874 41.8591C186.441 39.1804 188.194 36.6208 190.119 34.2C192.029 31.7712 194.102 29.4814 196.322 27.3473C200.752 23.0399 205.84 19.5068 211.385 16.8889C216.955 14.2967 222.972 12.8686 229.086 12.6878C235.179 12.5342 241.25 13.4833 247.022 15.4913C252.803 17.4483 258.163 20.5257 262.813 24.5564C267.429 28.623 271.066 33.73 273.438 39.4778C274.017 40.9086 274.521 42.3702 274.948 43.8562C275.362 45.3447 275.7 46.854 275.961 48.3782C276.46 51.421 276.662 54.5073 276.562 57.5911Z" fill="#231F20"/>
<path d="M257.568 86.9778C259.627 86.4753 267.485 84.8202 274.833 89.4562C276.863 90.7229 282.082 94.0247 283.297 100.434C283.461 101.321 284.474 106.666 281.395 110.707C277.052 116.398 267.399 115.773 261.364 112.476C255.098 109.064 252.719 102.82 252.04 100.789" fill="white"/>
<path d="M257.568 86.9778C260.776 86.0303 264.14 85.7787 267.448 86.2389C269.118 86.4811 270.755 86.9203 272.326 87.5478L273.491 88.0671C273.878 88.2402 274.244 88.464 274.619 88.6667C274.994 88.8693 275.36 89.0889 275.714 89.3084C276.068 89.528 276.43 89.7602 276.78 90.0009C277.489 90.48 278.168 91.0031 278.814 91.5673C279.472 92.1319 280.087 92.7474 280.654 93.4082C281.804 94.7442 282.723 96.2721 283.371 97.926C283.997 99.5927 284.334 101.359 284.367 103.145C284.432 104.949 284.152 106.749 283.544 108.444C282.912 110.172 281.847 111.698 280.456 112.868C279.076 114.011 277.468 114.829 275.747 115.267C274.07 115.689 272.342 115.855 270.618 115.761C268.914 115.677 267.224 115.394 265.583 114.916C263.947 114.441 262.373 113.765 260.894 112.902C259.426 112.026 258.085 110.943 256.91 109.685C254.61 107.177 252.939 104.135 252.04 100.818C253.258 103.938 255.123 106.749 257.507 109.056C259.889 111.28 262.79 112.837 265.929 113.578C267.482 113.964 269.07 114.182 270.667 114.228C272.243 114.267 273.816 114.083 275.344 113.683C276.838 113.302 278.233 112.59 279.431 111.598C280.012 111.108 280.526 110.54 280.959 109.909C281.404 109.282 281.767 108.598 282.037 107.874C282.578 106.39 282.833 104.812 282.786 103.229C282.764 101.624 282.486 100.034 281.963 98.5213C280.884 95.5109 278.67 92.9987 276.085 91.086C275.755 90.8411 275.426 90.6089 275.084 90.3809C274.743 90.1529 274.397 89.9249 274.051 89.7264C273.705 89.528 273.372 89.3042 273.009 89.11L271.931 88.5611C270.453 87.8891 268.909 87.3837 267.325 87.0538C264.106 86.4 260.796 86.3742 257.568 86.9778Z" fill="#231F20"/>
<path d="M231.148 69.1051C233.438 69.1051 235.294 66.9236 235.294 64.2327C235.294 61.5417 233.438 59.3602 231.148 59.3602C228.859 59.3602 227.003 61.5417 227.003 64.2327C227.003 66.9236 228.859 69.1051 231.148 69.1051Z" fill="#231F20"/>
<path d="M275.611 76.1858C277.853 76.1858 279.67 73.8871 279.67 71.0515C279.67 68.216 277.853 65.9173 275.611 65.9173C273.369 65.9173 271.552 68.216 271.552 71.0515C271.552 73.8871 273.369 76.1858 275.611 76.1858Z" fill="#231F20"/>
<path d="M236.154 116.508L256.531 116.626L236.154 116.508Z" fill="white"/>
<path d="M236.154 116.508C237.84 116.188 239.543 115.975 241.254 115.87C242.95 115.758 244.648 115.709 246.347 115.723C248.045 115.737 249.743 115.807 251.439 115.934C253.148 116.058 254.849 116.29 256.531 116.626C254.846 116.944 253.144 117.154 251.435 117.255C249.736 117.371 248.037 117.423 246.338 117.412C244.64 117.4 242.942 117.33 241.246 117.2C239.536 117.078 237.836 116.846 236.154 116.508Z" fill="#231F20"/>
<path d="M349.524 399.042L358.728 396.142L367.023 339.834L349.524 399.042Z" fill="white" stroke="#231F20" stroke-width="4" stroke-linecap="round" stroke-linejoin="round"/>
<path d="M317.946 330.106L324.368 321.662L369.629 339.044L317.946 330.106Z" fill="white" stroke="#231F20" stroke-width="4" stroke-linecap="round" stroke-linejoin="round"/>
<path d="M324.355 316.088L322.26 319.078L319.559 322.937L368.719 337.47L324.355 316.088Z" fill="white" stroke="#231F20" stroke-width="4" stroke-linecap="round" stroke-linejoin="round"/>
<path d="M353.294 400.347L362.256 396.614L367.484 339.192C362.753 359.586 358.023 379.97 353.294 400.347Z" fill="white" stroke="#231F20" stroke-width="4" stroke-linecap="round" stroke-linejoin="round"/>
<path d="M366.426 398.882L363.331 400.001L359.338 401.449C362.326 381.255 365.312 361.061 368.295 340.864C367.669 360.199 367.047 379.538 366.426 398.882Z" fill="white" stroke="#231F20" stroke-width="4" stroke-linecap="round" stroke-linejoin="round"/>
<path d="M339.743 304.752L383.345 329.439L367.814 335.882L316.896 317.089L339.743 304.752Z" fill="black" stroke="black" stroke-width="4" stroke-linecap="round" stroke-linejoin="round"/>
<path d="M386.91 335.388C385.148 354.715 383.38 374.054 381.604 393.406L365.344 406.279L368.225 338.778L386.91 335.388Z" fill="black" stroke="black" stroke-width="4" stroke-linecap="round" stroke-linejoin="round"/>
<path d="M384.337 329.143L365.339 334.822L367.97 342.422L387.61 337.094L384.337 329.143Z" fill="black" stroke="black" stroke-width="4" stroke-linecap="round" stroke-linejoin="round"/>
</g>
<defs>
<clipPath id="clip0_8_494">
<rect width="449" height="456" fill="white"/>
</clipPath>
</defs>
</svg>
