<svg width="585" height="484" viewBox="0 0 585 484" fill="none" xmlns="http://www.w3.org/2000/svg">
<path d="M12.124 430.603L94.5996 447.588L243.708 411.008C245.781 416.27 246.678 421.915 246.336 427.553C245.994 433.192 244.423 438.69 241.729 443.669L92.6205 481.559L6.86218 461.959" fill="white"/>
<path d="M12.124 430.603L94.5996 447.588L243.708 411.008C245.781 416.27 246.678 421.915 246.336 427.553C245.994 433.192 244.423 438.69 241.729 443.669L92.6205 481.559L6.86218 461.959" stroke="#231F20" stroke-width="4" stroke-linecap="round" stroke-linejoin="round"/>
<path d="M21.7291 430.965C14.6881 429.717 7.61371 432.148 3.54607 437.353C-1.749 444.135 -1.15432 454.625 5.6013 461.743L91.8115 479.741C92.0266 468.849 93.6022 458.026 96.5024 447.517L21.7291 430.965Z" fill="white"/>
<path d="M94.5993 447.588C90.1243 452.028 87.4508 457.939 87.086 464.201C86.7212 470.463 88.6905 476.639 92.6202 481.559" fill="white"/>
<path d="M94.5993 447.588C90.1243 452.028 87.4508 457.939 87.086 464.201C86.7212 470.463 88.6905 476.639 92.6202 481.559" stroke="#231F20" stroke-width="4" stroke-linecap="round" stroke-linejoin="round"/>
<path d="M7.06677 434.959L84.4709 451.446C84.5951 451.47 84.7133 451.518 84.8185 451.587C84.9237 451.657 85.0138 451.747 85.0835 451.851C85.1533 451.956 85.2012 452.073 85.2246 452.196C85.2481 452.319 85.2464 452.446 85.2198 452.568C85.1933 452.691 85.1423 452.807 85.0698 452.91C84.9974 453.012 84.905 453.1 84.7981 453.167C84.6911 453.234 84.5718 453.279 84.447 453.3C84.3222 453.32 84.1945 453.316 84.0713 453.287L7.06677 434.959Z" fill="#231F20"/>
<path d="M3.32727 444.757C10.1654 446.233 16.9844 447.754 23.7844 449.321C30.6019 450.857 37.4003 452.472 44.2035 454.079C51.0067 455.685 57.8099 457.286 64.5845 458.987C71.3592 460.687 78.1339 462.425 84.8657 464.295C85.0336 464.361 85.1717 464.485 85.254 464.644C85.3364 464.803 85.3573 464.986 85.313 465.159C85.2687 465.333 85.1621 465.484 85.0132 465.585C84.8643 465.686 84.6833 465.73 84.5041 465.708C77.6771 464.206 70.8882 462.562 64.0993 460.894C57.3104 459.227 50.5547 457.456 43.7944 455.675C37.034 453.895 30.2736 452.147 23.5275 450.31C16.7814 448.473 10.0543 446.66 3.32727 444.757Z" fill="#231F20"/>
<path d="M5.7439 453.904L82.0633 471.059C82.3027 471.121 82.5085 471.272 82.6373 471.481C82.766 471.69 82.8076 471.94 82.7532 472.179C82.6988 472.418 82.5526 472.626 82.3457 472.76C82.1388 472.894 81.8874 472.943 81.6447 472.896H81.6209L5.7439 453.904Z" fill="#231F20"/>
<path d="M12.124 430.603L158.378 397.725L243.708 411.008L94.5996 447.588L12.124 430.603Z" fill="white" stroke="#231F20" stroke-width="4" stroke-linecap="round" stroke-linejoin="round"/>
<path d="M31.9482 398.935L105.656 414.116L238.913 381.422C240.767 386.127 241.569 391.174 241.264 396.216C240.96 401.257 239.555 406.173 237.148 410.626L103.886 444.475L27.2335 426.957" fill="white"/>
<path d="M31.9482 398.935L105.656 414.116L238.913 381.422C240.767 386.127 241.569 391.174 241.264 396.216C240.96 401.257 239.555 406.173 237.148 410.626L103.886 444.475L27.2335 426.957" stroke="#231F20" stroke-width="4" stroke-linecap="round" stroke-linejoin="round"/>
<path d="M40.5308 399.26C34.2414 398.139 27.9139 400.315 24.284 404.969C19.5265 411.026 20.0784 420.405 26.1156 426.764L103.187 442.85C103.38 433.115 104.789 423.442 107.383 414.05L40.5308 399.26Z" fill="white"/>
<path d="M105.656 414.116C101.657 418.084 99.2672 423.366 98.941 428.962C98.6148 434.558 100.374 440.078 103.886 444.474" fill="white"/>
<path d="M105.656 414.116C101.657 418.084 99.2672 423.366 98.941 428.962C98.6148 434.558 100.374 440.078 103.886 444.474" stroke="#231F20" stroke-width="4" stroke-linecap="round" stroke-linejoin="round"/>
<path d="M27.4287 402.826L96.6262 417.479C96.8648 417.539 97.0709 417.688 97.201 417.895C97.3312 418.101 97.3754 418.35 97.3242 418.588C97.2731 418.827 97.1307 419.036 96.927 419.173C96.7232 419.31 96.4738 419.363 96.2313 419.321L27.4287 402.826Z" fill="#231F20"/>
<path d="M24.0891 411.587C30.2041 412.878 36.3063 414.218 42.3959 415.61C48.495 416.966 54.5703 418.403 60.6503 419.849C66.7304 421.295 72.8152 422.675 78.8714 424.22C84.9277 425.765 90.9792 427.301 96.9927 428.992C97.1606 429.057 97.2987 429.181 97.381 429.34C97.4634 429.499 97.4843 429.682 97.44 429.856C97.3957 430.029 97.2891 430.18 97.1402 430.281C96.9913 430.382 96.8103 430.426 96.6311 430.405C90.5225 429.076 84.452 427.611 78.3862 426.123C72.3204 424.634 66.2832 423.042 60.2459 421.446C54.2087 419.849 48.1619 418.276 42.139 416.618C36.116 414.959 30.093 413.306 24.0891 411.587Z" fill="#231F20"/>
<path d="M26.2489 419.759L94.4759 434.993C94.7152 435.054 94.9211 435.205 95.0498 435.414C95.1786 435.623 95.2201 435.873 95.1657 436.112C95.1113 436.351 94.9652 436.559 94.7583 436.693C94.5514 436.827 94.2999 436.876 94.0572 436.83H94.0334L26.2489 419.759Z" fill="#231F20"/>
<path d="M31.9482 398.935L162.655 369.557L238.913 381.427L105.656 414.116L31.9482 398.935Z" fill="white" stroke="#231F20" stroke-width="4" stroke-linecap="round" stroke-linejoin="round"/>
<path d="M41.8484 368.662L109.19 382.529L230.939 352.661C232.631 356.958 233.363 361.567 233.084 366.171C232.805 370.775 231.521 375.265 229.321 379.331L107.573 410.268L37.5381 394.253" fill="#0D4E32"/>
<path d="M41.8484 368.662L109.19 382.529L230.939 352.661C232.631 356.958 233.363 361.567 233.084 366.171C232.805 370.775 231.521 375.265 229.321 379.331L107.573 410.268L37.5381 394.253" stroke="#0D4E32" stroke-width="4" stroke-linecap="round" stroke-linejoin="round"/>
<path d="M49.6794 368.958C43.9323 367.936 38.152 369.9 34.8361 374.173C30.5115 379.712 30.9968 388.275 36.5107 394.088L106.921 408.784C107.093 399.891 108.379 391.052 110.751 382.472L49.6794 368.958Z" fill="white" stroke="#231F20" stroke-width="4" stroke-linecap="round" stroke-linejoin="round"/>
<path d="M110.746 382.529C109.252 383.716 103.819 388.323 103.101 395.685C102.33 403.561 107.497 409.039 108.72 410.287" fill="#231F20"/>
<path d="M110.746 382.529C109.252 383.716 103.819 388.323 103.101 395.685C102.33 403.561 107.497 409.039 108.72 410.287" stroke="#231F20" stroke-width="4" stroke-linecap="round" stroke-linejoin="round"/>
<path d="M37.7191 372.218L100.751 386.443L37.7191 372.218Z" fill="white"/>
<path d="M37.7191 372.218L100.96 385.524C101.199 385.584 101.405 385.733 101.535 385.94C101.665 386.146 101.709 386.395 101.658 386.633C101.607 386.872 101.465 387.081 101.261 387.218C101.057 387.355 100.808 387.408 100.565 387.366H100.537L37.7191 372.218Z" fill="#231F20"/>
<path d="M34.6647 380.221L101.108 396.754L34.6647 380.221Z" fill="white"/>
<path d="M34.6647 380.221C45.8447 382.548 56.982 385.068 68.0955 387.668C79.2089 390.268 90.3081 392.93 101.288 396.043C101.456 396.109 101.594 396.233 101.677 396.392C101.759 396.551 101.78 396.734 101.736 396.907C101.691 397.08 101.585 397.232 101.436 397.333C101.287 397.434 101.106 397.478 100.927 397.456C89.7658 395.059 78.7142 392.214 67.6768 389.298C56.6395 386.382 45.6307 383.401 34.6647 380.221Z" fill="#231F20"/>
<path d="M36.6392 387.687L98.7766 402.445L36.6392 387.687Z" fill="white"/>
<path d="M36.6392 387.687L98.9954 401.526C99.1175 401.553 99.2331 401.603 99.3356 401.674C99.438 401.745 99.5253 401.836 99.5925 401.94C99.6596 402.045 99.7053 402.161 99.7269 402.283C99.7486 402.406 99.7457 402.531 99.7185 402.651C99.6914 402.772 99.6404 402.887 99.5685 402.988C99.4967 403.09 99.4054 403.176 99.2998 403.243C99.1942 403.309 99.0764 403.354 98.9532 403.376C98.8299 403.397 98.7036 403.394 98.5815 403.367H98.553L36.6392 387.687Z" fill="#231F20"/>
<path d="M41.8485 368.662L161.261 341.812L230.939 352.646L109.191 382.529L41.8485 368.662Z" fill="#231F20" stroke="#231F20" stroke-width="4" stroke-linecap="round" stroke-linejoin="round"/>
<path d="M27.5615 342.401L95.3508 353.866L215.953 319.679C217.802 323.913 218.701 328.494 218.589 333.105C218.478 337.717 217.357 342.25 215.306 346.391L94.7561 381.639L24.1837 368.143" fill="white"/>
<path d="M27.5615 342.401L95.3508 353.866L215.953 319.679C217.802 323.913 218.701 328.494 218.589 333.105C218.478 337.717 217.357 342.25 215.306 346.391L94.7561 381.639L24.1837 368.143" stroke="#231F20" stroke-width="4" stroke-linecap="round" stroke-linejoin="round"/>
<path d="M35.4069 342.421C29.6266 341.601 23.9224 343.791 20.7586 348.158C16.6387 353.848 17.4284 362.392 23.1374 368.002L94.0238 380.183C93.8731 371.289 94.8318 362.41 96.8783 353.749L35.4069 342.421Z" fill="white"/>
<path d="M95.3511 353.867C91.8277 357.62 89.8191 362.524 89.7069 367.647C89.5946 372.771 91.3865 377.756 94.7422 381.658" fill="white"/>
<path d="M95.3511 353.867C91.8277 357.62 89.8191 362.524 89.7069 367.647C89.5946 372.771 91.3865 377.756 94.7422 381.658" stroke="#231F20" stroke-width="4" stroke-linecap="round" stroke-linejoin="round"/>
<path d="M23.5654 346.104L87.2633 357.15C87.3868 357.17 87.5049 357.215 87.6109 357.281C87.7169 357.348 87.8086 357.434 87.8808 357.535C87.953 357.637 88.0043 357.751 88.0317 357.872C88.0591 357.993 88.0621 358.118 88.0404 358.241C88.0188 358.363 87.9731 358.48 87.9057 358.584C87.8384 358.689 87.7509 358.779 87.6482 358.85C87.5455 358.921 87.4296 358.972 87.3072 358.998C87.1848 359.025 87.0583 359.027 86.935 359.005H86.9065L23.5654 346.104Z" fill="#231F20"/>
<path d="M20.8062 354.206C32.0623 356.137 43.2805 358.261 54.4843 360.461C65.6882 362.661 76.873 364.931 87.9579 367.649C88.1185 367.715 88.2505 367.835 88.3311 367.987C88.4116 368.14 88.4356 368.315 88.3988 368.483C88.362 368.652 88.2668 368.802 88.1297 368.907C87.9926 369.013 87.8224 369.068 87.6487 369.062C76.4068 367.06 65.26 364.611 54.1275 362.091C42.995 359.571 31.8768 356.994 20.8062 354.206Z" fill="#231F20"/>
<path d="M23.0374 361.601L85.836 373.212C85.961 373.232 86.0806 373.277 86.1878 373.344C86.2949 373.411 86.3875 373.498 86.4601 373.601C86.5327 373.704 86.5838 373.82 86.6105 373.943C86.6371 374.065 86.6388 374.192 86.6153 374.315C86.5919 374.439 86.5438 374.556 86.4739 374.661C86.4041 374.765 86.3138 374.855 86.2084 374.925C86.103 374.994 85.9847 375.042 85.8603 375.066C85.7359 375.09 85.608 375.089 85.484 375.063H85.4554L23.0374 361.601Z" fill="#231F20"/>
<path d="M27.5618 342.401L145.933 311.313L215.953 319.679L95.3511 353.866L27.5618 342.401Z" fill="white" stroke="#231F20" stroke-width="4" stroke-linecap="round" stroke-linejoin="round"/>
<path d="M50.2313 303.084L116.127 322.622L240.017 303.197C241.332 307.622 241.663 312.277 240.986 316.84C240.309 321.404 238.641 325.768 236.096 329.631L112.112 350.117L43.723 328.228" fill="white"/>
<path d="M50.2313 303.084L116.127 322.622L240.017 303.197C241.332 307.622 241.663 312.277 240.986 316.84C240.309 321.404 238.641 325.768 236.096 329.631L112.112 350.117L43.723 328.228" stroke="#231F20" stroke-width="4" stroke-linecap="round" stroke-linejoin="round"/>
<path d="M58.0189 304.045C52.3813 302.542 46.4535 304.045 42.795 307.983C38.009 313.131 37.7473 321.709 42.7426 327.964L111.602 348.586C112.544 339.734 114.592 331.031 117.701 322.679L58.0189 304.045Z" fill="white"/>
<path d="M116.127 322.623C112.172 325.923 109.578 330.545 108.838 335.614C108.098 340.682 109.263 345.843 112.112 350.117" fill="white"/>
<path d="M116.127 322.623C112.172 325.923 109.578 330.545 108.838 335.614C108.098 340.682 109.263 345.843 112.112 350.117" stroke="#231F20" stroke-width="4" stroke-linecap="round" stroke-linejoin="round"/>
<path d="M45.8114 306.277L107.659 324.902C107.778 324.938 107.889 324.998 107.986 325.076C108.083 325.155 108.163 325.252 108.221 325.361C108.28 325.471 108.316 325.59 108.329 325.714C108.341 325.837 108.328 325.961 108.291 326.08C108.255 326.198 108.195 326.308 108.115 326.404C108.036 326.5 107.938 326.579 107.828 326.637C107.717 326.695 107.596 326.731 107.472 326.743C107.347 326.755 107.222 326.743 107.102 326.706H107.078L45.8114 306.277Z" fill="#231F20"/>
<path d="M42.0675 313.975C53.0097 317.272 63.8805 320.706 74.7276 324.239C85.5746 327.771 96.4026 331.365 107.078 335.397C107.268 335.46 107.424 335.594 107.513 335.771C107.603 335.948 107.617 336.152 107.554 336.339C107.491 336.527 107.355 336.682 107.177 336.77C106.999 336.858 106.792 336.873 106.603 336.811C95.6605 333.471 84.9229 329.698 74.1805 325.859C63.4381 322.02 52.7243 318.091 42.0675 313.975Z" fill="#231F20"/>
<path d="M43.3947 321.601L104.324 340.682C104.565 340.758 104.765 340.925 104.882 341.147C104.998 341.369 105.021 341.628 104.945 341.867C104.868 342.105 104.699 342.304 104.475 342.419C104.25 342.535 103.989 342.557 103.748 342.482H103.724L43.3947 321.601Z" fill="#231F20"/>
<path d="M50.231 303.084L171.547 286.476L240.026 303.197L116.127 322.623L50.231 303.084Z" fill="white" stroke="#231F20" stroke-width="4" stroke-linecap="round" stroke-linejoin="round"/>
<path d="M224.878 275.534L163.273 294.705L47.1292 274.625C45.9226 279.058 45.6378 283.687 46.292 288.233C46.9463 292.778 48.5259 297.145 50.9352 301.068L167.189 322.213L231.12 300.701" fill="#0D4E32"/>
<path d="M224.878 275.534L163.273 294.705L47.1292 274.625C45.9226 279.058 45.6378 283.687 46.292 288.233C46.9463 292.778 48.5259 297.145 50.9352 301.068L167.189 322.213L231.12 300.701" stroke="#231F20" stroke-width="4" stroke-linecap="round" stroke-linejoin="round"/>
<path d="M217.589 276.452C222.861 274.978 228.422 276.499 231.89 280.47C236.4 285.651 236.691 294.215 232.052 300.442L167.664 320.682C166.736 311.851 164.772 303.157 161.813 294.775L217.589 276.452Z" fill="white"/>
<path d="M169.092 322.072C167.032 321.04 159.511 317.013 158.25 310.141C156.899 302.783 163.664 297.357 165.267 296.137" fill="white"/>
<path d="M169.092 322.072C167.032 321.04 159.511 317.013 158.25 310.141C156.899 302.783 163.664 297.357 165.267 296.137" stroke="#231F20" stroke-width="4" stroke-linecap="round" stroke-linejoin="round"/>
<path d="M229.036 278.751L171.789 298.826C171.672 298.868 171.547 298.886 171.422 298.879C171.297 298.873 171.175 298.842 171.062 298.789C170.949 298.736 170.848 298.661 170.764 298.57C170.68 298.478 170.616 298.37 170.574 298.254C170.532 298.137 170.514 298.014 170.52 297.89C170.527 297.766 170.557 297.645 170.611 297.534C170.665 297.422 170.74 297.322 170.833 297.239C170.926 297.156 171.034 297.092 171.152 297.05H171.18L229.036 278.751Z" fill="#231F20"/>
<path d="M232.581 286.48C222.642 290.517 212.637 294.37 202.609 298.153C192.58 301.935 182.518 305.642 172.299 308.925C172.117 308.98 171.921 308.964 171.75 308.879C171.58 308.795 171.449 308.649 171.385 308.472C171.32 308.295 171.326 308.1 171.403 307.928C171.479 307.755 171.619 307.618 171.794 307.545C181.757 303.574 191.881 300.009 202.023 296.561C212.166 293.113 222.338 289.693 232.581 286.48Z" fill="#231F20"/>
<path d="M231.386 294.078L175.025 314.606C174.791 314.679 174.538 314.66 174.318 314.554C174.098 314.447 173.929 314.261 173.844 314.033C173.759 313.806 173.767 313.555 173.864 313.332C173.962 313.11 174.142 312.933 174.368 312.839H174.397L231.386 294.078Z" fill="#231F20"/>
<path d="M224.878 275.533L111.174 258.279L47.129 274.624L163.273 294.705L224.878 275.533Z" fill="#0D4E32" stroke="#231F20" stroke-width="4" stroke-linecap="round" stroke-linejoin="round"/>
<path d="M173.711 260.168L247.852 328.902L285.16 263.899L206.295 202.665L173.711 260.168Z" fill="white" stroke="#231F20" stroke-width="4" stroke-miterlimit="10"/>
<path d="M388.383 145.726C394.674 149.933 401.471 153.346 408.617 155.886C429.549 163.314 448.375 161.284 458.465 159.372C461.973 155.521 466.022 152.189 470.488 149.48C484.322 141.138 505.312 137.078 511.835 145.123C514.214 148.072 514.889 152.914 513.01 155.721C511.002 158.722 506.349 159.051 502.158 159.353C497.629 159.673 496.287 158.905 492.481 158.769C484.332 158.481 474.089 161.458 473.423 165.74C472.857 169.353 479.208 173.229 480.022 173.748C486.206 177.516 491.097 175.731 492.924 178.971C494.232 181.303 493.138 184.793 491.454 186.809C486.644 192.575 472.514 191.713 465.797 184.054C462.771 180.606 461.948 176.574 461.691 174.162C434.753 177.897 407.325 172.691 383.692 159.358C385.253 154.817 386.816 150.273 388.383 145.726Z" fill="white" stroke="#231F20" stroke-width="4" stroke-miterlimit="10"/>
<path d="M361.48 106.385C368.201 117.678 377.271 127.426 388.088 134.982C393.407 138.669 399.109 141.783 405.096 144.27L398.35 152.113L384.553 165.467C364.628 153.174 348.978 135.14 339.705 113.785" fill="white"/>
<path d="M361.48 106.385C368.201 117.678 377.271 127.426 388.088 134.982C393.407 138.669 399.109 141.783 405.096 144.27L398.35 152.113L384.553 165.467C364.628 153.174 348.978 135.14 339.705 113.785" stroke="#231F20" stroke-width="4" stroke-miterlimit="10"/>
<path d="M302.301 238.34L285.174 242.259C291.121 267.017 294.941 292.229 296.592 317.625C298.724 350.345 297.25 383.197 292.196 415.6L306.692 415.294C308.467 407.894 316.683 372.849 317.268 339.82C317.544 324.747 316.388 309.773 316.388 309.773C315.979 304.455 315.208 296.278 313.748 286.692C311.224 270.302 307.397 254.134 302.301 238.34Z" fill="#231F20"/>
<path d="M293.41 413.509C293.286 414.785 293.1 416.726 292.853 419.091C291.664 430.494 291.226 431.695 291.34 433.933C291.716 441.092 297.135 446.307 300.441 449.477C302.473 451.432 315.237 463.721 326.793 459.006C332.977 456.481 338.073 449.397 336.917 443.73C336.217 440.296 332.873 437.951 326.184 433.264C318.477 427.88 314.433 427.023 311.469 422.058C310.131 419.747 309.319 417.175 309.09 414.522L293.41 413.509Z" fill="white" stroke="#231F20" stroke-width="4" stroke-miterlimit="10"/>
<path d="M285.531 238.34C286.721 244.247 288.162 252.283 289.337 261.859C289.337 261.859 292.192 284.841 291.716 309.325C290.764 357.682 272.862 417.192 271.259 422.444L253.904 421.252C263.764 389.115 269.712 355.926 271.62 322.392C273.199 294.318 271.915 266.159 267.786 238.34H285.531Z" fill="#231F20"/>
<path d="M347.621 90.0542C333.366 100.61 320.508 112.9 309.352 126.635C298.386 140.168 269.679 176.564 266.468 227.907C266.072 234.216 266.072 240.543 266.468 246.852H309.352C308.1 237.982 307.659 229.018 308.034 220.069C310.389 164.355 344.167 124.148 361.479 106.385L347.621 90.0542Z" fill="white" stroke="#231F20" stroke-width="4" stroke-miterlimit="10"/>
<path d="M254.175 420.193C254.046 421.573 253.842 423.664 253.575 426.213C252.295 438.502 251.824 439.797 251.948 442.228C252.352 449.948 258.19 455.568 261.758 459.001C263.942 461.107 277.7 474.352 290.151 469.27C296.811 466.547 302.306 458.907 301.059 452.812C300.308 449.105 296.702 446.58 289.494 441.507C281.187 435.685 276.834 434.771 273.642 429.411C272.189 426.921 271.307 424.146 271.059 421.281L254.175 420.193Z" fill="white" stroke="#231F20" stroke-width="4" stroke-miterlimit="10"/>
<path d="M578.107 192.758L472.966 176.065C474.828 169.047 476.685 162.03 478.537 155.015L584.543 167.643" fill="white"/>
<path d="M578.049 193.121C573.644 192.594 569.245 192.016 564.852 191.388C560.46 190.76 556.068 190.124 551.679 189.48C547.296 188.818 542.914 188.135 538.534 187.431L525.394 185.345L512.254 183.248L499.123 181.101C494.746 180.385 490.369 179.687 485.997 178.924L472.881 176.696L472.181 176.574L472.357 175.9L477.928 154.854L478.071 154.317L478.633 154.379C487.472 155.382 496.316 156.352 505.151 157.403L518.405 158.948L531.65 160.544C540.484 161.609 549.319 162.655 558.144 163.781L564.762 164.619L571.38 165.495C575.788 166.076 580.194 166.687 584.596 167.327L584.52 167.963C580.09 167.544 575.661 167.111 571.242 166.635L564.581 165.933L557.949 165.194C549.105 164.214 540.27 163.154 531.436 162.118L518.186 160.554L504.97 158.943C496.135 157.888 487.315 156.753 478.485 155.646L479.184 155.175L473.613 176.225L473.095 175.434L486.259 177.379C490.645 178.026 495.03 178.692 499.413 179.377L512.563 181.402L525.708 183.479L538.848 185.566C543.225 186.26 547.603 186.967 551.983 187.686C556.363 188.405 560.734 189.16 565.095 189.951C569.462 190.718 573.823 191.532 578.178 192.396L578.049 193.121Z" fill="#231F20"/>
<path d="M487.058 162.999L585 173.743L487.058 162.999Z" fill="white"/>
<path d="M487.058 162.999C489.112 162.643 491.205 162.561 493.281 162.754C495.326 162.937 497.363 163.196 499.404 163.413L511.645 164.784L536.112 167.61L548.344 169.07L560.566 170.578L572.788 172.142L578.896 172.923L585 173.748L578.863 173.225L572.726 172.669L560.461 171.543L548.196 170.366L535.941 169.141L511.44 166.593L499.194 165.274C497.158 165.043 495.112 164.854 493.076 164.591C491.007 164.332 488.982 163.796 487.058 162.999Z" fill="#231F20"/>
<path d="M480.607 170.691L582.212 187.53L480.607 170.691Z" fill="white"/>
<path d="M480.764 169.763L582.312 186.951L582.112 188.114L480.45 171.623L480.764 169.763Z" fill="#231F20"/>
<path d="M508.3 169.24L583.516 178.967L508.3 169.24Z" fill="white"/>
<path d="M508.3 169.24C514.623 169.608 520.917 170.229 527.206 170.889C533.496 171.548 539.766 172.33 546.027 173.187C549.157 173.602 552.292 174.026 555.418 174.478C558.544 174.93 561.674 175.378 564.8 175.853C571.046 176.795 577.293 177.808 583.516 178.967C577.198 178.496 570.908 177.883 564.619 177.219C561.474 176.88 558.334 176.536 555.194 176.16C552.055 175.783 548.919 175.415 545.784 175.02C539.509 174.257 533.253 173.38 526.997 172.457C520.741 171.534 514.528 170.493 508.3 169.24Z" fill="#231F20"/>
<path d="M206.295 202.655L285.174 263.909C274.024 277.605 263.966 292.139 255.093 307.38C250.873 314.648 247.115 321.737 243.784 328.577L163.321 258.765L206.295 202.655Z" fill="white" stroke="#231F20" stroke-width="4" stroke-miterlimit="10"/>
<path d="M291.906 140.79C286.131 149.862 280.363 159.296 274.603 169.094C265.255 185.043 256.782 200.62 249.094 215.693C244.431 215.571 235.996 216.108 227.98 221.346C221.795 225.397 212.78 234.266 214.783 241.817C215.406 244.172 217.471 247.794 220.492 247.912C223.399 248.025 225.506 244.841 225.773 244.426C224.727 246.65 224.373 249.13 224.754 251.553C224.883 252.326 225.815 257.936 229.593 258.953C232.661 259.782 236.838 257.38 238.684 252.712C237.367 257.121 238.518 261.661 241.615 264.327C245.473 267.625 251.054 266.833 254.08 265.053C259.974 261.581 262.034 250.922 257.158 239.212C258.042 243.117 261.149 245.646 264.046 245.453C267.743 245.208 269.46 240.667 269.622 240.229C270.935 236.588 269.313 233.197 268.3 231.082C265.921 226.098 261.825 223.418 259.651 222.227C261.799 214.755 264.445 207.434 267.572 200.309C275.595 182.123 286.624 165.387 300.203 150.79L291.906 140.79Z" fill="white" stroke="#231F20" stroke-width="4" stroke-miterlimit="10"/>
<path d="M223.96 245.415C227.314 240.809 231.223 236.625 235.602 232.957C231.714 237.033 228.343 241.563 225.563 246.447L223.96 245.415Z" fill="#231F20"/>
<path d="M237.305 254.78C238.107 249.442 240.509 244.465 244.198 240.493C245.405 239.203 246.732 238.028 248.161 236.984C246.844 238.14 245.64 239.416 244.565 240.795C243.503 242.167 242.581 243.639 241.81 245.189C240.285 248.254 239.396 251.59 239.198 255.001L237.305 254.78Z" fill="#231F20"/>
<path d="M345.423 88.0952C334.885 91.2993 324.935 96.1561 315.951 102.481C295.56 116.852 285.574 135.123 281.221 144.723L302.777 163.87C307.178 156.169 312.292 147.973 318.172 139.48C324.053 130.987 330.042 123.258 335.775 116.4" fill="white"/>
<path d="M345.423 88.0952C334.885 91.2993 324.935 96.1561 315.951 102.481C295.56 116.852 285.574 135.123 281.221 144.723L302.777 163.87C307.178 156.169 312.292 147.973 318.172 139.48C324.053 130.987 330.042 123.258 335.775 116.4" stroke="#231F20" stroke-width="4" stroke-miterlimit="10"/>
<path d="M341.465 47.1571C340.804 46.1161 336.156 39.0317 327.387 38.0096C324.98 37.7317 318.134 37.4255 313.315 42.3666C312.596 43.0967 308.453 47.3455 309.352 52.3808C310.303 57.6611 316.16 60.3036 320.77 62.3997C325.013 64.3024 329.6 65.3405 334.257 65.452" fill="white"/>
<path d="M341.465 47.1571C339.699 44.6799 337.43 42.5943 334.804 41.0336C332.233 39.4871 329.305 38.6164 326.298 38.5041C325.554 38.4782 324.809 38.4924 324.067 38.5465C323.328 38.604 322.593 38.6999 321.864 38.8338C320.419 39.0941 319.017 39.5539 317.701 40.1999C316.406 40.842 315.225 41.6883 314.204 42.7058C313.17 43.7188 312.286 44.8717 311.578 46.1303C310.876 47.3437 310.426 48.6843 310.256 50.0729C310.102 51.4142 310.334 52.7713 310.927 53.9872C311.56 55.2195 312.448 56.3061 313.534 57.1762C314.676 58.0876 315.904 58.8873 317.202 59.5643C318.515 60.2756 319.89 60.9162 321.279 61.5521C322.635 62.1731 324.032 62.7018 325.461 63.1348C328.328 64.0194 331.296 64.5479 334.295 64.7081L334.257 66.1777C329.504 66.2043 324.799 65.223 320.461 63.2997C319.033 62.6826 317.606 62.0467 316.236 61.3166C314.804 60.5938 313.454 59.7205 312.211 58.7118C310.904 57.6544 309.84 56.3326 309.09 54.8351C308.363 53.2825 308.093 51.5586 308.31 49.8609C308.523 48.2183 309.081 46.638 309.947 45.2211C310.77 43.8299 311.789 42.5612 312.972 41.4528C314.147 40.3317 315.507 39.4173 316.992 38.749C319.935 37.4752 323.159 36.9723 326.355 37.2888C329.517 37.5641 332.554 38.6431 335.171 40.4212C336.452 41.2979 337.631 42.3121 338.686 43.4453C339.753 44.573 340.686 45.8184 341.465 47.1571Z" fill="#231F20"/>
<path d="M442.913 62.6355C443.536 58.9002 443.684 55.1025 443.356 51.3307C443.002 47.5456 442.189 43.8164 440.934 40.2237C439.479 35.8526 435.906 25.1507 428.998 17.1431C418.826 5.36724 400.886 -1.11889 383.692 1.02902C359.434 4.03421 347.022 23.3702 343.216 29.3005C341.346 32.2067 320.256 66.3096 339.933 96.0271C350.704 112.292 371.228 123.535 392.917 120.756C412.899 118.194 424.968 104.859 428.122 101.157" fill="white"/>
<path d="M442.913 62.6355C444.021 55.9984 443.605 49.1997 441.695 42.7437C439.735 36.3424 437.304 30.0258 433.888 24.2604C430.531 18.4436 425.847 13.4838 420.211 9.77611C417.398 7.94942 414.416 6.39266 411.305 5.12701C408.193 3.87308 404.969 2.91109 401.675 2.25371C400.848 2.10769 400.034 1.90986 399.202 1.80623L396.709 1.4718C395.039 1.3352 393.378 1.16562 391.694 1.17504C390.857 1.17504 390.02 1.13265 389.182 1.17504C388.345 1.21744 387.508 1.22686 386.675 1.29751L384.182 1.55658C383.35 1.64137 382.531 1.80152 381.704 1.92399C375.123 3.11487 368.856 5.61809 363.283 9.28153C357.734 12.988 352.847 17.5819 348.82 22.8755C346.788 25.5089 344.917 28.2599 343.216 31.1139C341.542 33.9808 340.05 36.9477 338.748 39.9976C336.104 46.0857 334.259 52.4842 333.258 59.0368C332.257 65.563 332.418 72.2124 333.734 78.6836C335.111 85.129 337.795 91.231 341.622 96.6205C343.52 99.3164 345.658 101.839 348.011 104.157C349.229 105.283 350.39 106.451 351.712 107.454L352.664 108.246C352.983 108.505 353.301 108.773 353.644 109.004L355.666 110.455C356.322 110.959 357.05 111.359 357.75 111.807L358.806 112.461C359.152 112.69 359.509 112.9 359.876 113.093C361.346 113.865 362.783 114.699 364.32 115.335C367.341 116.709 370.481 117.813 373.702 118.632L376.137 119.159C376.542 119.24 376.946 119.348 377.355 119.414L378.587 119.588L381.057 119.937L383.545 120.102L384.786 120.186C385.2 120.186 385.614 120.186 386.033 120.186H388.521C389.354 120.163 390.177 120.054 391.004 119.998L392.246 119.89C392.455 119.89 392.665 119.861 392.869 119.838L393.483 119.739L395.943 119.343C396.354 119.281 396.763 119.198 397.165 119.093L398.379 118.811L399.592 118.528C399.996 118.434 400.391 118.293 400.786 118.18C401.58 117.93 402.38 117.709 403.165 117.445C406.306 116.335 409.342 114.953 412.237 113.314C418.037 110.005 423.219 105.733 427.556 100.686L428.674 101.628C424.267 106.847 418.987 111.277 413.065 114.727C410.096 116.444 406.979 117.896 403.75 119.065C402.936 119.343 402.113 119.588 401.295 119.852C400.881 119.974 400.477 120.125 400.058 120.224L398.807 120.525L397.551 120.832C397.135 120.942 396.715 121.032 396.29 121.1L393.745 121.533L393.107 121.642C392.893 121.67 392.679 121.684 392.465 121.708L391.18 121.825C390.324 121.896 389.468 122.009 388.607 122.037L386.023 122.07C385.59 122.07 385.162 122.07 384.729 122.07L383.44 121.99L380.862 121.825L378.302 121.472L377.022 121.298C376.599 121.232 376.18 121.124 375.757 121.039L373.235 120.497C369.896 119.659 366.639 118.524 363.506 117.106C361.917 116.451 360.423 115.598 358.901 114.802C358.516 114.609 358.154 114.378 357.788 114.152L356.694 113.479C355.97 113.008 355.214 112.603 354.529 112.066L352.436 110.573C352.079 110.332 351.751 110.059 351.417 109.791L350.418 108.976C349.058 107.93 347.84 106.724 346.579 105.565C344.119 103.167 341.889 100.548 339.919 97.7416C335.948 92.1234 333.167 85.7669 331.745 79.0557C330.4 72.355 330.251 65.473 331.303 58.7212C332.339 52.0072 334.243 45.4532 336.969 39.2204C338.307 36.0978 339.842 33.0615 341.565 30.1295C343.334 27.2266 345.275 24.4301 347.378 21.7545C351.579 16.3634 356.65 11.6969 362.388 7.94379C365.273 6.09161 368.34 4.53394 371.542 3.29469C374.746 2.07136 378.071 1.18104 381.461 0.638066C382.313 0.529729 383.159 0.378998 384.011 0.308343L386.57 0.0869564C387.422 0.0351427 388.278 0.0398531 389.135 0.0115911C389.991 -0.0166709 390.843 0.011591 391.699 0.0445633C393.407 0.0445633 395.105 0.26595 396.804 0.435522L399.335 0.821769C400.182 0.944237 401.009 1.16091 401.842 1.32577C402.261 1.41527 402.679 1.49535 403.093 1.59897L404.325 1.93341C405.144 2.16892 405.976 2.35263 406.78 2.64467C407.584 2.93671 408.398 3.17693 409.202 3.45955L411.581 4.40162C414.71 5.73554 417.704 7.36333 420.52 9.26268C423.331 11.1686 425.904 13.3981 428.184 15.9043C430.458 18.4197 432.437 21.1818 434.083 24.1379C437.461 29.9693 439.792 36.3094 441.738 42.7249C443.631 49.1909 444.032 55.9952 442.913 62.6355Z" fill="#231F20"/>
<path d="M415.8 68.0618C423.349 66.6697 431.077 66.5217 438.674 67.6238C446.196 68.7448 448.032 70.3369 448.789 71.1094C453.855 76.2908 452.718 87.4497 447.028 94.1902C440.563 101.849 427.998 104.044 421.076 98.9806C419.393 97.716 418.037 96.0743 417.118 94.1902" fill="white"/>
<path d="M415.8 68.0617C423.498 66.1485 431.499 65.7405 439.355 66.8605C441.349 67.1176 443.318 67.5431 445.24 68.1323C446.247 68.444 447.216 68.8675 448.127 69.3947C448.612 69.6855 449.058 70.0353 449.455 70.4357C449.802 70.8408 450.159 71.2459 450.482 71.6698C451.664 73.4068 452.429 75.3886 452.718 77.4636C453.02 79.4774 453.007 81.5252 452.68 83.5352C452.363 85.5301 451.79 87.4769 450.977 89.3289C450.183 91.1983 449.119 92.9436 447.818 94.5103C446.494 96.0469 444.96 97.393 443.26 98.5094C441.553 99.5746 439.722 100.433 437.808 101.067C435.89 101.677 433.902 102.043 431.89 102.155C431.386 102.155 430.886 102.212 430.387 102.188L428.883 102.108C428.384 102.047 427.884 101.962 427.39 101.891C427.14 101.86 426.894 101.809 426.652 101.741L425.924 101.557C425.437 101.437 424.96 101.279 424.497 101.086L423.793 100.827L423.141 100.502L422.475 100.158C422.256 100.038 422.044 99.9042 421.842 99.7577C421.425 99.4875 421.022 99.1967 420.634 98.8862C419.129 97.5944 417.936 95.9848 417.142 94.1759C418.061 95.882 419.341 97.3714 420.896 98.5424C422.467 99.6415 424.247 100.414 426.129 100.813L426.833 100.954C427.066 101.007 427.303 101.042 427.542 101.058C428.017 101.105 428.493 101.157 428.969 101.19H430.396C430.872 101.19 431.348 101.124 431.823 101.095C433.733 100.927 435.612 100.513 437.414 99.866C439.187 99.2091 440.877 98.3474 442.447 97.2989C443.984 96.2177 445.367 94.9359 446.557 93.4882C447.731 92.0259 448.685 90.4028 449.388 88.6695C450.105 86.9419 450.605 85.1338 450.877 83.2856C451.16 81.4529 451.16 79.5883 450.877 77.7556C450.622 75.9683 449.958 74.2622 448.936 72.7673C448.665 72.4235 448.37 72.0985 448.089 71.7593C447.804 71.4653 447.485 71.2059 447.138 70.9868C446.357 70.5296 445.527 70.1599 444.664 69.8846C442.835 69.3186 440.969 68.8779 439.079 68.5657C435.254 67.9142 431.384 67.5568 427.504 67.4964C423.595 67.4478 419.686 67.6366 415.8 68.0617Z" fill="#231F20"/>
<path d="M356.418 72.4146C360.613 81.2127 366.876 88.888 374.682 94.7982C382.488 100.708 391.61 104.682 401.285 106.385" fill="white"/>
<path d="M356.418 72.4146C358.783 76.6289 361.567 80.599 364.729 84.2657C366.303 86.0753 367.969 87.8046 369.72 89.447C371.475 91.0815 373.34 92.5982 375.248 94.0537C379.111 96.9061 383.255 99.3648 387.617 101.392C392.022 103.429 396.593 105.095 401.281 106.371C398.823 106.179 396.386 105.779 393.997 105.175C391.595 104.585 389.24 103.821 386.951 102.89C384.655 101.966 382.429 100.88 380.291 99.6401C376.008 97.1458 372.066 94.1192 368.559 90.634C366.814 88.8933 365.182 87.0447 363.673 85.0994C360.678 81.2209 358.236 76.9526 356.418 72.4146Z" fill="#231F20"/>
<path d="M391.095 51.6653C393.241 51.6653 394.982 48.7719 394.982 45.2027C394.982 41.6336 393.241 38.7402 391.095 38.7402C388.948 38.7402 387.208 41.6336 387.208 45.2027C387.208 48.7719 388.948 51.6653 391.095 51.6653Z" fill="#231F20"/>
<path d="M438.051 58.4811C440.34 58.4811 442.195 55.4127 442.195 51.6275C442.195 47.8424 440.34 44.7739 438.051 44.7739C435.763 44.7739 433.907 47.8424 433.907 51.6275C433.907 55.4127 435.763 58.4811 438.051 58.4811Z" fill="#231F20"/>
</svg>
