<svg width="730" height="555" viewBox="0 0 730 555" fill="none" xmlns="http://www.w3.org/2000/svg">
<g clip-path="url(#clip0_8_700)">
<path d="M81.4832 525.23L255.639 436.709C259.223 438.896 265.466 441.903 273.36 441.769C286.865 441.536 299.506 432.199 306.267 417.992L466.248 348.696C412.578 309.24 358.914 269.786 305.255 230.332L187.184 308.823L15.1606 392.195C37.2695 436.54 59.3771 480.885 81.4832 525.23Z" fill="black" stroke="#231F20" stroke-width="4" stroke-miterlimit="10"/>
<path d="M256.148 434.183C259.28 422.429 268.504 413.446 279.941 411.083C294.156 408.141 304.896 416.843 306.267 418.009L458.599 343.074C456.71 334.626 453.298 326.591 448.531 319.363C438.337 303.951 424.713 296.577 418.152 293.562C392.968 297.064 368.812 305.857 347.275 319.363C301.948 347.918 282.58 388.985 275.892 405.35C262.508 403.18 248.924 402.497 235.389 403.313C158.73 408.027 106.398 460.253 87.5589 481.21C87.0533 493.35 86.5463 505.491 86.038 517.632L256.148 434.183Z" fill="white" stroke="#231F20" stroke-width="4" stroke-miterlimit="10"/>
<path d="M18.1985 368.423L87.5589 481.222C87.0533 493.363 86.5463 505.503 86.038 517.644L17.1873 384.104C17.5271 378.876 17.8641 373.649 18.1985 368.423Z" fill="white" stroke="#231F20" stroke-width="4" stroke-miterlimit="10"/>
<path d="M18.1985 366.398C37.2125 357.688 58.3305 349.059 81.4832 341.106C110.422 331.17 139.99 323.169 169.992 317.155C200.955 296.545 231.867 275.865 262.73 255.115C277.249 245.353 291.761 235.576 306.266 225.781L418.152 293.562C399.437 296.089 381.251 301.609 364.291 309.911C309.59 336.8 284.912 385.074 276.679 403.448C236.713 399.519 196.44 406.736 160.332 424.299C132.325 437.928 107.523 457.327 87.5589 481.222L18.1985 366.398Z" fill="white"/>
<path d="M17.7295 366.256C18.5083 365.848 19.3198 365.404 20.1475 364.997C20.5553 364.797 20.9631 364.589 21.3912 364.41L22.5492 363.889L27.1203 361.851C30.1663 360.503 33.2367 359.187 36.299 357.879C42.4399 355.28 48.6175 352.77 54.8318 350.35C67.2577 345.494 79.8182 341.013 92.5132 336.906C105.208 332.799 118.008 329.054 130.912 325.67C143.816 322.296 156.812 319.296 169.898 316.67L169.719 316.743L237.905 271.114C249.261 263.503 260.65 255.934 271.978 248.274L305.993 225.354L306.254 225.178L306.523 225.341L418.409 293.122L419.58 293.835L418.222 294.03C410.516 295.157 402.889 296.77 395.387 298.858C393.511 299.367 391.652 299.938 389.793 300.488C387.933 301.038 386.09 301.677 384.263 302.333C380.593 303.621 376.968 305.018 373.4 306.558L372.059 307.124L370.73 307.723C369.845 308.131 368.956 308.514 368.075 308.921C366.326 309.764 364.56 310.579 362.844 311.492C361.127 312.404 359.382 313.252 357.698 314.217L355.161 315.668C354.313 316.14 353.489 316.658 352.654 317.151C345.986 321.142 339.584 325.561 333.489 330.379C321.337 340.102 310.432 351.284 301.019 363.673C298.675 366.769 296.409 369.926 294.221 373.145C292.033 376.363 289.952 379.648 287.978 383C283.981 389.678 280.36 396.574 277.132 403.656L276.985 403.981L276.638 403.945C259.006 402.211 241.228 402.647 223.703 405.244C214.955 406.557 206.294 408.39 197.765 410.732C193.508 411.926 189.271 413.205 185.092 414.656C182.992 415.352 180.924 416.139 178.845 416.888C176.765 417.638 174.714 418.473 172.675 419.333C168.598 421.017 164.559 422.82 160.561 424.743L154.64 427.737L153.902 428.112L153.176 428.52L151.72 429.334L148.813 430.932C141.105 435.275 133.668 440.08 126.541 445.321C112.273 455.823 99.3174 467.997 87.9503 481.58L87.5099 482.106L87.1552 481.519C63.9562 443.114 40.8143 404.693 17.7295 366.256ZM18.6673 366.545C41.8337 404.703 64.9375 442.844 87.9788 480.969L87.1633 480.908C98.5862 467.272 111.605 455.055 125.942 444.519C133.101 439.253 140.572 434.426 148.315 430.064L151.235 428.459L152.695 427.644L153.425 427.236L154.167 426.861L160.116 423.851C164.112 421.917 168.168 420.105 172.284 418.416C174.323 417.552 176.41 416.786 178.482 415.971C180.553 415.157 182.645 414.423 184.757 413.727C188.953 412.268 193.21 410.985 197.488 409.787C206.058 407.429 214.762 405.583 223.552 404.259C241.157 401.653 259.016 401.218 276.728 402.963L276.231 403.252C282.531 388.91 290.467 375.342 299.881 362.817C309.294 350.266 320.254 338.951 332.502 329.141C344.785 319.36 358.348 311.3 372.813 305.185C376.422 303.653 380.1 302.284 383.823 301.013C385.674 300.37 387.546 299.791 389.413 299.204C391.281 298.618 393.169 298.092 395.065 297.595C402.634 295.574 410.331 294.065 418.104 293.077L417.916 293.986L306.014 226.197H306.544L272.524 249.118C261.201 256.777 249.812 264.347 238.451 271.961L170.265 317.591L170.188 317.644H170.09C157.042 320.265 144.065 323.262 131.161 326.635C118.257 330.009 105.48 333.747 92.8312 337.851C80.1661 341.971 67.6233 346.453 55.2029 351.296C48.9886 353.691 42.8205 356.189 36.6986 358.788C33.6363 360.096 30.5822 361.407 27.5321 362.756L22.9692 364.793L21.8479 365.294C21.5054 365.449 21.1629 365.6 20.8163 365.738C20.1108 366.015 19.4054 366.272 18.6673 366.545Z" fill="#231F20"/>
<path d="M272.744 403.093C279.943 378.322 292.221 355.319 308.799 335.545C344.046 293.676 388.19 279.519 406.001 274.846L274.371 212.626C251.723 222.06 231.368 236.246 214.685 254.224C198.002 272.203 185.38 293.553 177.674 316.829L272.744 403.093Z" fill="white" stroke="#231F20" stroke-width="4" stroke-miterlimit="10"/>
<path d="M177.674 316.829C149.674 311.181 120.79 311.552 92.9445 317.918C65.0986 324.285 38.9278 336.5 16.1719 353.752L82.4945 459.47C99.3681 446.409 117.72 435.374 137.171 426.593C192.126 401.826 243.112 401.024 272.744 403.093L177.674 316.829Z" fill="white" stroke="#231F20" stroke-width="4" stroke-miterlimit="10"/>
<path d="M275.554 403.093C284.231 378.311 301.769 338.971 337.428 301.649C354.936 283.348 374.864 267.522 396.659 254.61L280.724 207.061C266.86 211.257 235.222 222.905 208.836 253.599C194.25 270.623 183.609 290.656 177.674 312.266L275.554 403.093Z" fill="white" stroke="#231F20" stroke-width="4" stroke-miterlimit="10"/>
<path d="M272.744 403.093C207.052 400.417 141.576 412.241 80.9776 437.723L15.6663 331.496C28.5583 326.747 41.7511 322.857 55.1581 319.852C103.645 309.003 146.497 311.667 177.674 316.817L272.744 403.093Z" fill="white" stroke="#231F20" stroke-width="4" stroke-miterlimit="10"/>
<path d="M83.0164 334.926C83.0082 335.106 83.0597 335.283 83.163 335.43C83.2663 335.578 83.4154 335.687 83.5873 335.741C127.52 350.182 172.383 365.966 218.178 383.094C236.535 389.984 254.629 396.951 272.459 403.994C272.636 404.066 272.832 404.075 273.015 404.02C273.198 403.965 273.357 403.849 273.465 403.691C273.572 403.533 273.623 403.344 273.607 403.153C273.592 402.963 273.512 402.784 273.38 402.645C238.203 364.964 199.736 330.489 158.436 299.628C125.19 274.793 90.2043 252.373 53.7472 232.54C53.5806 232.451 53.3886 232.42 53.2024 232.453C53.0161 232.486 52.8465 232.581 52.721 232.723C52.5955 232.864 52.5214 233.044 52.5108 233.233C52.5002 233.421 52.5537 233.608 52.6626 233.763C63.2523 249.095 71.2757 266.045 76.4188 283.951C81.1659 300.516 83.39 317.7 83.0164 334.926Z" fill="white" stroke="#231F20" stroke-width="4" stroke-miterlimit="10"/>
<path d="M426.255 307.723C415.971 308.42 405.789 310.195 395.876 313.02C335.96 330.163 303.575 381.22 292.093 401.79" fill="white"/>
<path d="M426.255 307.723C419.16 308.358 412.117 309.481 405.177 311.084C401.72 311.899 398.274 312.783 394.89 313.863L392.353 314.678C391.509 314.959 390.657 315.199 389.825 315.517C388.157 316.124 386.482 316.707 384.822 317.338C371.582 322.498 359.107 329.435 347.74 337.957C342.058 342.207 336.63 346.784 331.483 351.666C326.32 356.544 321.42 361.691 316.803 367.087C312.182 372.475 307.813 378.077 303.698 383.892C301.659 386.797 299.62 389.726 297.699 392.721C296.737 394.215 295.786 395.721 294.845 397.239C293.904 398.757 292.98 400.279 292.072 401.806C298.714 389.157 306.656 377.234 315.767 366.227C324.882 355.175 335.286 345.251 346.757 336.666C352.504 332.389 358.543 328.519 364.829 325.083L369.588 322.594L374.432 320.271L379.366 318.145L384.369 316.206C386.053 315.594 387.754 315.036 389.442 314.45C390.282 314.144 391.15 313.924 392.007 313.659L394.58 312.901C398.013 311.899 401.491 311.064 404.998 310.359C412.007 308.948 419.113 308.067 426.255 307.723Z" fill="#0D4E32"/>
<path d="M94.3931 485.259C139.171 447.467 194.679 424.65 253.111 420.017L94.3931 485.259Z" fill="white"/>
<path d="M94.3931 485.259C105.33 475.651 117.053 466.976 129.44 459.324C135.63 455.491 141.975 451.918 148.475 448.605L150.921 447.383L153.368 446.185C154.183 445.777 154.999 445.37 155.814 444.999L158.302 443.867C159.961 443.121 161.609 442.343 163.28 441.618L168.316 439.495C169.988 438.766 171.697 438.138 173.393 437.458C175.089 436.778 176.786 436.126 178.506 435.531L183.656 433.702L188.851 431.999C195.794 429.799 202.817 427.869 209.92 426.21L215.258 425.048C217.04 424.67 218.834 424.344 220.616 423.989C221.509 423.81 222.406 423.651 223.303 423.504L225.994 423.048C227.789 422.726 229.591 422.482 231.389 422.209C233.187 421.936 234.998 421.724 236.804 421.496C238.611 421.268 240.417 421.088 242.223 420.889C244.03 420.689 245.848 420.555 247.655 420.388C249.461 420.221 251.284 420.143 253.098 420.017C238.661 421.543 224.343 424.042 210.243 427.497C196.169 430.989 182.367 435.495 168.944 440.978L163.921 443.072C162.257 443.789 160.614 444.555 158.962 445.293L156.483 446.409L154.037 447.578L151.59 448.743L149.143 449.965C142.665 453.195 136.31 456.666 130.076 460.379C128.511 461.291 126.981 462.265 125.428 463.206L120.832 466.111C117.793 468.088 114.784 470.113 111.805 472.185C108.82 474.243 105.892 476.39 102.985 478.565C101.541 479.665 100.094 480.765 98.6705 481.89C97.2474 483.014 95.8243 484.139 94.3931 485.259Z" fill="#0D4E32"/>
<path d="M94.3931 503.479L248.552 431.4L94.3931 503.479Z" fill="white"/>
<path d="M94.3931 503.479C100.746 500.329 107.14 497.257 113.513 494.149C119.886 491.04 126.296 488.013 132.678 484.941C139.059 481.87 145.465 478.81 151.879 475.787L161.494 471.236L171.122 466.718L180.749 462.196L190.393 457.714C196.819 454.712 203.266 451.762 209.708 448.796C216.151 445.83 222.614 442.913 229.081 440.013C232.315 438.55 235.565 437.132 238.802 435.686L243.675 433.519L248.568 431.392L243.81 433.767L239.039 436.118C235.854 437.678 232.678 439.259 229.485 440.799C223.113 443.909 216.725 446.987 210.32 450.035C203.914 453.078 197.516 456.146 191.094 459.14L181.454 463.667L171.811 468.148L162.167 472.63L152.503 477.111C146.074 480.099 139.629 483.054 133.167 485.976C126.72 488.926 120.29 491.884 113.815 494.793C107.34 497.702 100.885 500.623 94.3931 503.479Z" fill="#0D4E32"/>
<path d="M297.667 412.904C307.313 398.354 318.889 385.178 332.078 373.736C374.844 336.706 423.111 328.293 445.99 325.934" fill="white"/>
<path d="M297.667 412.904C305.643 400.372 315.099 388.843 325.831 378.567C331.209 373.435 336.888 368.627 342.839 364.17C343.577 363.599 344.331 363.057 345.085 362.516L347.349 360.886C348.865 359.81 350.419 358.788 351.956 357.741C353.494 356.694 355.084 355.704 356.666 354.75L359.055 353.308L360.246 352.587L361.469 351.894C374.371 344.465 388.079 338.532 402.327 334.209C409.43 332.045 416.644 330.265 423.939 328.876C427.609 328.187 431.254 327.609 434.948 327.112C435.867 326.984 436.787 326.866 437.709 326.757C438.626 326.639 439.548 326.537 440.469 326.436C442.312 326.24 444.139 326.081 446.007 325.93C431.315 327.776 416.827 330.978 402.727 335.496C388.654 339.995 375.094 345.958 362.269 353.288L361.066 353.972L359.879 354.681L357.506 356.107C355.932 357.069 354.387 358.075 352.829 359.057C351.271 360.038 349.754 361.094 348.237 362.149L345.978 363.742C345.22 364.271 344.466 364.801 343.732 365.371C342.26 366.48 340.759 367.551 339.324 368.712C337.888 369.873 336.416 370.981 335.01 372.179C332.155 374.51 329.383 376.958 326.667 379.456C315.816 389.523 306.093 400.738 297.667 412.904Z" fill="#0D4E32"/>
<path d="M207.551 317.839C210.929 304.251 216.764 291.394 224.767 279.901C243.981 252.406 270.204 241.023 281.47 236.908" fill="white"/>
<path d="M207.551 317.839C210.929 304.251 216.764 291.394 224.767 279.901C243.981 252.406 270.204 241.023 281.47 236.908" stroke="#231F20" stroke-width="4" stroke-miterlimit="10"/>
<path d="M86.5476 401.301C101.673 390.475 118.927 382.983 137.168 379.321C155.41 375.659 174.221 375.91 192.358 380.059" fill="white"/>
<path d="M86.5476 401.301C101.673 390.475 118.927 382.983 137.168 379.321C155.41 375.659 174.221 375.91 192.358 380.059" stroke="#231F20" stroke-width="4" stroke-miterlimit="10"/>
<path d="M77.4342 380.059C87.1989 371.854 98.6898 365.956 111.052 362.803C123.413 359.65 136.328 359.324 148.833 361.847" fill="white"/>
<path d="M77.4342 380.059C87.1989 371.854 98.6898 365.956 111.052 362.803C123.413 359.65 136.328 359.324 148.833 361.847" stroke="#231F20" stroke-width="4" stroke-miterlimit="10"/>
<path d="M63.7618 357.802C77.9295 350.741 93.4992 346.938 109.329 346.672L63.7618 357.802Z" fill="white"/>
<path d="M63.7618 357.802C77.9295 350.741 93.4992 346.938 109.329 346.672" stroke="#231F20" stroke-width="4" stroke-miterlimit="10"/>
<path d="M324.494 241.458C302.342 250.797 282.592 265.021 266.723 283.067C250.853 301.112 239.276 322.511 232.857 345.661" fill="white"/>
<path d="M324.494 241.458C302.342 250.797 282.592 265.021 266.723 283.067C250.853 301.112 239.276 322.511 232.857 345.661" stroke="#231F20" stroke-width="4" stroke-miterlimit="10"/>
<path d="M101.227 320.369C144.416 324.507 185.861 339.47 221.721 363.872L101.227 320.369Z" fill="white"/>
<path d="M101.227 320.369C144.416 324.507 185.861 339.47 221.721 363.872" stroke="#231F20" stroke-width="4" stroke-miterlimit="10"/>
<path d="M103.759 296.593C132.351 297.302 159.78 308.047 181.234 326.945L103.759 296.593Z" fill="white"/>
<path d="M103.759 296.593C132.351 297.302 159.78 308.047 181.234 326.945" stroke="#231F20" stroke-width="4" stroke-miterlimit="10"/>
<path d="M317.162 345.751C309.564 337.044 303.805 326.893 300.231 315.907C296.657 304.921 295.343 293.327 296.366 281.82L278.367 281.279C276.414 289.887 274.791 303.649 279.717 318.76C282.527 327.377 286.086 338.295 296.725 343.661C304.941 347.804 313.313 346.586 317.162 345.751Z" fill="white" stroke="#231F20" stroke-width="4" stroke-miterlimit="10"/>
<path d="M244.013 335.044C249.314 335.623 259.158 336.714 272.088 338.206C283.33 339.505 290.6 340.397 299.587 344.044C306.112 346.684 309.553 348.085 311.849 351.503C317.753 360.295 310.646 374.428 307.106 382.059C300.35 396.648 292.521 417.96 287.334 448.206L269.711 440.905C271.26 429.09 273.177 416.721 275.537 403.9C278.082 390.081 280.92 376.942 283.933 364.524C277.894 364.883 270.922 365.217 263.162 365.445C248.89 365.852 245.4 365.534 242.635 365.143C237.098 364.361 230.198 363.318 222.683 358.991C218.047 356.323 212.579 353.174 209.435 346.891C204.077 336.181 209.566 324.517 210.56 322.492L244.013 335.044Z" fill="#231F20"/>
<path d="M262.599 336.71C290.674 335.223 310.018 333.586 321.558 331.491C327.977 330.284 334.586 330.546 340.89 332.257C344.515 333.276 348.747 334.519 351.773 338.193C355.316 342.5 355.165 347.661 355.121 354.567C355.068 363.196 355.969 371.833 355.483 380.446C354.961 389.816 355.292 403.37 359.394 420.999L340.804 420.074C338.798 412.912 336.938 405.232 335.352 397.051C332.371 381.682 330.639 366.097 330.174 350.448C312.142 354.38 295.738 357.614 281.267 360.279C267.032 362.903 258.762 364.218 248.034 362.316C238.793 360.641 229.988 357.11 222.153 351.935L262.599 336.71Z" fill="#231F20"/>
<path d="M303.877 208.886C274.808 216.306 248.579 232.137 228.482 254.394L234.871 260.778C231.477 264.889 228.344 269.209 225.493 273.713C220.827 281.038 216.951 288.836 213.929 296.976C209.813 308.336 207.512 320.272 207.111 332.347L242.725 335.244C242.692 333.614 242.676 331.043 242.843 327.878C242.843 327.878 243.687 311.679 250.13 294.772C255.72 280.105 275.644 251.851 311.237 226.213" fill="white"/>
<path d="M303.877 208.886C274.808 216.306 248.579 232.137 228.482 254.394L234.871 260.778C231.477 264.889 228.344 269.209 225.493 273.713C220.827 281.038 216.951 288.836 213.929 296.976C209.813 308.336 207.512 320.272 207.111 332.347L242.725 335.244C242.692 333.614 242.676 331.043 242.843 327.878C242.843 327.878 243.687 311.679 250.13 294.772C255.72 280.105 275.644 251.851 311.237 226.213" stroke="#231F20" stroke-width="4" stroke-miterlimit="10"/>
<path d="M235.479 260.244L246.113 271.778L244.813 271.916C247.162 268.033 249.787 264.323 252.666 260.814C261.323 250.321 272.113 241.786 284.321 235.775C280.346 237.889 276.523 240.275 272.879 242.917C265.6 248.189 259.117 254.479 253.628 261.593C250.897 265.133 248.423 268.863 246.223 272.756L245.677 273.721L244.919 272.906L234.28 261.348L235.479 260.244Z" fill="#231F20"/>
<path d="M281.324 251.644C277.211 260.466 275.668 270.268 276.871 279.926L289.373 281.556L297.936 281.417C297.584 264.067 300.221 246.785 305.732 230.328C302.193 233.021 298.548 235.95 294.837 239.132C289.879 243.373 285.385 247.574 281.324 251.644Z" fill="white" stroke="#231F20" stroke-width="4" stroke-miterlimit="10"/>
<path d="M341.962 420.074C342.023 421.569 342.105 423.847 342.19 426.617C342.598 440 342.272 441.455 342.753 444.025C344.29 452.255 351.316 457.47 355.598 460.644C358.228 462.595 374.762 474.866 387.289 467.639C393.98 463.773 398.735 454.793 396.537 448.413C395.2 444.543 391.004 442.343 382.608 437.943C372.932 432.871 368.165 432.512 363.998 427.204C362.098 424.736 360.762 421.882 360.083 418.844L341.962 420.074Z" fill="white" stroke="#231F20" stroke-width="4" stroke-miterlimit="10"/>
<path d="M269.914 435.963C269.572 437.426 269.054 439.63 268.402 442.335C265.254 455.372 264.565 456.671 264.348 459.279C263.659 467.623 269.054 474.491 272.349 478.692C274.388 481.267 287.085 497.465 301.072 493.79C308.55 491.827 315.506 484.42 315.07 477.686C314.801 473.611 311.335 470.373 304.399 463.915C296.407 456.472 291.901 454.867 289.283 448.65C288.104 445.769 287.569 442.665 287.713 439.556L269.914 435.963Z" fill="white" stroke="#231F20" stroke-width="4" stroke-miterlimit="10"/>
<path d="M279.317 166.035C276.943 164.092 274.22 162.619 271.293 161.696C267.876 160.625 264.626 159.61 262.053 161.232C258.652 163.379 258.42 168.879 259.28 172.313C260.401 176.795 263.765 179.276 265.286 180.396C270.673 184.356 276.704 184.161 278.816 183.986" fill="white"/>
<path d="M279.093 166.288C277.243 164.976 275.238 163.898 273.124 163.077C272.064 162.682 270.984 162.341 269.89 162.055C268.821 161.73 267.731 161.48 266.628 161.305C265.606 161.12 264.556 161.163 263.553 161.431C263.083 161.57 262.641 161.79 262.249 162.083L261.951 162.299L261.682 162.556C261.5 162.727 261.334 162.914 261.184 163.114C260.564 163.965 260.131 164.937 259.912 165.966C259.661 167.034 259.546 168.129 259.57 169.225C259.542 171.436 260.112 173.614 261.221 175.528C262.419 177.433 263.999 179.07 265.861 180.335C267.694 181.692 269.77 182.683 271.978 183.256C273.087 183.545 274.217 183.743 275.358 183.847C276.496 183.916 277.666 184.083 278.783 183.66L278.836 184.311C277.65 184.075 276.504 184.242 275.338 184.14C274.174 184.075 273.017 183.912 271.88 183.656C269.579 183.159 267.39 182.24 265.425 180.946C263.391 179.704 261.64 178.048 260.287 176.086C258.965 174.041 258.224 171.675 258.142 169.241C258.085 168.023 258.178 166.803 258.42 165.607C258.663 164.362 259.172 163.184 259.912 162.153C260.697 161.072 261.812 160.275 263.088 159.879C264.322 159.537 265.619 159.484 266.877 159.724C268.051 159.937 269.208 160.235 270.339 160.617C271.467 160.959 272.574 161.367 273.654 161.839C275.807 162.822 277.787 164.147 279.517 165.762L279.093 166.288Z" fill="#231F20"/>
<path d="M378.371 162.963C378.469 158.343 377.963 150.334 373.519 142.186C364.854 126.272 346.354 119.187 330.887 119.68C307.539 120.422 293.866 138.348 290.682 142.536C274.779 163.448 278.979 187.155 279.591 190.321C280.369 194.321 286.147 221.744 311.478 232.569C313.443 233.408 336.889 242.998 356.768 230.263C361.483 227.21 365.547 223.254 368.724 218.623" fill="white"/>
<path d="M378.371 162.963C378.452 156.931 377.251 150.951 374.848 145.416C372.394 139.932 368.702 135.089 364.063 131.267C359.435 127.466 354.123 124.583 348.413 122.773C342.723 120.931 336.754 120.104 330.777 120.328C324.82 120.592 318.97 121.998 313.545 124.471C308.135 126.986 303.176 130.372 298.866 134.494C296.698 136.533 294.674 138.721 292.81 141.041C290.933 143.359 289.226 145.81 287.701 148.374C284.667 153.503 282.448 159.073 281.124 164.882C279.765 170.689 279.216 176.656 279.493 182.613C279.607 185.583 279.975 188.538 280.594 191.445C281.239 194.351 282.083 197.21 283.118 200.001C285.155 205.612 287.978 210.907 291.501 215.727C295.025 220.539 299.362 224.7 304.317 228.022C306.805 229.667 309.437 231.085 312.179 232.259C314.96 233.362 317.823 234.247 320.742 234.903C326.578 236.28 332.599 236.7 338.569 236.146C341.55 235.862 344.493 235.272 347.353 234.386C350.214 233.486 352.965 232.269 355.557 230.76C358.16 229.256 360.584 227.461 362.782 225.411C364.994 223.363 366.989 221.094 368.736 218.64C367.051 221.149 365.112 223.478 362.95 225.59C360.777 227.702 358.373 229.561 355.781 231.131C353.186 232.712 350.424 234.001 347.544 234.973C344.656 235.929 341.677 236.588 338.655 236.94C335.632 237.288 332.583 237.363 329.546 237.164C328.029 237.071 326.512 236.92 325.007 236.704C323.503 236.488 322.002 236.231 320.522 235.889C317.54 235.258 314.613 234.393 311.767 233.302C308.942 232.136 306.228 230.72 303.657 229.069C301.083 227.412 298.669 225.52 296.443 223.419C294.231 221.309 292.203 219.015 290.38 216.562C286.756 211.647 283.847 206.244 281.74 200.514C280.666 197.659 279.79 194.734 279.118 191.759C278.47 188.769 278.079 185.73 277.947 182.674C277.637 176.571 278.173 170.455 279.542 164.499C280.929 158.537 283.232 152.826 286.368 147.567C287.941 144.952 289.7 142.454 291.632 140.091C293.546 137.715 295.625 135.477 297.854 133.394C302.297 129.182 307.402 125.728 312.966 123.172C318.557 120.635 324.598 119.238 330.736 119.061C336.85 118.91 342.943 119.837 348.735 121.799C354.536 123.714 359.915 126.723 364.581 130.664C369.216 134.636 372.868 139.627 375.248 145.245C375.833 146.644 376.342 148.073 376.773 149.527C377.191 150.982 377.533 152.457 377.796 153.947C378.289 156.926 378.481 159.946 378.371 162.963Z" fill="#231F20"/>
<path d="M359.308 191.706C361.376 191.217 369.262 189.6 376.638 194.13C378.677 195.381 383.913 198.611 385.132 204.865C385.299 205.737 386.314 210.976 383.224 214.908C378.865 220.477 369.197 219.862 363.121 216.639C356.829 213.303 354.444 207.204 353.763 205.211" fill="white"/>
<path d="M359.308 191.706C362.531 190.783 365.911 190.54 369.233 190.993C370.909 191.228 372.551 191.658 374.126 192.272L375.293 192.781C375.7 192.948 376.051 193.189 376.426 193.364C376.801 193.539 377.168 193.771 377.523 193.991C377.878 194.211 378.241 194.436 378.596 194.672C379.305 195.142 379.985 195.654 380.634 196.204C381.293 196.755 381.909 197.356 382.477 198C383.629 199.306 384.55 200.798 385.201 202.413C385.828 204.043 386.166 205.771 386.2 207.517C386.268 209.279 385.991 211.036 385.385 212.691C384.752 214.378 383.684 215.868 382.29 217.01C380.9 218.118 379.284 218.908 377.556 219.324C375.874 219.738 374.14 219.901 372.41 219.809C370.701 219.73 369.008 219.457 367.362 218.994C365.72 218.529 364.14 217.869 362.656 217.026C361.182 216.171 359.837 215.113 358.66 213.881C356.349 211.434 354.67 208.461 353.767 205.22C354.983 208.27 356.851 211.018 359.239 213.274C361.629 215.451 364.54 216.974 367.692 217.698C369.25 218.079 370.843 218.294 372.446 218.338C374.031 218.377 375.613 218.197 377.148 217.804C378.648 217.431 380.05 216.736 381.254 215.767C381.836 215.283 382.352 214.724 382.787 214.105C383.233 213.491 383.598 212.821 383.872 212.113C384.415 210.655 384.67 209.105 384.622 207.55C384.604 205.981 384.329 204.426 383.807 202.946C382.722 200.001 380.516 197.544 377.902 195.67C377.573 195.434 377.239 195.206 376.899 194.986C376.557 194.757 376.21 194.541 375.864 194.342C375.517 194.142 375.178 193.934 374.816 193.743L373.731 193.205C372.249 192.545 370.698 192.052 369.107 191.734C365.872 191.108 362.547 191.098 359.308 191.706Z" fill="#231F20"/>
<path d="M332.796 174.22C335.093 174.22 336.955 172.088 336.955 169.457C336.955 166.827 335.093 164.695 332.796 164.695C330.498 164.695 328.636 166.827 328.636 169.457C328.636 172.088 330.498 174.22 332.796 174.22Z" fill="#231F20"/>
<path d="M377.417 181.142C379.667 181.142 381.491 178.895 381.491 176.123C381.491 173.351 379.667 171.103 377.417 171.103C375.167 171.103 373.344 173.351 373.344 176.123C373.344 178.895 375.167 181.142 377.417 181.142Z" fill="#231F20"/>
<path d="M337.819 220.567L358.269 220.681L337.819 220.567Z" fill="white"/>
<path d="M337.819 220.567C339.508 220.258 341.214 220.052 342.928 219.951C344.633 219.84 346.337 219.793 348.042 219.809C349.746 219.825 351.449 219.893 353.151 220.013C354.866 220.135 356.572 220.358 358.26 220.681C356.57 220.987 354.862 221.19 353.147 221.288C351.443 221.396 349.738 221.447 348.034 221.438C346.329 221.43 344.625 221.362 342.92 221.235C341.208 221.116 339.504 220.893 337.819 220.567Z" fill="#231F20"/>
<path d="M271.639 374.73L271.484 374.477C270.824 373.459 268.63 370.961 260.45 368.826C252.271 366.692 246.7 365.249 240.119 367.225C237.229 364.639 234.622 361.753 232.343 358.617C232.343 358.617 225.003 349.096 221.215 338.58C216.522 325.482 222.231 297.253 242.696 269.272L231.014 256.928C228.061 260.388 225.296 264.004 222.732 267.761C214.243 280.207 199.657 301.449 201.977 325.934C204.305 350.538 222.129 366.952 229.966 373.194C226.747 376.312 224.181 380.038 222.418 384.157C220.252 389.734 219.567 395.776 220.428 401.696C220.893 404.658 221.599 406.752 223.381 408.015C223.678 408.227 227.177 410.626 230.525 409.115C231.929 408.453 233.017 407.267 233.554 405.811C234.079 407.762 235.224 409.491 236.816 410.736C237.579 411.352 240.078 413.36 242.994 413.132C246.664 412.851 250.427 409.111 251.398 403.888C252.548 405.379 254.061 406.55 255.794 407.29C256.475 407.583 261.237 409.644 264.764 407.664C266.567 406.65 267.305 404.861 267.57 404.242C269.507 399.708 266.554 392.937 260.638 386.862C260.882 387.009 265.604 389.747 270.016 387.298C270.343 387.119 273.792 385.147 274.135 381.847C274.379 379.333 272.793 376.657 271.639 374.73Z" fill="white" stroke="#231F20" stroke-width="4" stroke-miterlimit="10"/>
<path d="M234.631 388.15C233.056 393.892 232.69 399.899 233.554 405.79L234.631 388.15Z" fill="white"/>
<path d="M234.631 388.15C233.332 393.908 233.241 399.873 234.362 405.668L232.731 405.904C232.132 399.919 232.779 393.874 234.631 388.15Z" fill="#231F20"/>
<path d="M248.299 384.862C247.923 391.346 248.974 397.833 251.378 403.867L248.299 384.862Z" fill="white"/>
<path d="M248.299 384.862C248.197 391.303 249.507 397.688 252.136 403.57L250.619 404.185C248.443 397.991 247.651 391.395 248.299 384.862Z" fill="#231F20"/>
<path d="M4 537.189C5.67837 536.827 7.36399 536.5 9.05687 536.21C10.7498 535.92 12.4499 535.678 14.1573 535.484C17.5724 535.09 21.0057 534.872 24.4433 534.831C31.326 534.726 38.198 535.41 44.9247 536.87C45.7663 537.051 46.5971 537.269 47.4332 537.474C47.8504 537.581 48.2621 537.704 48.6775 537.819C49.0929 537.933 49.5064 538.049 49.9163 538.181C51.5669 538.671 53.1812 539.253 54.7936 539.876C57.9904 541.151 61.1084 542.617 64.1311 544.263C67.1655 545.879 70.142 547.591 73.1855 549.16C76.217 550.755 79.337 552.175 82.5302 553.414C85.7277 554.64 88.9989 555.663 92.3248 556.479C95.6488 557.301 99.0179 557.929 102.415 558.36C109.209 559.227 116.091 559.31 122.922 558.808C129.752 558.306 136.54 557.203 143.236 555.724C149.933 554.246 156.546 552.403 163.125 550.446C164.771 549.958 166.418 549.472 168.054 548.968C169.691 548.464 171.319 547.932 172.952 547.381C176.198 546.279 179.418 545.099 182.61 543.839C185.803 542.587 188.969 541.263 192.125 539.915C195.281 538.568 198.428 537.195 201.619 535.909C203.215 535.27 204.826 534.657 206.464 534.12C208.101 533.565 209.78 533.141 211.484 532.851C212.343 532.712 213.211 532.639 214.081 532.631C214.957 532.627 215.83 532.723 216.684 532.916C217.54 533.117 218.364 533.436 219.131 533.865C219.894 534.298 220.597 534.831 221.221 535.448C222.447 536.697 223.414 538.176 224.065 539.801C224.728 541.406 225.17 543.094 225.378 544.818C225.591 546.539 225.591 548.279 225.378 550C225.167 551.725 224.705 553.409 224.005 554.999C223.3 556.593 222.301 558.04 221.059 559.263C219.833 560.496 218.41 561.516 216.848 562.28C216.066 562.663 215.248 562.967 214.406 563.186C213.561 563.402 212.693 563.515 211.821 563.522C210.067 563.526 208.345 563.047 206.844 562.138C205.362 561.226 204.074 560.029 203.055 558.618C202.028 557.219 201.241 555.658 200.728 554C200.468 553.173 200.291 552.322 200.2 551.46C200.18 551.244 200.161 551.029 200.155 550.813C200.15 550.597 200.144 550.377 200.155 550.162C200.166 549.946 200.177 549.726 200.19 549.51L200.228 549.186L200.248 549.024L200.282 548.865L200.414 548.224C200.473 548.016 200.543 547.809 200.609 547.602C200.673 547.394 200.751 547.191 200.844 546.995C200.925 546.793 201.016 546.596 201.118 546.405L201.43 545.834C201.543 545.652 201.67 545.471 201.793 545.29L201.974 545.019L202.176 544.764L202.578 544.254C203.728 542.964 205.048 541.837 206.502 540.902C207.946 539.964 209.462 539.142 211.036 538.443C214.184 537.056 217.445 535.944 220.783 535.118C224.114 534.275 227.485 533.604 230.884 533.108C234.282 532.611 237.699 532.248 241.123 532C237.701 532.267 234.285 532.644 230.892 533.159C227.498 533.672 224.132 534.358 220.809 535.216C217.476 536.055 214.223 537.179 211.083 538.577C209.521 539.28 208.017 540.105 206.585 541.045C205.151 541.978 203.85 543.1 202.718 544.381L202.324 544.883L202.13 545.136L201.949 545.402C201.833 545.584 201.71 545.754 201.601 545.935L201.298 546.496C201.199 546.684 201.111 546.877 201.033 547.074C200.944 547.266 200.868 547.464 200.806 547.666C200.745 547.869 200.677 548.07 200.625 548.273L200.498 548.896L200.467 549.052L200.449 549.209L200.411 549.523C200.402 549.735 200.38 549.946 200.382 550.158C200.384 550.37 200.382 550.582 200.382 550.795C200.382 551.007 200.411 551.217 200.431 551.429C200.524 552.275 200.701 553.109 200.96 553.92C201.473 555.549 202.253 557.081 203.268 558.454C204.268 559.832 205.53 561 206.982 561.89C208.439 562.766 210.109 563.226 211.809 563.217C213.512 563.184 215.186 562.768 216.706 561.998C218.233 561.247 219.623 560.245 220.82 559.035C222.03 557.839 223.002 556.423 223.682 554.863C224.363 553.304 224.811 551.654 225.013 549.966C225.218 548.274 225.211 546.564 224.993 544.874C224.787 543.185 224.35 541.533 223.695 539.963C223.062 538.385 222.122 536.949 220.929 535.738C220.329 535.148 219.655 534.638 218.922 534.224C218.188 533.817 217.399 533.515 216.581 533.326C214.948 532.945 213.218 533.012 211.546 533.281C209.865 533.572 208.21 533.997 206.596 534.55C204.963 535.094 203.375 535.702 201.784 536.34C198.604 537.621 195.461 539.003 192.303 540.351C189.145 541.698 185.977 543.032 182.779 544.288C179.581 545.545 176.356 546.741 173.1 547.847C171.473 548.402 169.84 548.934 168.203 549.443C166.56 549.951 164.915 550.437 163.27 550.929C156.687 552.891 150.065 554.749 143.351 556.232C136.636 557.716 129.83 558.832 122.965 559.343C119.534 559.597 116.091 559.706 112.648 559.639C109.206 559.57 105.769 559.316 102.353 558.879C98.937 558.44 95.5491 557.803 92.2069 556.971C88.8612 556.146 85.5706 555.113 82.3543 553.876C79.1464 552.625 76.0125 551.193 72.9679 549.585C69.9153 547.998 66.9388 546.284 63.9243 544.651C60.9241 542.996 57.8279 541.521 54.6521 540.235C53.0596 539.609 51.4508 539.021 49.8111 538.526C49.4048 538.394 48.9931 538.276 48.5796 538.163C48.166 538.051 47.7579 537.924 47.3444 537.815C46.5136 537.606 45.6884 537.38 44.8504 537.2C41.5067 536.443 38.1202 535.889 34.7094 535.542C31.2994 535.182 27.8724 535.005 24.4433 535.013C17.573 535.049 10.724 535.778 4 537.189Z" fill="#231F20"/>
</g>
<path d="M110 528.189C111.678 527.827 113.364 527.5 115.057 527.21C116.75 526.92 118.45 526.678 120.157 526.484C123.572 526.09 127.006 525.872 130.443 525.831C137.326 525.726 144.198 526.41 150.925 527.87C151.766 528.051 152.597 528.269 153.433 528.474C153.85 528.581 154.262 528.704 154.677 528.819C155.093 528.933 155.506 529.049 155.916 529.181C157.567 529.671 159.181 530.253 160.794 530.876C163.99 532.151 167.108 533.617 170.131 535.263C173.166 536.879 176.142 538.591 179.186 540.16C182.217 541.755 185.337 543.175 188.53 544.414C191.728 545.64 194.999 546.663 198.325 547.479C201.649 548.301 205.018 548.929 208.415 549.36C215.209 550.227 222.091 550.31 228.922 549.808C235.752 549.306 242.54 548.203 249.236 546.724C255.933 545.246 262.546 543.403 269.125 541.446C270.771 540.958 272.418 540.472 274.054 539.968C275.691 539.464 277.319 538.932 278.952 538.381C282.198 537.279 285.418 536.099 288.61 534.839C291.803 533.587 294.969 532.263 298.125 530.915C301.281 529.568 304.428 528.195 307.619 526.909C309.215 526.27 310.826 525.657 312.464 525.12C314.101 524.565 315.78 524.141 317.484 523.851C318.343 523.712 319.211 523.639 320.081 523.631C320.957 523.627 321.83 523.723 322.684 523.916C323.54 524.117 324.364 524.436 325.131 524.865C325.894 525.298 326.597 525.831 327.221 526.448C328.447 527.697 329.414 529.176 330.065 530.801C330.728 532.406 331.17 534.094 331.378 535.818C331.591 537.539 331.591 539.279 331.378 541C331.167 542.725 330.705 544.409 330.005 545.999C329.3 547.593 328.301 549.04 327.059 550.263C325.833 551.496 324.41 552.516 322.848 553.28C322.066 553.663 321.248 553.967 320.406 554.186C319.561 554.402 318.693 554.515 317.821 554.522C316.067 554.526 314.345 554.047 312.844 553.138C311.362 552.226 310.074 551.029 309.055 549.618C308.028 548.219 307.241 546.658 306.728 545C306.468 544.173 306.291 543.322 306.2 542.46C306.18 542.244 306.161 542.029 306.155 541.813C306.15 541.597 306.144 541.377 306.155 541.162C306.166 540.946 306.177 540.726 306.19 540.51L306.228 540.186L306.248 540.024L306.282 539.865L306.414 539.224C306.473 539.016 306.543 538.809 306.609 538.602C306.673 538.394 306.751 538.191 306.844 537.995C306.925 537.793 307.016 537.596 307.118 537.405L307.43 536.834C307.543 536.652 307.67 536.471 307.793 536.29L307.974 536.019L308.176 535.764L308.578 535.254C309.728 533.964 311.048 532.837 312.502 531.902C313.946 530.964 315.462 530.142 317.036 529.443C320.184 528.056 323.445 526.944 326.783 526.118C330.114 525.275 333.485 524.604 336.884 524.108C340.282 523.611 343.699 523.248 347.123 523C343.701 523.267 340.285 523.644 336.892 524.159C333.498 524.672 330.132 525.358 326.809 526.216C323.476 527.055 320.223 528.179 317.083 529.577C315.521 530.28 314.017 531.105 312.585 532.045C311.151 532.978 309.85 534.1 308.718 535.381L308.324 535.883L308.13 536.136L307.949 536.402C307.833 536.584 307.71 536.754 307.601 536.935L307.298 537.496C307.199 537.684 307.111 537.877 307.033 538.074C306.944 538.266 306.868 538.464 306.806 538.666C306.745 538.869 306.677 539.07 306.625 539.273L306.498 539.896L306.467 540.052L306.449 540.209L306.411 540.523C306.402 540.735 306.38 540.946 306.382 541.158C306.384 541.37 306.382 541.582 306.382 541.795C306.382 542.007 306.411 542.217 306.431 542.429C306.524 543.275 306.701 544.109 306.96 544.92C307.473 546.549 308.253 548.081 309.268 549.454C310.268 550.832 311.53 552 312.982 552.89C314.439 553.766 316.109 554.226 317.809 554.217C319.512 554.184 321.186 553.768 322.706 552.998C324.233 552.247 325.623 551.245 326.82 550.035C328.03 548.839 329.002 547.423 329.682 545.863C330.363 544.304 330.811 542.654 331.013 540.966C331.218 539.274 331.211 537.564 330.993 535.874C330.787 534.185 330.35 532.533 329.695 530.963C329.062 529.385 328.122 527.949 326.929 526.738C326.329 526.148 325.655 525.638 324.922 525.224C324.188 524.817 323.399 524.515 322.581 524.326C320.948 523.945 319.218 524.012 317.546 524.281C315.865 524.572 314.21 524.997 312.596 525.55C310.963 526.094 309.375 526.702 307.784 527.34C304.604 528.621 301.461 530.003 298.303 531.351C295.145 532.698 291.977 534.032 288.779 535.288C285.581 536.545 282.356 537.741 279.1 538.847C277.473 539.402 275.84 539.934 274.203 540.443C272.56 540.951 270.915 541.437 269.27 541.929C262.687 543.891 256.065 545.749 249.351 547.232C242.636 548.716 235.83 549.832 228.965 550.343C225.534 550.597 222.091 550.706 218.648 550.639C215.206 550.57 211.769 550.316 208.353 549.879C204.937 549.44 201.549 548.803 198.207 547.971C194.861 547.146 191.571 546.113 188.354 544.876C185.146 543.625 182.013 542.193 178.968 540.585C175.915 538.998 172.939 537.284 169.924 535.651C166.924 533.996 163.828 532.521 160.652 531.235C159.06 530.609 157.451 530.021 155.811 529.526C155.405 529.394 154.993 529.276 154.58 529.163C154.166 529.051 153.758 528.924 153.344 528.815C152.514 528.606 151.688 528.38 150.85 528.2C147.507 527.443 144.12 526.889 140.709 526.542C137.299 526.182 133.872 526.005 130.443 526.013C123.573 526.049 116.724 526.778 110 528.189Z" fill="#231F20"/>
<path d="M402 362.189C403.678 361.827 405.364 361.5 407.057 361.21C408.75 360.92 410.45 360.678 412.157 360.484C415.572 360.09 419.006 359.872 422.443 359.831C429.326 359.726 436.198 360.41 442.925 361.87C443.766 362.051 444.597 362.269 445.433 362.474C445.85 362.581 446.262 362.704 446.677 362.819C447.093 362.933 447.506 363.049 447.916 363.181C449.567 363.671 451.181 364.253 452.794 364.876C455.99 366.151 459.108 367.617 462.131 369.263C465.166 370.879 468.142 372.591 471.186 374.16C474.217 375.755 477.337 377.175 480.53 378.414C483.728 379.64 486.999 380.663 490.325 381.479C493.649 382.301 497.018 382.929 500.415 383.36C507.209 384.227 514.091 384.31 520.922 383.808C527.752 383.306 534.54 382.203 541.236 380.724C547.933 379.246 554.546 377.403 561.125 375.446C562.771 374.958 564.418 374.472 566.054 373.968C567.691 373.464 569.319 372.932 570.952 372.381C574.198 371.279 577.418 370.099 580.61 368.839C583.803 367.587 586.969 366.263 590.125 364.915C593.281 363.568 596.428 362.195 599.619 360.909C601.215 360.27 602.826 359.657 604.464 359.12C606.101 358.565 607.78 358.141 609.484 357.851C610.343 357.712 611.211 357.639 612.081 357.631C612.957 357.627 613.83 357.723 614.684 357.916C615.54 358.117 616.364 358.436 617.131 358.865C617.894 359.298 618.597 359.831 619.221 360.448C620.447 361.697 621.414 363.176 622.065 364.801C622.728 366.406 623.17 368.094 623.378 369.818C623.591 371.539 623.591 373.279 623.378 375C623.167 376.725 622.705 378.409 622.005 379.999C621.3 381.593 620.301 383.04 619.059 384.263C617.833 385.496 616.41 386.516 614.848 387.28C614.066 387.663 613.248 387.967 612.406 388.186C611.561 388.402 610.693 388.515 609.821 388.522C608.067 388.526 606.345 388.047 604.844 387.138C603.362 386.226 602.074 385.029 601.055 383.618C600.028 382.219 599.241 380.658 598.728 379C598.468 378.173 598.291 377.322 598.2 376.46C598.18 376.244 598.161 376.029 598.155 375.813C598.15 375.597 598.144 375.377 598.155 375.162C598.166 374.946 598.177 374.726 598.19 374.51L598.228 374.186L598.248 374.024L598.282 373.865L598.414 373.224C598.473 373.016 598.543 372.809 598.609 372.602C598.673 372.394 598.751 372.191 598.844 371.995C598.925 371.793 599.016 371.596 599.118 371.405L599.43 370.834C599.543 370.652 599.67 370.471 599.793 370.29L599.974 370.019L600.176 369.764L600.578 369.254C601.728 367.964 603.048 366.837 604.502 365.902C605.946 364.964 607.462 364.142 609.036 363.443C612.184 362.056 615.445 360.944 618.783 360.118C622.114 359.275 625.485 358.604 628.884 358.108C632.282 357.611 635.699 357.248 639.123 357C635.701 357.267 632.285 357.644 628.892 358.159C625.498 358.672 622.132 359.358 618.809 360.216C615.476 361.055 612.223 362.179 609.083 363.577C607.521 364.28 606.017 365.105 604.585 366.045C603.151 366.978 601.85 368.1 600.718 369.381L600.324 369.883L600.13 370.136L599.949 370.402C599.833 370.584 599.71 370.754 599.601 370.935L599.298 371.496C599.199 371.684 599.111 371.877 599.033 372.074C598.944 372.266 598.868 372.464 598.806 372.666C598.745 372.869 598.677 373.07 598.625 373.273L598.498 373.896L598.467 374.052L598.449 374.209L598.411 374.523C598.402 374.735 598.38 374.946 598.382 375.158C598.384 375.37 598.382 375.582 598.382 375.795C598.382 376.007 598.411 376.217 598.431 376.429C598.524 377.275 598.701 378.109 598.96 378.92C599.473 380.549 600.253 382.081 601.268 383.454C602.268 384.832 603.53 386 604.982 386.89C606.439 387.766 608.109 388.226 609.809 388.217C611.512 388.184 613.186 387.768 614.706 386.998C616.233 386.247 617.623 385.245 618.82 384.035C620.03 382.839 621.002 381.423 621.682 379.863C622.363 378.304 622.811 376.654 623.013 374.966C623.218 373.274 623.211 371.564 622.993 369.874C622.787 368.185 622.35 366.533 621.695 364.963C621.062 363.385 620.122 361.949 618.929 360.738C618.329 360.148 617.655 359.638 616.922 359.224C616.188 358.817 615.399 358.515 614.581 358.326C612.948 357.945 611.218 358.012 609.546 358.281C607.865 358.572 606.21 358.997 604.596 359.55C602.963 360.094 601.375 360.702 599.784 361.34C596.604 362.621 593.461 364.003 590.303 365.351C587.145 366.698 583.977 368.032 580.779 369.288C577.581 370.545 574.356 371.741 571.1 372.847C569.473 373.402 567.84 373.934 566.203 374.443C564.56 374.951 562.915 375.437 561.27 375.929C554.687 377.891 548.065 379.749 541.351 381.232C534.636 382.716 527.83 383.832 520.965 384.343C517.534 384.597 514.091 384.706 510.648 384.639C507.206 384.57 503.769 384.316 500.353 383.879C496.937 383.44 493.549 382.803 490.207 381.971C486.861 381.146 483.571 380.113 480.354 378.876C477.146 377.625 474.013 376.193 470.968 374.585C467.915 372.998 464.939 371.284 461.924 369.651C458.924 367.996 455.828 366.521 452.652 365.235C451.06 364.609 449.451 364.021 447.811 363.526C447.405 363.394 446.993 363.276 446.58 363.163C446.166 363.051 445.758 362.924 445.344 362.815C444.514 362.606 443.688 362.38 442.85 362.2C439.507 361.443 436.12 360.889 432.709 360.542C429.299 360.182 425.872 360.005 422.443 360.013C415.573 360.049 408.724 360.778 402 362.189Z" fill="#231F20"/>
<path d="M492 408.189C493.678 407.827 495.364 407.5 497.057 407.21C498.75 406.92 500.45 406.678 502.157 406.484C505.572 406.09 509.006 405.872 512.443 405.831C519.326 405.726 526.198 406.41 532.925 407.87C533.766 408.051 534.597 408.269 535.433 408.474C535.85 408.581 536.262 408.704 536.677 408.819C537.093 408.933 537.506 409.049 537.916 409.181C539.567 409.671 541.181 410.253 542.794 410.876C545.99 412.151 549.108 413.617 552.131 415.263C555.166 416.879 558.142 418.591 561.186 420.16C564.217 421.755 567.337 423.175 570.53 424.414C573.728 425.64 576.999 426.663 580.325 427.479C583.649 428.301 587.018 428.929 590.415 429.36C597.209 430.227 604.091 430.31 610.922 429.808C617.752 429.306 624.54 428.203 631.236 426.724C637.933 425.246 644.546 423.403 651.125 421.446C652.771 420.958 654.418 420.472 656.054 419.968C657.691 419.464 659.319 418.932 660.952 418.381C664.198 417.279 667.418 416.099 670.61 414.839C673.803 413.587 676.969 412.263 680.125 410.915C683.281 409.568 686.428 408.195 689.619 406.909C691.215 406.27 692.826 405.657 694.464 405.12C696.101 404.565 697.78 404.141 699.484 403.851C700.343 403.712 701.211 403.639 702.081 403.631C702.957 403.627 703.83 403.723 704.684 403.916C705.54 404.117 706.364 404.436 707.131 404.865C707.894 405.298 708.597 405.831 709.221 406.448C710.447 407.697 711.414 409.176 712.065 410.801C712.728 412.406 713.17 414.094 713.378 415.818C713.591 417.539 713.591 419.279 713.378 421C713.167 422.725 712.705 424.409 712.005 425.999C711.3 427.593 710.301 429.04 709.059 430.263C707.833 431.496 706.41 432.516 704.848 433.28C704.066 433.663 703.248 433.967 702.406 434.186C701.561 434.402 700.693 434.515 699.821 434.522C698.067 434.526 696.345 434.047 694.844 433.138C693.362 432.226 692.074 431.029 691.055 429.618C690.028 428.219 689.241 426.658 688.728 425C688.468 424.173 688.291 423.322 688.2 422.46C688.18 422.244 688.161 422.029 688.155 421.813C688.15 421.597 688.144 421.377 688.155 421.162C688.166 420.946 688.177 420.726 688.19 420.51L688.228 420.186L688.248 420.024L688.282 419.865L688.414 419.224C688.473 419.016 688.543 418.809 688.609 418.602C688.673 418.394 688.751 418.191 688.844 417.995C688.925 417.793 689.016 417.596 689.118 417.405L689.43 416.834C689.543 416.652 689.67 416.471 689.793 416.29L689.974 416.019L690.176 415.764L690.578 415.254C691.728 413.964 693.048 412.837 694.502 411.902C695.946 410.964 697.462 410.142 699.036 409.443C702.184 408.056 705.445 406.944 708.783 406.118C712.114 405.275 715.485 404.604 718.884 404.108C722.282 403.611 725.699 403.248 729.123 403C725.701 403.267 722.285 403.644 718.892 404.159C715.498 404.672 712.132 405.358 708.809 406.216C705.476 407.055 702.223 408.179 699.083 409.577C697.521 410.28 696.017 411.105 694.585 412.045C693.151 412.978 691.85 414.1 690.718 415.381L690.324 415.883L690.13 416.136L689.949 416.402C689.833 416.584 689.71 416.754 689.601 416.935L689.298 417.496C689.199 417.684 689.111 417.877 689.033 418.074C688.944 418.266 688.868 418.464 688.806 418.666C688.745 418.869 688.677 419.07 688.625 419.273L688.498 419.896L688.467 420.052L688.449 420.209L688.411 420.523C688.402 420.735 688.38 420.946 688.382 421.158C688.384 421.37 688.382 421.582 688.382 421.795C688.382 422.007 688.411 422.217 688.431 422.429C688.524 423.275 688.701 424.109 688.96 424.92C689.473 426.549 690.253 428.081 691.268 429.454C692.268 430.832 693.53 432 694.982 432.89C696.439 433.766 698.109 434.226 699.809 434.217C701.512 434.184 703.186 433.768 704.706 432.998C706.233 432.247 707.623 431.245 708.82 430.035C710.03 428.839 711.002 427.423 711.682 425.863C712.363 424.304 712.811 422.654 713.013 420.966C713.218 419.274 713.211 417.564 712.993 415.874C712.787 414.185 712.35 412.533 711.695 410.963C711.062 409.385 710.122 407.949 708.929 406.738C708.329 406.148 707.655 405.638 706.922 405.224C706.188 404.817 705.399 404.515 704.581 404.326C702.948 403.945 701.218 404.012 699.546 404.281C697.865 404.572 696.21 404.997 694.596 405.55C692.963 406.094 691.375 406.702 689.784 407.34C686.604 408.621 683.461 410.003 680.303 411.351C677.145 412.698 673.977 414.032 670.779 415.288C667.581 416.545 664.356 417.741 661.1 418.847C659.473 419.402 657.84 419.934 656.203 420.443C654.56 420.951 652.915 421.437 651.27 421.929C644.687 423.891 638.065 425.749 631.351 427.232C624.636 428.716 617.83 429.832 610.965 430.343C607.534 430.597 604.091 430.706 600.648 430.639C597.206 430.57 593.769 430.316 590.353 429.879C586.937 429.44 583.549 428.803 580.207 427.971C576.861 427.146 573.571 426.113 570.354 424.876C567.146 423.625 564.013 422.193 560.968 420.585C557.915 418.998 554.939 417.284 551.924 415.651C548.924 413.996 545.828 412.521 542.652 411.235C541.06 410.609 539.451 410.021 537.811 409.526C537.405 409.394 536.993 409.276 536.58 409.163C536.166 409.051 535.758 408.924 535.344 408.815C534.514 408.606 533.688 408.38 532.85 408.2C529.507 407.443 526.12 406.889 522.709 406.542C519.299 406.182 515.872 406.005 512.443 406.013C505.573 406.049 498.724 406.778 492 408.189Z" fill="#231F20"/>
<path d="M509.947 106.438C501.769 86.431 479.227 78.3009 463.586 85.6898C447.129 93.455 443.144 116.07 451.014 131.784C458.65 147.036 477.273 155.486 493.444 150.998C509.728 146.483 522.834 129.06 518.587 118.722C514.202 108.041 492.179 107.059 477.73 111.036C457.688 116.57 438.378 135.49 442.374 148.692C445.236 158.135 459.135 161.581 472.229 164.828C481.823 167.205 510.743 174.376 521.73 160.219C526.085 154.609 527.381 145.964 524.873 139.47C515.163 114.301 455.419 96.318 434.515 121.036C423.36 134.241 425.241 157.585 436.089 178.669" stroke="#0D4E32" stroke-width="2" stroke-miterlimit="10"/>
<path d="M393.279 21.8446C386.35 4.90493 367.251 -1.9786 353.998 4.27741C340.055 10.852 336.678 29.9991 343.347 43.3042C349.816 56.2176 365.595 63.3719 379.297 59.5718C393.094 55.7494 404.198 40.9981 400.6 32.2447C396.884 23.2016 378.225 22.3702 365.983 25.7371C349.002 30.4227 332.64 46.4418 336.026 57.6192C338.451 65.6144 350.227 68.5322 361.322 71.2811C369.451 73.2943 393.954 79.3655 403.263 67.3791C406.952 62.6297 408.051 55.3098 405.925 49.8119C397.699 28.502 347.079 13.276 329.368 34.2037C319.916 45.3843 321.509 65.1493 330.701 83" stroke="#0D4E32" stroke-width="2" stroke-miterlimit="10"/>
<path d="M231.279 61.8446C224.35 44.9049 205.251 38.0214 191.998 44.2774C178.055 50.852 174.678 69.9991 181.347 83.3042C187.816 96.2176 203.595 103.372 217.297 99.5718C231.094 95.7494 242.198 80.9981 238.6 72.2447C234.884 63.2016 216.225 62.3702 203.983 65.7371C187.002 70.4227 170.64 86.4418 174.026 97.6192C176.451 105.614 188.227 108.532 199.322 111.281C207.451 113.294 231.954 119.366 241.263 107.379C244.952 102.63 246.051 95.3098 243.925 89.8119C235.699 68.502 185.079 53.276 167.368 74.2037C157.916 85.3843 159.509 105.149 168.701 123" stroke="#0D4E32" stroke-width="2" stroke-miterlimit="10"/>
<defs>
<clipPath id="clip0_8_700">
<rect width="482" height="440" fill="white" transform="translate(0 108)"/>
</clipPath>
</defs>
</svg>
