<svg width="312" height="259" viewBox="0 0 312 259" fill="none" xmlns="http://www.w3.org/2000/svg">
<path d="M49.5117 257C51.8903 256.803 55.8972 256.147 59.4736 253.535C66.7426 248.226 67.3882 238.373 68.1443 226.822C68.5226 220.952 68.3625 215.063 67.6658 209.217C64.4574 210.547 58.1173 212.638 50.4915 211.411C37.1995 209.274 23.8424 197.684 24.0915 183.956C24.2643 174.36 30.7319 167.814 32.7849 165.89C18.1818 164.852 9.23362 156.094 9.82262 149.291C10.304 143.705 17.1511 140.071 18.632 139.324C10.4909 137.602 4.0148 132.218 2.39223 125.506C-0.0855033 115.254 9.60174 105.401 19.4532 103.49C25.346 102.346 30.4119 104.211 32.8047 105.292C30.3921 90.1719 38.2557 77.6996 48.4612 75.3655C58.559 73.0598 67.6204 81.4421 68.3595 82.1449C76.1155 89.5157 78.3073 101.459 73.7766 112.71C74.5694 112.546 92.3044 109.172 101.592 119.393C111.951 130.792 104.767 151.366 92.3157 159.73C88.6965 162.119 84.5008 163.671 80.0856 164.256C81.5779 165.262 91.3218 172.065 92.0127 183.583C92.2704 187.898 91.571 196.83 86.2559 199.048C79.1766 201.999 67.6035 191.573 61.7617 183.393C51.4599 168.971 50.735 149.937 54.303 148.793C57.684 147.714 66.7228 162.155 71.4008 174.925C74.5468 183.507 74.6884 188.586 76.2571 199.867C80.0035 226.84 81.8752 240.326 88.0851 246.211C101.411 258.834 134.004 258.694 144.75 245.692C153.328 235.318 141.873 224.143 137.487 176.028C135.989 159.577 136.38 150.505 138.096 141.334C141.494 123.125 150.629 101.788 155.666 102.564C160.979 103.383 164.728 129.277 153.803 150.842C147.613 163.076 133.885 179.5 123.187 176.933C115.142 175.001 111.888 163.073 111.206 157.183C109.411 141.622 121.191 130.483 123.187 128.655C117.352 127.408 111.786 125.275 106.721 122.344C89.4472 112.282 71.817 88.7454 81.6572 72.3311C90.8347 57.0163 118.064 57.6595 119.194 57.701C109.994 43.4185 110.11 26.82 119.2 15.2763C120.066 14.1766 130.745 1.01191 145.554 2.11156C160.52 3.21121 174.721 18.4922 175.106 39.4167C178.263 37.4431 184.926 33.9366 193.475 34.2945C207.841 34.8988 223.956 46.2714 223.024 60.6291C222.415 70.0306 214.637 78.61 203.59 82.5729C205.856 83.2887 216.423 86.8236 218.499 94.2774C221.031 103.355 210.607 117.004 190.281 121.343C194.246 123.937 204.581 131.518 207.051 144.019C210.882 163.413 193.481 183.098 176.703 186.443C164.886 188.801 156.544 182.421 151.943 186.931C150.895 187.968 148.545 191.029 155.672 210.828C162.256 229.114 165.546 238.238 174.585 245.207C177.963 247.816 186.093 253.911 198.318 254.502C200.62 254.611 215.472 255.327 224.112 246.67C233.04 237.72 226.06 228.051 230.528 195.923C232.51 181.778 235.059 175.008 236.681 171.222C242.062 158.737 251.953 144.695 255.371 145.914C258.978 147.198 257.401 166.18 246.097 180.149C239.728 188.02 227.408 197.837 220.365 194.631C215.005 192.193 214.75 183.137 215.243 178.899C216.548 167.645 226.501 161.263 228.334 160.145C224.936 159.497 220.376 158.135 216.084 155.041C203.582 146.036 197.253 125.114 208.565 114.276C218.51 104.753 236.197 108.671 237.248 108.918C233.116 97.3974 235.911 85.6047 244.253 78.6126C245.103 77.8916 254.753 70.054 264.868 72.7823C275.147 75.5678 282.64 88.4005 279.392 103.44C281.898 102.473 287.145 100.868 293.092 102.273C303.15 104.654 312.432 114.994 309.425 125.096C307.443 131.725 300.61 136.793 292.203 138.134C293.706 138.977 300.443 142.932 300.698 148.508C301.018 155.391 291.458 163.69 276.481 164.015C278.828 166.426 284.786 173.242 284.475 182.486C283.993 196.88 268.617 208.584 256.234 208.68C247.6 208.745 242.818 203.135 238.828 205.669C237.016 206.821 236.158 209.15 237.491 223.245C239.522 244.701 242.362 248.268 245.043 250.366C248.58 253.133 252.652 253.997 255.034 254.305" stroke="#0D4E32" stroke-width="3" stroke-miterlimit="10"/>
</svg>
