<svg width="1308" height="356" viewBox="0 0 1308 356" fill="none" xmlns="http://www.w3.org/2000/svg">
<path d="M1227.52 307.523C1224.03 307.162 1218.17 306.165 1213.08 302.905C1202.73 296.277 1202.46 284.696 1202.15 271.105C1202.01 264.209 1202.66 257.316 1204.09 250.502C1208.73 252.241 1217.93 255.044 1229.26 254.032C1249.01 252.267 1269.52 239.429 1270.1 223.327C1270.51 212.085 1261.44 204.042 1258.54 201.672C1280.15 201.272 1293.95 191.503 1293.56 183.492C1293.24 176.922 1283.4 172.282 1281.27 171.32C1293.39 169.757 1303.31 163.81 1306.17 156.033C1310.54 144.146 1296.95 132.072 1282.55 129.28C1273.94 127.613 1266.34 129.515 1262.74 130.646C1267.35 113.064 1256.62 98.0071 1241.74 94.704C1227.01 91.4369 1213.07 100.755 1211.93 101.548C1199.98 109.768 1195.9 123.643 1201.8 137.079C1200.64 136.845 1174.73 131.903 1160.33 143.361C1144.25 156.141 1153.41 180.653 1171.19 191.15C1176.38 194.157 1182.45 196.208 1188.91 197.133C1186.64 198.232 1171.8 205.659 1169.99 219.106C1169.3 224.149 1169.72 234.656 1177.4 237.552C1187.61 241.403 1205.42 229.829 1214.61 220.572C1230.8 204.243 1233.19 181.968 1228.01 180.437C1223.1 178.996 1208.77 195.404 1200.98 210.108C1195.16 221.098 1193.6 229.966 1192.08 239.068C1188.2 262.522 1185.14 282.553 1182.81 298.564C1179.67 301.41 1168.51 310.811 1151.46 311.719C1132.95 312.717 1119.7 303.074 1111.2 296.85C1093.56 283.987 1088.09 268.476 1083.87 256.542C1080.64 247.387 1078.83 237.986 1078.48 228.525C1085.51 229.88 1099.19 231.695 1114.28 227.956C1140.6 221.433 1163.46 199.935 1158.17 178.215C1154.6 163.558 1139.65 154.679 1133.91 151.628C1163.31 146.545 1178.38 130.548 1174.72 119.897C1171.72 111.158 1156.45 107.016 1153.17 106.177C1169.13 101.53 1180.38 91.4693 1181.27 80.4469C1182.61 63.6143 1159.31 50.283 1138.54 49.5734C1126.17 49.1555 1116.54 53.2655 1111.97 55.5781C1111.42 31.0478 1090.88 13.131 1069.24 11.8415C1047.83 10.5627 1032.38 25.9869 1031.13 27.2764C1017.99 40.8059 1017.82 60.2572 1031.13 77.0177C1029.46 76.9492 992.085 75.7822 976.848 94.1708C959.87 114.678 981.937 145.594 1010.34 155.918C1020.27 159.52 1029.94 160.24 1036.91 160.204C1034.02 162.366 1016.98 175.423 1019.58 193.65C1020.55 200.555 1025.27 214.542 1036.91 216.808C1052.38 219.815 1072.22 200.562 1081.17 186.219C1096.96 160.928 1091.55 130.577 1083.87 129.619C1076.6 128.708 1063.39 153.724 1058.46 175.07C1057.4 179.702 1054.87 192.169 1057.59 215.745C1063.25 264.899 1082.23 280.158 1068.09 297.419C1057.83 309.94 1038.33 313.531 1033.09 314.496C1013.91 318.03 987.214 315.577 974.656 303.431C963.984 293.075 973.686 285.51 969.038 243.69C967.438 229.282 965.352 221.8 962.019 214.452C955.296 199.618 942.252 182.595 937.28 183.812C932.051 185.091 932.876 207.363 948.064 224.379C956.567 233.903 973.341 245.992 983.475 242.732C991.299 240.21 992.206 229.516 991.799 224.599C990.717 211.505 977.324 203.523 974.554 201.942C980.919 201.202 986.969 199.387 992.24 196.636C1010.84 186.734 1021.22 162.571 1005.65 149.344C992.24 137.947 967.287 141.243 965.43 141.506C972.148 128.178 969.039 114.281 957.591 105.658C956.32 104.703 943.213 95.1074 928.816 97.7117C914.108 100.374 902.529 114.959 906.172 132.796C902.733 131.546 895.408 129.378 886.866 130.682C872.313 132.911 858.654 144.56 862.199 156.494C864.538 164.358 873.841 170.65 885.677 172.704C883.436 173.64 873.74 177.898 872.944 184.389C871.945 192.475 884.926 202.655 906.148 203.84C902.655 206.552 893.802 214.214 893.574 225.02C893.245 240.956 911.847 254.774 931.75 257.212C942.713 258.552 951.891 256.171 956.587 254.637C957.829 261.477 958.062 268.398 957.28 275.277C956.572 281.429 955.34 290.045 949.252 300.232C947.934 302.426 946.427 304.554 944.741 306.604C934.069 319.698 916.975 326.621 899.42 331.84C871.411 340.168 741.55 378.794 648.007 333.922C634.566 327.475 610.913 315.797 611.558 299.915C612 289.109 623.685 277.402 636.782 276.318C653.823 274.913 675.647 291.209 674.168 304.079C670.879 332.687 552.097 347.61 472.374 346.263C386.325 344.822 369.537 324.809 366.064 319.968C364.259 317.446 360.33 309.017 352.481 292.134C348.809 284.246 343.153 273.951 341.562 260.335C339.622 243.809 340.873 241.082 343.503 239.731C349.275 236.76 356.187 243.333 368.673 243.261C386.563 243.153 408.814 229.429 409.512 212.557C409.963 201.718 401.348 193.725 397.953 190.898C419.607 190.538 433.432 180.79 432.971 172.722C432.593 166.173 422.852 161.555 420.674 160.55C432.835 158.976 442.726 153.036 445.583 145.263C449.949 133.423 436.507 121.298 421.964 118.51C413.364 116.86 405.777 118.744 402.154 119.875C406.849 102.243 396.017 87.1972 381.155 83.9337C366.525 80.7206 352.583 89.924 351.341 90.7777C339.277 98.9724 335.237 112.797 341.213 126.305C339.646 126.01 314.073 121.424 299.714 132.591C283.362 145.292 292.516 169.829 310.585 180.383C315.79 183.365 321.853 185.412 328.3 186.366C325.652 187.692 311.254 195.159 309.382 208.339C308.669 213.306 309.038 223.922 316.789 226.782C326.976 230.539 344.788 219.03 354 209.801C370.342 193.426 372.627 171.173 367.407 169.667C362.46 168.226 348.14 184.702 340.374 199.341C337.075 205.555 334.16 212.953 331.477 228.298C324.453 268.389 334 277.078 322.159 287.801C310.415 298.435 287.126 302.44 270.415 297.847C262.3 295.618 257.726 291.908 250.527 286.083C235.931 274.254 230.493 262.342 223.193 245.776C216.169 229.829 212.759 221.775 217.804 217.762C224.459 212.474 236.518 219.952 253.607 217.189C277.861 213.267 303.032 190.174 297.493 167.448C293.922 152.795 278.972 143.912 273.239 140.865C302.634 135.779 317.706 119.785 314.048 109.134C311.046 100.395 295.775 96.2493 292.487 95.4136C308.46 90.7669 319.709 80.7062 320.592 69.6838C321.936 52.8513 298.633 39.5199 277.861 38.8103C265.497 38.3889 255.863 42.5025 251.298 44.815C250.75 20.2812 230.207 2.36439 208.568 1.07484C187.151 -0.2003 171.701 15.2238 170.455 16.5134C157.314 30.0428 157.139 49.4941 170.455 66.2546C168.776 66.1826 131.411 65.0191 116.174 83.4042C99.1964 103.914 121.263 134.831 149.645 145.151C159.574 148.753 169.247 149.474 176.208 149.441C173.322 151.603 156.286 164.657 158.886 182.887C159.856 189.792 164.576 203.779 176.208 206.041C191.682 209.052 211.531 189.796 220.481 175.456C236.266 150.165 230.857 119.814 223.173 118.852C215.897 117.945 202.688 142.958 197.77 164.304C194.098 180.218 195.417 192.4 196.887 204.978C200.607 236.677 204.241 264.157 207.394 286.656" stroke="#231F20" stroke-miterlimit="10"/>
<path d="M207.428 286.656C201.374 290.679 188.941 297.801 170.722 300.625C166.157 301.345 130.033 306.593 113.996 292.664C102.975 283.093 112.735 274.459 108.379 232.927C107.409 223.745 106.405 214.848 101.36 203.685C94.5687 188.711 81.5248 171.785 76.6207 173.046C71.4594 174.379 72.5072 196.704 87.404 213.613C95.8493 223.205 112.628 235.427 122.815 231.983C130.499 229.383 131.512 218.911 131.139 213.85C130.14 200.346 116.053 192.371 113.894 191.19C120.278 190.506 126.345 188.686 131.575 185.884C149.582 176.079 159.972 151.956 144.993 138.592C131.566 126.611 105.92 130.566 104.77 130.757C111.328 117.566 108.165 103.565 96.931 94.9093C95.859 94.0845 82.7521 84.2579 68.156 86.9631C53.3999 89.6971 42.0247 104.318 45.5125 122.044C42.0538 120.78 34.7291 118.593 26.2062 119.933C11.9837 122.145 -2.00606 133.711 1.56413 145.731C3.90707 153.602 13.274 159.913 25.042 161.941C22.9028 162.82 13.0023 167.081 12.3038 173.626C11.4549 181.608 24.392 191.881 45.5125 193.095C42.5389 195.35 33.1914 203.037 32.9392 214.275C32.5802 230.37 51.8961 243.957 71.115 246.464C82.1409 247.904 91.3089 245.451 95.9512 243.892C96.9604 250.745 97.1908 257.65 96.64 264.532C95.5485 278.083 94.6172 289.635 84.1055 295.87C79.2013 298.773 73.5938 299.627 69.6986 299.933" stroke="#231F20" stroke-miterlimit="10"/>
</svg>
