<svg width="51" height="77" viewBox="0 0 51 77" fill="none" xmlns="http://www.w3.org/2000/svg">
<path d="M42.6398 51.2106L42.6425 51.2109C42.6452 51.2106 42.6471 51.2085 42.6471 51.2085C42.6438 51.2122 42.6429 51.2132 42.6407 51.2118L42.6373 51.209L42.6398 51.2106Z" fill="#00A560"/>
<path fill-rule="evenodd" clip-rule="evenodd" d="M2.53135 51.9661C2.68952 52.24 2.95994 52.414 3.25819 52.4841C3.34475 52.6428 3.47365 52.7814 3.60214 52.9124C4.07555 53.3881 4.71024 53.6901 5.32425 53.9823C5.4604 54.0471 5.59555 54.1114 5.72768 54.177C5.96375 54.2943 6.19678 54.4185 6.42942 54.5426C6.5193 54.5906 6.60916 54.6385 6.69911 54.686C6.7702 54.7235 6.84135 54.7607 6.91263 54.7975C6.98706 54.842 7.06093 54.8865 7.13453 54.931C7.21682 54.9808 7.29875 55.0306 7.38068 55.0804C7.44653 55.1204 7.51239 55.1604 7.57846 55.2005C7.66806 55.2548 7.75802 55.3091 7.84877 55.3633C7.92162 55.4081 7.99588 55.4523 8.07055 55.4968C8.23586 55.5952 8.40313 55.6948 8.56167 55.8042C8.88201 56.0343 9.20221 56.2619 9.52241 56.4895L9.85901 56.7289C10.0666 56.8766 10.2742 57.0247 10.4819 57.1739C10.5428 57.2237 10.6037 57.2737 10.6645 57.324C10.7918 57.429 10.9191 57.5347 11.0464 57.6405C11.2346 57.7968 11.4228 57.9531 11.6109 58.107C11.7342 58.2104 11.8611 58.3111 11.988 58.4118C12.2164 58.593 12.4457 58.775 12.6525 58.9715C13.4051 59.6804 14.1527 60.3846 14.8955 61.0941C15.2603 61.4799 15.6239 61.8645 15.9874 62.2492L16.0757 62.3427C16.412 62.6985 16.7483 63.0544 17.0858 63.4113C17.3054 63.6445 17.5127 63.8915 17.72 64.1384C17.8237 64.2619 17.9273 64.3854 18.0325 64.5071C18.4589 65.0086 18.8848 65.5002 19.3159 65.9965C19.8233 66.5794 20.3149 67.18 20.8064 67.7806L20.8073 67.7816L20.8108 67.7858C21.0205 68.0421 21.2302 68.2984 21.4412 68.5532C22.1268 69.3789 22.8171 70.1995 23.5125 71.0246C23.924 71.522 24.3545 72.0085 24.7943 72.4846C25.4123 73.1569 26.0504 73.838 26.7515 74.4172C27.9529 75.415 29.3929 76.3746 31.033 76.0996C31.4467 76.0319 31.8372 75.8132 32.1936 75.6013C32.5258 75.3957 32.8035 75.095 33.0472 74.8011C33.4566 74.3111 33.8349 73.7933 34.1724 73.2485C34.2275 73.158 34.283 73.0678 34.3388 72.9777C34.4044 72.8717 34.4704 72.7659 34.5364 72.6601C34.7805 72.2685 35.0246 71.8768 35.2509 71.4775C36.3809 69.4801 37.4965 67.4698 38.6101 65.4632L38.6189 65.4472L39.2681 64.2775C39.5362 63.8292 39.8018 63.3811 40.0675 62.933L40.0841 62.9048C40.3554 62.4471 40.6266 61.9895 40.9003 61.5317C41.284 60.9009 41.6892 60.2806 42.093 59.6623L42.095 59.6594C42.277 59.3808 42.4586 59.1026 42.6379 58.8241C43.0496 58.1801 43.4859 57.5531 43.9227 56.9252C44.0841 56.6933 44.246 56.4608 44.4064 56.2278C44.7991 55.6523 45.2207 55.088 45.6409 54.5255L45.6419 54.5241C45.7333 54.4019 45.8246 54.2798 45.9154 54.1576C45.9855 54.0634 46.0554 53.9692 46.1248 53.875C46.2194 53.7574 46.3138 53.6395 46.4083 53.5215C46.9879 52.7977 47.5699 52.0711 48.1943 51.3893L48.208 51.3743C48.5783 50.9697 48.9529 50.5603 49.3282 50.1604L49.3459 50.1414C49.5671 49.9037 49.7927 49.6613 50.0232 49.4233C50.2414 49.1996 50.4049 48.9643 50.5661 48.6898C50.6777 48.4919 50.7019 48.2252 50.7184 47.9983C50.7652 47.352 50.2572 46.7128 49.5827 46.6872C48.9599 46.6661 48.3383 46.8406 47.7311 47.011C47.6758 47.0265 47.6206 47.042 47.5656 47.0573C47.4893 47.0785 47.4132 47.0994 47.3375 47.1195C46.9208 47.2277 46.5083 47.3568 46.0964 47.4857L46.0935 47.4866C45.98 47.5222 45.8665 47.5577 45.7529 47.5928C44.5511 47.9706 43.3647 48.3623 42.1795 48.7736C41.086 49.1551 40.0164 49.6139 38.9636 50.1061C38.4562 50.3413 37.9539 50.5811 37.4523 50.8307C37.3349 50.8909 37.2176 50.9514 37.1004 51.012L37.0993 51.0126C36.4635 51.3409 35.8273 51.6694 35.1671 51.9432C34.8927 52.0423 34.6177 52.1317 34.337 52.2066L34.133 52.2477C34.05 52.2573 33.9619 52.2623 33.8686 52.2627C33.8957 52.2636 33.9214 52.2634 33.9472 52.2631C33.973 52.2629 33.9988 52.2627 34.0258 52.2636C34.0056 52.2647 33.9857 52.2655 33.966 52.266C33.9174 52.2671 33.8702 52.2662 33.823 52.2639C33.7875 52.2622 33.752 52.2597 33.7159 52.2566C33.686 52.2485 33.656 52.2404 33.6215 52.2374L33.5766 52.2252C33.5744 52.2233 33.5715 52.2223 33.568 52.2211C33.5632 52.2194 33.5573 52.2174 33.5513 52.212C33.5415 52.2125 33.5311 52.2033 33.5259 52.1986C33.5237 52.1932 33.5216 52.1891 33.5198 52.1856C33.5169 52.18 33.5148 52.1759 33.5145 52.1698C33.5035 52.1508 33.4973 52.1266 33.491 52.1024L33.4893 52.073C33.4891 52.0687 33.4891 52.0642 33.4891 52.0595L33.4892 52.0531C33.4893 52.0484 33.4893 52.0436 33.4893 52.0387C33.4892 52.0332 33.489 52.0276 33.4884 52.022C33.4879 52.0161 33.4869 52.0103 33.4854 52.0044C33.4898 51.8224 33.4988 51.6352 33.5228 51.4521C33.6852 50.4402 33.9158 49.4358 34.1459 48.4341L34.1489 48.421C34.2211 48.1067 34.2932 47.7927 34.363 47.4788C34.4274 47.1818 34.4927 46.8843 34.5581 46.5865L34.562 46.569C34.7407 45.7555 34.9201 44.9394 35.0811 44.1217C35.1238 43.9067 35.1666 43.6919 35.2095 43.4771L35.2108 43.4702C35.4319 42.3617 35.6525 41.255 35.8522 40.1426C35.9288 39.702 36.0065 39.2615 36.0842 38.8209C36.2393 37.9414 36.3945 37.0619 36.5409 36.1829C36.9885 33.5142 37.4368 30.8554 37.8948 28.196C37.9529 27.8529 38.0111 27.51 38.0693 27.1672L38.0698 27.1643L38.0702 27.1621C38.4722 24.7941 38.8737 22.4284 39.245 20.057C39.4789 18.555 39.7226 17.0525 39.9912 15.5536C40.0925 15.0025 40.2082 14.4456 40.3441 13.8974C40.369 13.7881 40.3952 13.6799 40.422 13.5723C40.4352 13.5193 40.4486 13.4664 40.462 13.4136L40.5079 13.2347C40.5246 13.1846 40.5368 13.1397 40.5438 13.0902C40.6996 12.9782 40.8336 12.8281 40.9261 12.641C41.191 12.1109 41.0212 11.4318 40.5474 11.095C40.5041 10.9936 40.4496 10.8975 40.3847 10.8098C40.0011 10.2842 39.5551 9.80448 39.1107 9.32638C38.9687 9.17371 38.8269 9.02119 38.6874 8.86739C38.3227 8.46754 37.9609 8.06435 37.5992 7.66118C37.0566 7.05651 36.5141 6.45185 35.9616 5.85839C35.6471 5.51758 35.3424 5.16861 35.0377 4.81977C34.4954 4.19872 33.9532 3.57785 33.3576 3.00461C33.2909 2.94129 33.2243 2.87615 33.1572 2.81055C32.8955 2.55446 32.6266 2.29142 32.319 2.10563C31.8966 1.84959 31.4562 1.70757 30.9864 1.56726C30.9437 1.55424 30.9013 1.54095 30.8589 1.5277C30.7127 1.48191 30.5674 1.43646 30.417 1.4031C30.2264 1.33532 30.0122 1.28361 29.813 1.23601L29.8116 1.23571C29.5184 1.16898 29.2251 1.10224 28.9228 1.04588C28.287 0.924782 27.6369 0.809473 26.9906 0.762699C26.2804 0.714613 25.5827 0.714971 24.8735 0.770021C24.5232 0.798526 24.1753 0.838557 23.8271 0.878627C23.5773 0.907356 23.3274 0.936108 23.0763 0.960628C22.4264 1.02217 21.7754 1.0641 21.1186 1.09159C20.104 1.13454 19.0616 1.29208 18.2768 2.00488C17.8193 2.41168 17.4148 2.86571 17.0066 3.32379L16.904 3.43886C16.7372 3.61541 16.5802 3.79139 16.4283 3.97195C16.1927 4.2359 15.9722 4.50393 15.7671 4.78583C15.316 5.40594 14.9621 6.09424 14.774 6.84681C14.5206 7.84568 14.5358 8.86629 14.5509 9.88254L14.5539 10.092C14.5526 10.1691 14.5524 10.2461 14.5521 10.3229C14.5515 10.5075 14.5509 10.6917 14.5362 10.8742C14.5156 11.1161 14.4897 11.3534 14.4645 11.6005C14.4266 11.8405 14.3864 12.0806 14.3461 12.3207C14.3056 12.5618 14.2652 12.8028 14.2272 13.0437C14.212 13.1371 14.1961 13.2308 14.1803 13.3248C14.1051 13.7695 14.0291 14.2193 14.0097 14.6626C14.0063 14.7311 14.0027 14.7998 13.999 14.8687C13.9733 15.3551 13.9471 15.8509 13.992 16.3389C14.0376 16.8817 14.0982 17.4285 14.1634 17.9701C14.2297 18.5313 14.2758 19.0839 14.2834 19.6485C14.276 19.8378 14.2691 20.0271 14.2622 20.2163L14.2619 20.2229C14.2371 20.9026 14.2123 21.5817 14.1665 22.259C14.1322 22.6933 14.0979 23.1276 14.0885 23.5654C14.087 23.6483 14.0857 23.7315 14.0844 23.8148L14.0844 23.8162C14.0796 24.1276 14.0748 24.4415 14.0579 24.7561C14.013 25.6086 13.9537 26.4668 13.8691 27.3117C13.8536 27.4636 13.8352 27.6154 13.8168 27.7671C13.7638 28.2026 13.711 28.6374 13.7285 29.0737C13.7489 29.5928 13.82 30.1091 13.8906 30.6215L13.9067 30.7389C13.9546 31.2008 13.9862 31.665 14.0179 32.1292L14.0182 32.1337C14.0441 32.5123 14.0699 32.8907 14.1045 33.2676C14.1744 34.0644 14.1757 34.8652 14.177 35.666C14.18 36.4961 14.2164 37.3096 14.3122 38.1295C14.3642 38.6011 14.4419 39.0712 14.5196 39.5414C14.5778 39.8938 14.6361 40.2463 14.6835 40.5993C14.7298 41.0683 14.756 41.5286 14.7579 41.9953C14.7482 42.2562 14.7338 42.5223 14.6994 42.7798C14.6877 42.8345 14.6766 42.8989 14.6604 42.9588C14.643 42.9991 14.6309 43.044 14.6181 43.0792C14.5915 43.1298 14.5695 43.1753 14.5429 43.2259C14.5306 43.2468 14.5178 43.2684 14.5044 43.2901C14.4787 43.3318 14.451 43.3742 14.421 43.4146C14.3569 43.4968 14.2876 43.5745 14.2178 43.6423C14.1606 43.6973 14.1029 43.7448 14.0421 43.7948L14.0164 43.8159C13.9701 43.8474 13.9283 43.8738 13.8866 43.9002L13.8837 43.9021C13.8168 43.9354 13.75 43.9686 13.6825 43.9921C13.6631 43.9982 13.6461 44.0041 13.6291 44.01C13.6124 44.0158 13.5956 44.0217 13.5764 44.0276C13.4992 44.0517 13.4162 44.0613 13.3385 44.0756L13.0446 44.0923C12.8679 44.0881 12.6901 44.0798 12.5122 44.0715L12.5095 44.0714C12.2574 44.0596 12.0049 44.0478 11.7549 44.0477C11.3717 44.0498 10.9892 44.0617 10.6119 44.0783C9.85438 44.0624 9.08538 44.0176 8.32456 43.943L8.28369 43.9375C7.68376 43.8563 7.09272 43.7763 6.48722 43.7723C6.19475 43.7724 5.90467 43.7863 5.61437 43.8002L5.61259 43.8003C5.38651 43.8111 5.16034 43.822 4.93287 43.8263C4.64933 43.8203 4.36649 43.8093 4.08331 43.7982L4.08167 43.7981C3.73657 43.7847 3.39098 43.7712 3.04291 43.7667C2.71857 43.7655 2.4092 43.7684 2.09284 43.8207C1.54823 43.9205 1.14141 44.2826 0.821998 44.7135C0.625608 44.9752 0.466418 45.3724 0.351201 45.6786C0.198282 46.1 0.144991 46.5452 0.214398 46.9883C0.357647 47.9122 0.833523 48.7202 1.30221 49.516C1.39189 49.6683 1.4813 49.8201 1.56807 49.9722C1.58156 49.9935 1.59392 50.0161 1.60628 50.0388L1.61545 50.0556C1.62478 50.0726 1.63426 50.0893 1.6444 50.1054C1.63632 50.0935 1.62958 50.0828 1.62282 50.0722C1.61609 50.0615 1.60936 50.0509 1.60134 50.0391C1.68285 50.1769 1.76493 50.3245 1.82744 50.4733C2.00901 50.9886 2.25866 51.4903 2.53135 51.9661ZM25.6706 7.01338C24.851 6.94206 23.9536 6.88498 23.1381 7.05907C22.4391 7.2069 21.7421 7.47745 21.2922 8.03362C21.2322 8.10091 21.1721 8.16819 21.1224 8.24472C20.6996 8.84358 20.4747 9.55401 20.3333 10.2646C20.1878 10.9902 20.0781 11.7383 20.0121 12.479C19.9944 12.6814 19.9748 12.8849 19.9552 13.0891L19.9546 13.0945C19.9116 13.5409 19.8684 13.9905 19.8435 14.439C19.7692 15.8975 19.7093 17.3502 19.6696 18.8117C19.6528 19.3497 19.6292 19.8881 19.6056 20.4268L19.6055 20.4285C19.5727 21.1755 19.5399 21.9233 19.5255 22.6716C19.4687 25.4753 19.4263 28.2732 19.4185 31.074C19.4127 33.7372 19.51 36.3994 19.7104 39.0607C19.8002 40.2936 19.9141 41.5203 20.0575 42.7453C20.1911 43.8572 20.3371 44.9658 20.4831 46.0737L20.4836 46.0775L20.4895 46.1224C20.5451 46.5444 20.6007 46.9665 20.6556 47.3885C20.6594 47.4034 20.6613 47.4165 20.6626 47.4312C20.6634 47.4405 20.664 47.4504 20.6646 47.4617C20.7156 47.9255 20.7567 48.3899 20.7587 48.8566L20.7426 49.0933L20.7423 49.0951L20.7414 49.1007C20.7368 49.1273 20.7322 49.1539 20.7273 49.181C20.7207 49.217 20.7134 49.2537 20.7048 49.292C20.7008 49.3069 20.7013 49.3167 20.6967 49.3219C20.4629 49.4067 20.2249 49.4758 19.989 49.5442C19.9335 49.5604 19.8781 49.5764 19.8228 49.5927C19.1012 49.7761 18.3831 49.9349 17.6421 50.036C16.5431 50.158 15.4375 50.1626 14.335 50.1671C14.1644 50.1678 13.9929 50.1685 13.8225 50.1696C12.7798 50.1503 11.747 50.1304 10.7124 50.0811C9.87549 50.0384 9.04072 49.9876 8.20472 49.9366C7.90379 49.9183 7.60271 49.9 7.3013 49.882C6.60608 49.838 5.897 49.8096 5.2016 49.8491C4.92734 49.8647 4.63058 49.916 4.36597 50.0145L4.30129 50.0377C4.2646 49.9568 4.22819 49.8754 4.19126 49.7935C4.13224 49.62 4.06349 49.4471 3.98547 49.2845C3.89357 49.0973 3.79069 48.9143 3.68987 48.735L3.64508 48.6553C3.52722 48.4415 3.40608 48.2354 3.28461 48.0287C3.20848 47.8991 3.13224 47.7694 3.05661 47.6374C2.93549 47.4084 2.81902 47.1743 2.71697 46.9345C2.69402 46.8768 2.67568 46.814 2.65739 46.7512C2.65052 46.7172 2.64369 46.6832 2.63629 46.6394L2.63352 46.5904C2.63813 46.5852 2.63758 46.5754 2.63704 46.5657C2.63648 46.5559 2.64568 46.5455 2.64977 46.5305C2.69315 46.4298 2.74118 46.3239 2.78977 46.2278C2.84687 46.227 2.90278 46.2276 2.9587 46.2281L2.98497 46.2284C3.03091 46.2288 3.07698 46.229 3.12389 46.2284C3.38454 46.2343 3.6439 46.2471 3.90332 46.26L3.90474 46.2601C4.26168 46.2778 4.6188 46.2955 4.97986 46.2949C5.27384 46.2929 5.56595 46.2799 5.8581 46.267L5.85985 46.2669C6.15276 46.254 6.44568 46.241 6.74046 46.239C6.88848 46.2502 7.04112 46.2563 7.19435 46.2722C7.31625 46.2888 7.43731 46.3064 7.55817 46.324C7.8398 46.3649 8.12023 46.4057 8.40722 46.4341C8.6256 46.456 8.84497 46.4661 9.06408 46.4763C9.22173 46.4836 9.37927 46.4909 9.53621 46.5026C9.93593 46.5339 10.3402 46.56 10.7424 46.547C10.8191 46.5448 10.8958 46.5421 10.9724 46.5392L11.095 46.5346C11.3304 46.5256 11.5659 46.5166 11.8019 46.5163C11.9174 46.5222 12.0335 46.5298 12.1499 46.5374L12.1522 46.5375C12.5368 46.5624 12.9252 46.5876 13.3076 46.5584C14.1195 46.4926 14.8728 46.263 15.5271 45.7591C16.1294 45.2925 16.6306 44.6892 16.9045 43.976C17.0973 43.4786 17.1606 42.9494 17.1945 42.4218C17.2623 41.2558 17.083 40.1152 16.9035 38.973C16.8462 38.6086 16.7889 38.2441 16.7396 37.8785C16.6672 37.2095 16.6299 36.5533 16.6214 35.8857C16.618 35.653 16.6179 35.4203 16.6178 35.1875C16.6175 34.7227 16.6173 34.2578 16.591 33.7945C16.571 33.3981 16.5388 33.0039 16.5067 32.6103L16.5065 32.6076C16.4779 32.2577 16.4494 31.9083 16.4295 31.5584C16.3935 30.9257 16.3119 30.2998 16.2308 29.6781L16.2105 29.5221C16.2059 29.5273 16.2064 29.5371 16.2116 29.5417C16.1947 29.3314 16.1779 29.1211 16.1708 28.9103C16.1876 28.5488 16.228 28.1899 16.2685 27.8312C16.292 27.6228 16.3155 27.4146 16.3343 27.206C16.3401 27.1306 16.3461 27.0552 16.3522 26.9797C16.3613 26.8686 16.3707 26.7573 16.3801 26.646C16.4049 26.3533 16.4297 26.0598 16.4489 25.7649C16.4781 25.3199 16.4903 24.8772 16.5025 24.435C16.5155 23.9606 16.5286 23.4869 16.5626 23.012C16.633 22.0071 16.6741 21.0037 16.7152 20.0005L16.7153 19.9992L16.7154 19.9966C16.7508 18.9776 16.6255 17.9825 16.4944 16.9729C16.4516 16.4792 16.4289 15.9941 16.4155 15.4986C16.4394 15.0551 16.4731 14.611 16.5218 14.171C16.5637 13.9134 16.6098 13.6562 16.656 13.3989C16.7583 12.8289 16.8606 12.259 16.9161 11.6871C16.9568 11.1935 16.9733 10.7062 16.9847 10.2143C16.9937 9.93163 16.9886 9.64783 16.9836 9.36329C16.9807 9.20183 16.9778 9.04015 16.9775 8.87831C16.9839 8.55861 17.0098 8.23777 17.0456 7.91641C17.0711 7.76356 17.1017 7.61532 17.1324 7.46709L17.1329 7.46438C17.1782 7.30949 17.2286 7.15922 17.2888 7.00843C17.3547 6.872 17.4253 6.73046 17.4964 6.59865C17.6091 6.4203 17.7269 6.24654 17.8551 6.08205C18.1124 5.75771 18.3942 5.45083 18.6751 5.14492C18.7996 5.00941 18.9243 4.87353 19.0462 4.73695C19.2818 4.473 19.5179 4.21884 19.7644 3.97393C19.8171 3.92385 19.8703 3.88122 19.9266 3.83612L19.9519 3.81585C19.9712 3.80031 19.9889 3.78657 20.007 3.77452C20.0198 3.76604 20.0327 3.75841 20.0465 3.75153C20.0799 3.73487 20.1088 3.72345 20.1422 3.70682L20.3013 3.65355C20.3837 3.6341 20.4615 3.61985 20.5393 3.60561C20.9864 3.56297 21.4321 3.53764 21.8777 3.51231C22.3234 3.48698 22.769 3.46165 23.2161 3.41901C23.4565 3.39602 23.6967 3.37084 23.9371 3.34564L23.9389 3.34547C24.5826 3.27802 25.2277 3.21044 25.8804 3.18406C26.397 3.19887 26.9051 3.23387 27.4194 3.29308C27.9153 3.37297 28.4111 3.45286 28.9086 3.56215C28.9472 3.57062 28.9848 3.57914 29.0219 3.58755C29.1045 3.60624 29.1845 3.62438 29.2668 3.64005C29.3309 3.66002 29.3965 3.67834 29.4627 3.69598C29.5065 3.70766 29.5506 3.71904 29.5947 3.73046C29.6503 3.74481 29.7058 3.75916 29.7608 3.77408C30.1304 3.88081 30.5196 3.9864 30.8811 4.12307C30.8966 4.13691 30.9168 4.14561 30.9421 4.15892C30.9623 4.16759 30.9927 4.1855 31.0135 4.20399C31.3896 4.51176 31.7334 4.85578 32.0772 5.1998C32.3815 5.52537 32.673 5.86164 32.9648 6.19819C33.1748 6.44035 33.3849 6.68266 33.5999 6.92123C33.886 7.24519 34.1815 7.56547 34.4765 7.88531L34.4778 7.88672C34.7021 8.12983 34.9261 8.37273 35.1456 8.61676L35.4521 8.9587C35.3997 8.9417 35.3473 8.92479 35.2948 8.90797C33.9736 8.48195 32.6204 8.1855 31.2591 7.919C29.9478 7.66928 28.6331 7.44432 27.3189 7.22918C26.7736 7.14228 26.2236 7.06055 25.6706 7.01338ZM23.6824 9.46007C23.9463 9.43524 24.2009 9.42074 24.4659 9.41551C25.1352 9.42325 25.7908 9.49161 26.4259 9.56915C26.6269 9.60316 26.8279 9.63667 27.0288 9.66997C27.1697 9.69332 27.3106 9.71657 27.4515 9.73981L27.4539 9.74019C28.3633 9.89027 29.2718 10.0402 30.1762 10.216C30.3305 10.2476 30.4868 10.279 30.6438 10.31C30.8307 10.3469 31.0184 10.3831 31.2046 10.4179C31.3074 10.4383 31.4105 10.457 31.5137 10.4756C31.7198 10.513 31.9264 10.5505 32.1288 10.6011C32.2769 10.6389 32.4252 10.6769 32.5739 10.715L32.5755 10.7154C33.0117 10.8272 33.4505 10.9396 33.8885 11.0465C34.3841 11.2099 34.8896 11.3728 35.3951 11.5356C35.741 11.6484 36.0741 11.7829 36.4081 11.9177L36.4892 11.9504L36.5953 11.9931C37.0989 12.2101 37.5979 12.4323 38.0923 12.6597C38.0791 12.685 38.0755 12.7097 38.0674 12.7397C38.0311 12.8898 37.9938 13.0401 37.9564 13.1904L37.9549 13.196C37.8291 13.7019 37.703 14.2085 37.6148 14.7159C37.5961 14.8215 37.5772 14.9271 37.5582 15.0327C37.5416 15.1244 37.525 15.2161 37.5083 15.3078C37.4791 15.4679 37.4497 15.628 37.4203 15.7882C37.3908 15.9485 37.3614 16.1088 37.3322 16.2691C37.2962 16.4662 37.2606 16.6633 37.2258 16.8604C37.1048 17.5398 37.0022 18.2231 36.8997 18.9066C36.8254 19.4015 36.7511 19.8965 36.6698 20.3901C36.3303 22.4765 35.9785 24.5576 35.6265 26.6398C35.5292 27.2151 35.432 27.7905 35.3349 28.366C35.1714 29.3277 35.0104 30.2893 34.8494 31.2506L34.8449 31.2774L34.8437 31.2843L34.843 31.2883L34.8427 31.2902C34.5491 33.0431 34.2556 34.7954 33.9479 36.5464C33.4933 39.1811 33.0388 41.8157 32.4697 44.4225C32.15 45.8851 31.8303 47.3477 31.5008 48.8108C31.3642 49.4327 31.2276 50.0546 31.1204 50.6748C31.0464 51.1016 30.9914 51.5174 30.9911 51.9448C30.987 52.3037 31.0445 52.6247 31.1476 52.9677C31.3588 53.6582 31.9292 54.1858 32.5744 54.4734C33.2801 54.787 34.1229 54.7489 34.8652 54.5839C35.6219 54.4132 36.3363 54.1023 37.0294 53.7632C37.5313 53.5156 38.0254 53.2659 38.521 53.0154L38.5304 53.0105C38.7207 52.9144 38.9112 52.8181 39.1024 52.7217C40.2442 52.1479 41.4257 51.6742 42.6074 51.2009L43.0573 51.0465C44.0581 50.7029 45.0567 50.36 46.0644 50.0463C45.5976 50.5775 45.1555 51.1252 44.714 51.6721L44.7105 51.6764C44.6339 51.7713 44.5573 51.8663 44.4805 51.9611C44.4324 52.0205 44.3843 52.0799 44.336 52.1392C43.8783 52.706 43.4517 53.3004 43.0267 53.8926C42.8764 54.1021 42.7262 54.3114 42.5749 54.519C42.1763 55.0574 41.8001 55.6158 41.4254 56.1719L41.4221 56.1767L41.4182 56.1826C41.2849 56.3804 41.1518 56.5779 41.018 56.7741C40.4814 57.5645 39.9667 58.3744 39.452 59.1843L39.4499 59.1876C39.2564 59.492 39.063 59.7963 38.8685 60.0996C38.6579 60.4342 38.4558 60.7801 38.2542 61.1254C38.1365 61.3269 38.0189 61.5282 37.8998 61.7269C37.8389 61.8282 37.7779 61.9294 37.7169 62.0306C37.4717 62.4371 37.2265 62.8437 36.9946 63.262C36.4247 64.2752 35.8619 65.2898 35.2993 66.3038L35.2899 66.3209L35.2872 66.3257L35.2858 66.3282C34.5229 67.7036 33.7604 69.0781 32.9814 70.447C32.9384 70.5164 32.8955 70.586 32.8526 70.6557C32.7976 70.7451 32.7427 70.8347 32.6879 70.9242L32.6834 70.9316C32.2777 71.5938 31.8711 72.2574 31.4051 72.8801C31.2446 73.0809 31.0835 73.2718 30.912 73.4535C30.8958 73.4672 30.8787 73.4818 30.8615 73.4966L30.8535 73.5035L30.849 73.5074L30.8267 73.5265L30.8039 73.5459L30.7963 73.5514C30.7832 73.5607 30.7701 73.5692 30.757 73.5772L30.7484 73.5824C30.737 73.5892 30.7256 73.5957 30.7141 73.6023C30.696 73.6107 30.6794 73.6191 30.6633 73.6272C30.6368 73.6405 30.6118 73.653 30.585 73.6637C30.5812 73.6652 30.5775 73.6665 30.5737 73.6677C30.5703 73.6688 30.5669 73.6698 30.5634 73.6707C30.5561 73.6727 30.5488 73.6743 30.5415 73.676C30.5345 73.6776 30.5275 73.6792 30.5205 73.681C30.5129 73.683 30.5054 73.6853 30.4979 73.6883C30.4882 73.6889 30.4784 73.6894 30.4639 73.6951L30.4346 73.6968L30.3309 73.688C30.3035 73.6821 30.2774 73.6775 30.2513 73.6728C30.2253 73.6682 30.1993 73.6635 30.172 73.6577C30.1031 73.6373 30.0342 73.6168 29.9652 73.5947C29.9091 73.5767 29.8529 73.5576 29.7966 73.5366C29.6659 73.485 29.5445 73.4232 29.4225 73.3515C29.0709 73.1307 28.7327 72.8847 28.4037 72.6282C28.4267 72.6441 28.4486 72.6613 28.4705 72.6785L28.4935 72.6965C28.5078 72.7076 28.5222 72.7184 28.5372 72.7287C28.0218 72.306 27.5486 71.8466 27.0795 71.3721L27.0743 71.3675C27.0685 71.3531 27.053 71.3392 27.0427 71.33L27.0272 71.3161C26.0956 70.3297 25.2293 69.2941 24.3613 68.2564C24.2405 68.112 24.1197 67.9675 23.9987 67.8232C23.4316 67.1503 22.8691 66.4723 22.3066 65.7943L22.3051 65.7924L22.301 65.7875C21.7521 65.1211 21.2033 64.4546 20.6406 63.8037C20.4372 63.5699 20.2368 63.3326 20.0362 63.0952C19.6304 62.6149 19.224 62.1337 18.7904 61.6784C18.6749 61.5565 18.5598 61.4344 18.4448 61.312C18.3426 61.2033 18.2406 61.0945 18.1386 60.9856L18.1325 60.9791C17.3843 60.181 16.6354 59.3822 15.8365 58.6332L14.7463 57.6045C14.6892 57.5504 14.633 57.4952 14.5769 57.4399C14.4648 57.3295 14.3526 57.2191 14.2322 57.1179C13.6496 56.6351 13.0722 56.157 12.4947 55.6789C12.0358 55.2972 11.5693 54.9553 11.0826 54.6046C10.9866 54.5357 10.8909 54.4664 10.7952 54.3972C10.36 54.0823 9.92556 53.7679 9.46661 53.4879L9.23972 53.3497C8.69515 53.0178 8.15113 52.6863 7.58616 52.3862L7.5102 52.3463C7.75112 52.3601 7.99224 52.374 8.23346 52.3879C9.32966 52.4513 10.4286 52.5147 11.5267 52.565C12.6944 52.6206 13.8656 52.6111 15.0348 52.6017C15.2319 52.6001 15.429 52.5986 15.626 52.5973C17.0604 52.5943 18.4957 52.4341 19.8859 52.0849C20.2588 51.99 20.6363 51.8899 21.0087 51.7852C21.6277 51.6125 22.2608 51.3406 22.6421 50.7884C23.0777 50.1544 23.195 49.3666 23.1717 48.6113C23.1451 47.7972 23.0459 47.0021 22.9363 46.1977C22.8551 45.5488 22.7642 44.9005 22.6734 44.2523C22.5193 42.9247 22.3744 41.5868 22.2399 40.2581C22.1269 39.1346 22.0381 38.0047 21.9885 36.8726C21.9292 35.3972 21.8802 33.931 21.8503 32.4539C21.834 31.5031 21.8381 30.554 21.8423 29.6011L21.8452 28.8421L21.8452 28.8321L21.8453 28.8158C21.8502 28.2432 21.8555 27.6705 21.8649 27.093C21.8791 25.7018 21.9083 24.3146 21.9375 22.9275C21.9531 22.3368 21.9797 21.7468 22.0064 21.1567C22.0331 20.5671 22.0597 19.9775 22.0752 19.3872C22.1225 17.8861 22.1751 16.3896 22.2518 14.8868C22.3117 13.6944 22.4453 12.5027 22.6038 11.3146C22.6597 11.0019 22.7157 10.6892 22.7963 10.38C22.8456 10.2102 22.9001 10.045 22.9644 9.87919C22.9863 9.83372 23.013 9.78309 23.0349 9.73762C23.0416 9.73019 23.047 9.72169 23.0519 9.71373L23.0555 9.70772C23.0576 9.70439 23.0596 9.70123 23.0615 9.69837C23.0633 9.69583 23.065 9.69354 23.0667 9.69159L23.0852 9.67089C23.0892 9.66634 23.0937 9.66218 23.0984 9.65819L23.1073 9.65097C23.1159 9.64401 23.1246 9.63711 23.1319 9.62893C23.1383 9.6264 23.1447 9.62387 23.1507 9.62092C23.1581 9.61721 23.1649 9.61289 23.17 9.60713C23.1937 9.59105 23.2127 9.58012 23.2415 9.56866C23.2788 9.55567 23.3147 9.54429 23.35 9.53359C23.3779 9.52512 23.4054 9.51709 23.433 9.50907L23.4346 9.50856C23.517 9.48914 23.6046 9.47431 23.6824 9.46007Z" fill="#00A560"/>
<path d="M3.02219 43.7483L3.03198 43.7477C3.03198 43.7477 3.02977 43.7457 3.02697 43.7458C3.02697 43.7458 3.02379 43.7465 3.02219 43.7483Z" fill="#00A560"/>
</svg>
