<svg width="76" height="74" viewBox="0 0 96 84" fill="none" xmlns="http://www.w3.org/2000/svg">
<path d="M13.0014 60.9672L47.9591 54.5311C48.5288 55.1186 49.551 55.9974 50.9908 56.4019C53.4539 57.0936 56.1 56.1035 57.8593 53.9201L89.5229 50.1661C81.2427 40.1676 72.9635 30.1697 64.6853 20.1723L40.295 27.853L5.91724 33.4803C8.27889 42.6426 10.6403 51.8049 13.0014 60.9672Z" fill="black" stroke="#231F20" stroke-width="2" stroke-miterlimit="10"/>
<path d="M47.9732 54.1395C48.9804 52.203 50.9904 51.0931 53.1553 51.2896C55.8461 51.5329 57.4715 53.6745 57.6767 53.9575L88.1323 48.7857C88.1046 47.1694 87.785 45.5447 87.1891 43.991C85.9133 40.6766 83.7149 38.6168 82.6362 37.7209C77.9327 36.9835 73.2185 37.25 68.804 38.5029C59.5084 41.1633 54.459 47.4727 52.634 50.0429C50.2848 48.9285 47.8439 48.0699 45.3559 47.4826C31.2609 44.1723 19.8099 50.6947 15.6072 53.4292C15.0623 55.5774 14.5172 57.7255 13.9718 59.8736L47.9732 54.1395Z" fill="white" stroke="#0D4E32" stroke-width="2" stroke-miterlimit="10"/>
<path d="M7.49779 30.1863L16.0618 54.6835C15.5052 56.8787 14.9484 59.0738 14.3913 61.2689L6.71251 33.0018C6.97483 32.0632 7.23659 31.1247 7.49779 30.1863Z" fill="white" stroke="#0D4E32" stroke-width="4" stroke-miterlimit="10"/>
<path d="M7.58446 28.9614C11.3644 28.4303 15.5236 28.0281 20.0273 27.8576C25.6563 27.6453 31.3274 27.8142 37.0031 28.3634C43.3984 26.3456 49.7872 24.3124 56.1695 22.2638C59.172 21.3002 62.1739 20.3332 65.1752 19.363L82.9728 37.5986C79.478 37.0363 75.9675 37.0398 72.5761 37.6091C61.6332 39.4654 55.3467 46.7886 53.1648 49.6389C46.05 46.7647 38.4631 45.874 31.2468 47.0658C25.6491 47.9914 20.4184 50.1265 15.8988 53.3307L7.58446 28.9614Z" fill="white"/>
<path d="M7.50275 28.9094C7.65947 28.8785 7.82349 28.8429 7.98911 28.8147C8.07065 28.801 8.1525 28.7859 8.23698 28.7769L8.46687 28.7462L9.37347 28.6288C9.97726 28.5521 10.5843 28.4826 11.1895 28.4141C12.4024 28.281 13.6185 28.1659 14.838 28.069C17.2771 27.8719 19.7266 27.7494 22.1865 27.7015C24.6465 27.6536 27.112 27.6762 29.583 27.7693C32.0536 27.8644 34.5268 28.0314 37.0027 28.2704L36.9673 28.2738L51.0603 23.7864C53.4079 23.037 55.7598 22.2968 58.104 21.5371L65.1404 19.2702L65.1944 19.253L65.2372 19.2968L83.035 37.5329L83.221 37.7243L82.967 37.6857C81.5248 37.4698 80.0789 37.3452 78.6378 37.3127C78.278 37.3023 77.9188 37.3037 77.5605 37.3015C77.2021 37.2993 76.8433 37.314 76.4869 37.3326C75.772 37.3644 75.0612 37.4184 74.3554 37.5011L74.0905 37.5299L73.8266 37.5653C73.6507 37.5903 73.4748 37.6108 73.2996 37.6361C72.9503 37.6925 72.599 37.7429 72.253 37.8135C71.9071 37.8841 71.5583 37.9414 71.2163 38.0233L70.7013 38.1459C70.5295 38.1847 70.3605 38.2328 70.1903 38.2759C68.8298 38.6303 67.5016 39.0758 66.2141 39.6096C63.6432 40.6948 61.2441 42.1095 59.0712 43.8218C58.5298 44.2502 58.0002 44.6939 57.4824 45.1526C56.9646 45.6114 56.4638 46.088 55.9801 46.5823C55.0044 47.5638 54.089 48.6048 53.238 49.7003V49.7003L53.1991 49.7508L53.1375 49.7254C49.9987 48.4573 46.7521 47.5707 43.4709 47.0855C41.8325 46.8463 40.1904 46.705 38.5532 46.6625C37.7351 46.6456 36.9176 46.6452 36.104 46.6787C35.6965 46.6897 35.2915 46.7186 34.8856 46.7402C34.4798 46.7619 34.0759 46.8004 33.6734 46.844C32.8696 46.9249 32.0685 47.0294 31.2702 47.1574L30.0826 47.3734L29.9345 47.4006L29.7874 47.4343L29.4925 47.5015L28.9046 47.6303C27.342 47.9914 25.8111 48.45 24.3205 49.0037C21.336 50.114 18.5274 51.5953 15.9548 53.416L15.8551 53.4864L15.8126 53.3618C13.0317 45.2108 10.2617 37.06 7.50275 28.9094ZM7.66235 29.0122C10.4466 37.1171 13.2201 45.2156 15.9828 53.3078L15.8369 53.2526C18.4216 51.4256 21.2433 49.9399 24.2416 48.8272C25.739 48.2709 27.2768 47.8102 28.8466 47.4476L29.437 47.318L29.7327 47.251L29.8805 47.2175L30.0294 47.1906L31.2227 46.9732C32.021 46.843 32.8256 46.7381 33.6365 46.6583C34.0392 46.614 34.4471 46.5898 34.8539 46.556C35.2607 46.5223 35.6682 46.5042 36.078 46.4938C36.8948 46.4598 37.7162 46.4606 38.5381 46.4778C40.1834 46.5198 41.8337 46.6609 43.4803 46.9004C46.7764 47.3884 50.0376 48.2796 53.1905 49.5541L53.0893 49.579C54.7696 47.3472 56.7182 45.3431 58.8964 43.6065C61.0754 41.865 63.4893 40.4294 66.0811 39.3338C68.6781 38.2452 71.4433 37.5351 74.3 37.2229C75.0129 37.1438 75.7323 37.0978 76.4562 37.0718C76.8166 37.0568 77.1783 37.0545 77.5395 37.0506C77.9007 37.0467 78.2634 37.0549 78.6264 37.0686C80.0772 37.1167 81.5321 37.2636 82.9811 37.5082L82.9131 37.6611L65.1126 19.4227L65.2089 19.4514L58.1718 21.7181C55.8284 22.478 53.4764 23.2182 51.128 23.9681L37.035 28.4555L37.0189 28.4608L37.0011 28.4555C34.5324 28.2176 32.0628 28.0511 29.5922 27.9561C27.1215 27.861 24.6605 27.8385 22.209 27.8884C19.754 27.9404 17.3077 28.0638 14.8701 28.2587C13.6516 28.3513 12.4376 28.4647 11.2282 28.5989C10.623 28.6673 10.0191 28.737 9.41452 28.8134L8.5094 28.9313L8.28695 28.9604C8.21893 28.9696 8.15107 28.978 8.08292 28.9841C7.9444 28.9955 7.80665 29.0033 7.66235 29.0122V29.0122Z" fill="#0D4E32"/>
<path d="M52.4341 48.8977C54.6746 44.8201 57.7748 41.3386 61.5378 38.6748C69.5322 33.0422 78.1102 32.8968 81.5323 33.0257L59.8672 14.611C55.3849 15.0773 51.1426 16.5266 47.4277 18.8606C43.7127 21.1946 40.6118 24.3588 38.3349 28.1391L52.4341 48.8977Z" fill="white" stroke="#0D4E32" stroke-width="2" stroke-miterlimit="10"/>
<path d="M38.4534 29.2284C33.5827 26.7016 28.3274 25.2045 23.0366 24.8365C17.7459 24.4685 12.5411 25.2381 7.76799 27.0941L15.8606 49.6065C19.4099 48.1821 23.1517 47.2005 27.0092 46.6818C37.9056 45.224 47.1882 47.8405 52.4884 49.8151L38.4534 29.2284Z" fill="white" stroke="#0D4E32" stroke-width="2" stroke-miterlimit="10"/>
<path d="M52.9642 49.0804C55.4771 45.0757 60.1529 38.9245 68.0599 34.1283C71.9412 31.7778 76.1713 30.0068 80.6329 28.8646L61.2601 13.9335C58.5728 13.9341 52.3625 14.3097 46.3962 18.4148C43.0961 20.6942 40.403 23.7331 38.5094 27.3144L52.9642 49.0804Z" fill="white" stroke="#0D4E32" stroke-width="2" stroke-miterlimit="10"/>
<path d="M52.4954 49.6981C40.6922 45.6782 28.3883 44.2554 16.4594 45.5309L8.58151 23.0684C11.0943 22.9169 13.6296 22.9348 16.1707 23.122C25.3601 23.8024 33.0253 26.5884 38.4826 29.1879L52.4954 49.6981Z" fill="white" stroke="#0D4E32" stroke-width="2" stroke-miterlimit="10"/>
<path d="M20.7576 26.826C20.7493 26.858 20.7521 26.8928 20.7654 26.9249C20.7787 26.9571 20.8017 26.9849 20.831 27.004C28.2916 32.0011 35.8715 37.291 43.5707 42.8737C46.6561 45.116 49.6907 47.3578 52.6743 49.5988C52.7039 49.6214 52.7393 49.6338 52.7747 49.6338C52.8101 49.6339 52.8433 49.6216 52.8688 49.5991C52.8944 49.5765 52.9106 49.5451 52.915 49.51C52.9193 49.4748 52.9114 49.4381 52.8927 49.406C47.8965 40.698 42.1812 32.3885 35.8146 24.5758C30.6894 18.2881 25.1568 12.3407 19.2595 6.77949C19.2325 6.75428 19.1986 6.73829 19.1635 6.7341C19.1283 6.72992 19.0939 6.73779 19.0657 6.75643C19.0376 6.77508 19.0174 6.80341 19.0084 6.83684C18.9994 6.87027 19.0021 6.90684 19.0162 6.94063C20.3709 10.2809 21.1977 13.7729 21.4641 17.2801C21.7086 20.524 21.4704 23.742 20.7576 26.826V26.826Z" fill="white" stroke="#0D4E32" stroke-width="2" stroke-miterlimit="10"/>
<path d="M83.5981 40.0365C81.7015 39.6024 79.7831 39.3679 77.8745 39.3367C66.3353 39.1607 58.5362 46.5804 55.6786 49.6548" fill="white"/>
<path d="M83.5978 40.0368C82.2836 39.7651 80.9607 39.584 79.6384 39.4949C78.979 39.4533 78.3192 39.4249 77.6633 39.435L77.1715 39.4435C77.0074 39.4482 76.8434 39.4451 76.6803 39.457C76.3542 39.4754 76.0276 39.489 75.7021 39.5123C73.101 39.7201 70.5726 40.2889 68.1864 41.2032C66.9941 41.6584 65.8356 42.1863 64.7168 42.7842C63.5955 43.3805 62.5118 44.0396 61.4703 44.7587C60.4282 45.4764 59.4242 46.2461 58.4582 47.0679C57.9788 47.4794 57.4984 47.8953 57.0372 48.3293C56.8063 48.5456 56.5769 48.7646 56.3491 48.9865C56.1212 49.2083 55.8962 49.4318 55.674 49.6569C57.355 47.7437 59.2452 46.0315 61.314 44.5478C63.385 43.0561 65.6484 41.8374 68.056 40.9175C69.2611 40.4611 70.5042 40.0935 71.7761 39.8176L72.7347 39.6288L73.7027 39.4747L74.6796 39.3606L75.6621 39.284C75.9913 39.2657 76.3215 39.2579 76.6504 39.2442C76.8147 39.2349 76.9809 39.2426 77.1465 39.2415L77.6428 39.2452C78.3048 39.2517 78.9687 39.2907 79.6329 39.3547C80.9606 39.4821 82.286 39.7101 83.5978 40.0368V40.0368Z" fill="#231F20"/>
<path d="M16.7974 55.1752C26.3041 50.8702 37.1955 49.8 47.9396 52.1151Z" fill="white"/>
<path d="M16.7973 55.1752C19.1334 54.0568 21.5771 53.1461 24.1028 52.4527C25.3652 52.1047 26.646 51.8111 27.9452 51.5718L28.4333 51.4862L28.9205 51.405C29.0832 51.3764 29.2459 51.3479 29.4072 51.3259L29.8993 51.2583C30.2273 51.2151 30.5543 51.1654 30.8838 51.1264L31.8738 51.02C32.2034 50.9803 32.5359 50.9607 32.8681 50.931C33.2003 50.9013 33.5314 50.8766 33.8649 50.8634L34.8647 50.8152L35.8679 50.7918C37.2058 50.7741 38.5482 50.8086 39.8951 50.8954L40.904 50.9758C41.2405 51.0043 41.5772 51.0427 41.9128 51.0755C42.081 51.0916 42.2492 51.1116 42.417 51.1337L42.9209 51.1972C43.2575 51.2364 43.5926 51.2898 43.9281 51.3379C44.2636 51.386 44.5991 51.4456 44.9344 51.5021C45.2697 51.5586 45.6032 51.6237 45.9374 51.6853C46.2717 51.7469 46.6057 51.8206 46.9387 51.888C47.2718 51.9553 47.6044 52.0394 47.9374 52.1145C45.2685 51.6102 42.5851 51.285 39.9055 51.1412C37.2294 51.0055 34.5647 51.0642 31.9323 51.317L30.9455 51.419C30.6178 51.457 30.292 51.5047 29.9658 51.547L29.4758 51.612L28.9896 51.6882L28.5037 51.7637L28.0156 51.8493C26.7234 52.0748 25.4444 52.3498 24.1786 52.6742C23.8614 52.7522 23.5485 52.8429 23.2324 52.9266L22.293 53.1955C21.6696 53.3833 21.0498 53.5812 20.4337 53.7892C19.8172 53.9941 19.2076 54.2181 18.6007 54.4482C18.2986 54.566 17.9958 54.6836 17.6965 54.8068C17.3972 54.93 17.098 55.0532 16.7973 55.1752Z" fill="#231F20"/>
<path d="M16.0505 58.542L46.6553 54.0087Z" fill="white"/>
<path d="M16.0502 58.5419C17.3181 58.3232 18.5905 58.1205 19.8606 57.9102C21.1307 57.6999 22.4044 57.506 23.6746 57.3027C24.9447 57.0993 26.2189 56.8995 27.4932 56.7066L29.4041 56.414L31.316 56.1279L33.2281 55.8411L35.1416 55.5624C36.4173 55.3738 37.6947 55.1957 38.9721 55.0145C40.2494 54.8333 41.5286 54.6619 42.8079 54.4937C43.448 54.4074 44.0894 54.3299 44.7297 54.2467L45.6929 54.1232L46.6583 54.008L45.708 54.1747L44.7564 54.3364C44.1215 54.4427 43.4873 54.5532 42.8517 54.6555C41.5819 54.8661 40.3102 55.0703 39.0367 55.2681C37.7632 55.465 36.4902 55.6668 35.2155 55.8541L33.3011 56.141L31.3876 56.4197L29.4741 56.6984L27.5569 56.976C26.2812 57.1618 25.0038 57.3409 23.7247 57.5134C22.4472 57.6914 21.1724 57.8718 19.8913 58.0411C18.6102 58.2104 17.3323 58.383 16.0502 58.5419Z" fill="#231F20"/>
<path d="M56.2226 51.9742C58.5164 49.891 61.1092 48.1583 63.9302 46.8234C73.0747 42.5082 82.15 43.6161 86.3912 44.4329" fill="white"/>
<path d="M56.2228 51.9741C58.1382 50.1617 60.2848 48.6093 62.6162 47.3503C63.784 46.7224 64.9943 46.169 66.2407 45.693C66.3959 45.6309 66.5531 45.5747 66.7102 45.5185L67.1818 45.3492C67.4973 45.2388 67.8174 45.1398 68.1356 45.0355C68.4537 44.9313 68.7793 44.8401 69.102 44.7551L69.5896 44.6262L69.8326 44.5616L70.0805 44.5038C72.6995 43.8721 75.4092 43.552 78.1569 43.5496C79.5269 43.5468 80.9029 43.6188 82.2788 43.7652C82.9706 43.8406 83.6539 43.9345 84.343 44.0456C84.5146 44.0725 84.686 44.1012 84.8574 44.1317C85.0283 44.1602 85.1994 44.1919 85.3705 44.2235C85.7123 44.2884 86.0499 44.3589 86.3945 44.433C83.6588 43.9678 80.9093 43.7565 78.1814 43.8018C75.4591 43.8453 72.7751 44.1787 70.1736 44.7966L69.9297 44.854L69.6879 44.9167L69.2039 45.0436C68.8823 45.1305 68.5642 45.227 68.2449 45.3185C67.9255 45.4099 67.6108 45.5167 67.296 45.6236L66.8266 45.7865C66.6691 45.8402 66.5124 45.8942 66.3579 45.9566C66.0494 46.0754 65.737 46.186 65.4332 46.3162C65.1293 46.4464 64.8208 46.5651 64.5207 46.7034C63.9156 46.9661 63.321 47.2545 62.7348 47.5546C60.3896 48.7698 58.2062 50.2517 56.2228 51.9741V51.9741Z" fill="#231F20"/>
<path d="M43.9567 30.0244C45.0863 27.7448 46.638 25.7325 48.5353 24.0868C53.0869 20.153 58.3154 19.5269 60.5325 19.3986" fill="white"/>
<path d="M43.9567 30.0244C45.0863 27.7448 46.638 25.7325 48.5353 24.0868C53.0869 20.153 58.3154 19.5269 60.5325 19.3986" stroke="#231F20" stroke-miterlimit="10"/>
<path d="M18.8323 39.4667C21.9601 38.3735 25.3483 37.9759 28.7724 38.3003C32.1965 38.6248 35.5785 39.6637 38.6944 41.3485" fill="white"/>
<path d="M18.8323 39.4667C21.9601 38.3735 25.3483 37.9759 28.7724 38.3003C32.1965 38.6248 35.5785 39.6637 38.6944 41.3485" stroke="#231F20" stroke-miterlimit="10"/>
<path d="M18.0681 35.1337C20.1344 34.211 22.4266 33.7853 24.7742 33.8883C27.1219 33.9912 29.4644 34.6202 31.6274 35.7283" fill="white"/>
<path d="M18.0681 35.1337C20.1344 34.211 22.4266 33.7853 24.7742 33.8883C27.1219 33.9912 29.4644 34.6202 31.6274 35.7283" stroke="#231F20" stroke-miterlimit="10"/>
<path d="M16.4872 30.581C19.3036 30.095 22.2522 30.2536 25.1166 31.0454Z" fill="white"/>
<path d="M16.4872 30.581C19.3036 30.095 22.2522 30.2536 25.1166 31.0454" stroke="#231F20" stroke-miterlimit="10"/>
<path d="M68.0626 22.4945C63.6536 22.9734 59.5005 24.4712 55.9144 26.8757C52.3283 29.2801 49.4021 32.5289 47.3549 36.3788" fill="white"/>
<path d="M68.0626 22.4945C63.6536 22.9734 59.5005 24.4712 55.9144 26.8757C52.3283 29.2801 49.4021 32.5289 47.3549 36.3788" stroke="#231F20" stroke-miterlimit="10"/>
<path d="M24.6151 25.4576C32.2677 28.501 39.2029 33.3664 44.7781 39.603Z" fill="white"/>
<path d="M24.6151 25.4576C32.2677 28.501 39.2029 33.3664 44.7781 39.603" stroke="#231F20" stroke-miterlimit="10"/>
<path d="M26.0955 21.1762C31.2402 22.8352 35.8016 26.2115 38.9793 30.7129Z" fill="white"/>
<path d="M26.0955 21.1762C31.2402 22.8352 35.8016 26.2115 38.9793 30.7129" stroke="#231F20" stroke-miterlimit="10"/>
<path d="M71.3088 18.8832L74.9729 19.9361Z" fill="white"/>
<path d="M45.9314 44.7651C45.3984 45.7392 45.0886 46.8298 45.0217 47.9679Z" fill="white"/>
<path d="M45.9313 44.768C45.4545 45.7596 45.2015 46.8567 45.188 47.9904L44.8653 47.9429C44.9868 46.8033 45.3497 45.7223 45.9313 44.768V44.768Z" fill="#231F20"/>
<path d="M48.4833 44.8367C48.1579 46.0123 48.1041 47.2683 48.3257 48.5162Z" fill="white"/>
<path d="M48.4794 44.8376C48.2095 46.0192 48.209 47.2692 48.4779 48.5001L48.1668 48.5289C47.9958 47.2657 48.1025 46.0057 48.4794 44.8376V44.8376Z" fill="#231F20"/>
<path d="M40.0441 77.6409C39.4434 77.6409 38.9051 77.5049 38.4291 77.2329C37.9644 76.9496 37.5961 76.5643 37.3241 76.0769C37.0521 75.5896 36.9161 75.0399 36.9161 74.4279V73.5949H38.6331V74.4279C38.6331 74.7226 38.6841 75.0116 38.7861 75.2949C38.8881 75.5783 39.0411 75.8163 39.2451 76.0089C39.4604 76.2016 39.7268 76.2979 40.0441 76.2979H40.7241V77.6409H40.0441ZM30.6431 82.3669C30.4731 82.3669 30.3258 82.3386 30.2011 82.2819C30.0764 82.2253 29.9688 82.1629 29.8781 82.0949C29.7874 82.0269 29.7138 81.9646 29.6571 81.9079C29.7591 81.8286 29.8611 81.7209 29.9631 81.5849C30.0651 81.4603 30.1558 81.2903 30.2351 81.0749C30.3144 80.8709 30.3541 80.6216 30.3541 80.3269V79.2049C30.3541 78.6269 30.5014 78.1169 30.7961 77.6749C31.1021 77.2443 31.5158 76.9099 32.0371 76.6719C32.5698 76.4226 33.1761 76.2979 33.8561 76.2979H34.7061C35.4201 76.2979 35.9641 76.0599 36.3381 75.5839C36.7234 75.1079 36.9161 74.4279 36.9161 73.5439C36.9161 72.6259 36.7291 71.9459 36.3551 71.5039C35.9924 71.0506 35.4598 70.8239 34.7571 70.8239C34.3491 70.8239 34.0431 70.8749 33.8391 70.9769C33.6351 71.0676 33.5274 71.1979 33.5161 71.3679V77.2329H31.7991V71.3679C31.7991 70.8239 32.0711 70.3763 32.6151 70.0249C33.1704 69.6623 33.8844 69.4809 34.7571 69.4809C35.9471 69.4809 36.8878 69.8379 37.5791 70.5519C38.2818 71.2659 38.6331 72.2633 38.6331 73.5439C38.6331 74.4053 38.4801 75.1419 38.1741 75.7539C37.8794 76.3659 37.4658 76.8363 36.9331 77.1649C36.4118 77.4823 35.8168 77.6409 35.1481 77.6409H33.8561C33.4028 77.6409 33.0458 77.7146 32.7851 77.8619C32.5244 78.0206 32.3374 78.2189 32.2241 78.4569C32.1108 78.6949 32.0541 78.9443 32.0541 79.2049V80.4459C32.0541 80.9106 31.9861 81.2846 31.8501 81.5679C31.7141 81.8513 31.5384 82.0553 31.3231 82.1799C31.1078 82.3046 30.8811 82.3669 30.6431 82.3669ZM40.7241 77.6409V76.2979C40.8601 76.2979 40.9508 76.3546 40.9961 76.4679C41.0414 76.5813 41.0641 76.7456 41.0641 76.9609C41.0641 77.1649 41.0414 77.3293 40.9961 77.4539C40.9508 77.5786 40.8601 77.6409 40.7241 77.6409ZM40.731 77.6409V76.2979H43.332V77.6409H40.731ZM43.332 77.6409V76.2979C43.468 76.2979 43.5587 76.3546 43.604 76.4679C43.6494 76.5813 43.672 76.7456 43.672 76.9609C43.672 77.1649 43.6494 77.3293 43.604 77.4539C43.5587 77.5786 43.468 77.6409 43.332 77.6409ZM40.731 77.6409C40.6064 77.6409 40.5214 77.5786 40.476 77.4539C40.4194 77.3293 40.391 77.1649 40.391 76.9609C40.391 76.7456 40.4194 76.5813 40.476 76.4679C40.5214 76.3546 40.6064 76.2979 40.731 76.2979V77.6409ZM43.3375 77.6409V76.2979H45.9385V77.6409H43.3375ZM45.9385 77.6409V76.2979C46.0745 76.2979 46.1651 76.3546 46.2105 76.4679C46.2558 76.5813 46.2785 76.7456 46.2785 76.9609C46.2785 77.1649 46.2558 77.3293 46.2105 77.4539C46.1651 77.5786 46.0745 77.6409 45.9385 77.6409ZM43.3375 77.6409C43.2128 77.6409 43.1278 77.5786 43.0825 77.4539C43.0258 77.3293 42.9975 77.1649 42.9975 76.9609C42.9975 76.7456 43.0258 76.5813 43.0825 76.4679C43.1278 76.3546 43.2128 76.2979 43.3375 76.2979V77.6409ZM57.5719 77.6409C56.9712 77.6409 56.4329 77.5049 55.9569 77.2329C55.4922 76.9496 55.1239 76.5643 54.8519 76.0769C54.5799 75.5896 54.4439 75.0399 54.4439 74.4279V73.5949L56.1609 72.8469V74.4279C56.1609 74.7226 56.2062 75.0116 56.2969 75.2949C56.3989 75.5783 56.5576 75.8163 56.7729 76.0089C56.9882 76.2016 57.2546 76.2979 57.5719 76.2979H58.2519V77.6409H57.5719ZM45.9439 77.6409V76.2979H46.8279C47.9159 76.2979 48.6979 76.0713 49.1739 75.6179C49.6612 75.1646 49.9049 74.4563 49.9049 73.4929C49.9049 72.9149 49.8312 72.4843 49.6839 72.2009C49.5479 71.9176 49.3722 71.7759 49.1569 71.7759C48.9416 71.7759 48.7602 71.9176 48.6129 72.2009C48.4656 72.4843 48.3919 72.9149 48.3919 73.4929C48.3919 74.4563 48.6299 75.1646 49.1059 75.6179C49.5932 76.0713 50.3809 76.2979 51.4689 76.2979H52.3699C53.0499 76.2979 53.5656 75.9806 53.9169 75.3459C54.2682 74.6999 54.4439 73.8499 54.4439 72.7959C54.4439 71.8666 54.2966 71.1413 54.0019 70.6199C53.7072 70.0873 53.2482 69.7133 52.6249 69.4979C52.0016 69.2826 51.1856 69.1749 50.1769 69.1749C49.7689 69.1749 49.4572 69.1863 49.2419 69.2089C49.0379 69.2316 48.8509 69.2429 48.6809 69.2429C48.3522 69.2429 48.0916 69.1919 47.8989 69.0899C47.7062 68.9766 47.5646 68.8293 47.4739 68.6479C47.3832 68.4666 47.3209 68.2739 47.2869 68.0699C47.2756 67.8999 47.2699 67.7583 47.2699 67.6449C47.2812 67.5203 47.3096 67.4409 47.3549 67.4069C47.4456 67.5089 47.5929 67.6166 47.7969 67.7299C48.0009 67.8319 48.2899 67.8829 48.6639 67.8829C48.8339 67.8829 49.0209 67.8773 49.2249 67.8659C49.4402 67.8433 49.7462 67.8319 50.1429 67.8319C52.2622 67.8319 53.7922 68.2513 54.7329 69.0899C55.6849 69.9286 56.1609 71.1583 56.1609 72.7789C56.1609 73.8669 55.9852 74.7736 55.6339 75.4989C55.2826 76.2129 54.8179 76.7513 54.2399 77.1139C53.6732 77.4653 53.0499 77.6409 52.3699 77.6409H51.4689C50.5962 77.6409 49.7972 77.5049 49.0719 77.2329C48.3466 76.9609 47.7686 76.5246 47.3379 75.9239C46.9072 75.3119 46.6919 74.5186 46.6919 73.5439C46.6919 72.9546 46.7769 72.4276 46.9469 71.9629C47.1169 71.4983 47.3832 71.1299 47.7459 70.8579C48.1199 70.5746 48.5902 70.4329 49.1569 70.4329C49.7236 70.4329 50.1882 70.5746 50.5509 70.8579C50.9136 71.1299 51.1799 71.4983 51.3499 71.9629C51.5312 72.4276 51.6219 72.9546 51.6219 73.5439C51.6219 74.5186 51.4066 75.3119 50.9759 75.9239C50.5452 76.5246 49.9672 76.9609 49.2419 77.2329C48.5166 77.5049 47.7119 77.6409 46.8279 77.6409H45.9439ZM45.9439 77.6409C45.8192 77.6409 45.7342 77.5786 45.6889 77.4539C45.6322 77.3293 45.6039 77.1649 45.6039 76.9609C45.6039 76.7456 45.6322 76.5813 45.6889 76.4679C45.7342 76.3546 45.8192 76.2979 45.9439 76.2979V77.6409ZM58.2519 77.6409V76.2979C58.3766 76.2979 58.4616 76.3546 58.5069 76.4679C58.5636 76.5813 58.5919 76.7456 58.5919 76.9609C58.5919 77.1649 58.5636 77.3293 58.5069 77.4539C58.4616 77.5786 58.3766 77.6409 58.2519 77.6409ZM63.3117 77.6409C62.711 77.6409 62.1727 77.5049 61.6967 77.2329C61.232 76.9496 60.8637 76.5643 60.5917 76.0769C60.331 75.5896 60.2007 75.0399 60.2007 74.4279H61.9007C61.9007 74.7226 61.9517 75.0116 62.0537 75.2949C62.1557 75.5783 62.3087 75.8163 62.5127 76.0089C62.728 76.2016 62.9943 76.2979 63.3117 76.2979H63.9917V77.6409H63.3117ZM58.2457 77.6409V76.2979H58.7897C59.1183 76.2979 59.3847 76.2016 59.5887 76.0089C59.7927 75.8163 59.9457 75.5783 60.0477 75.2949C60.1497 75.0116 60.2007 74.7226 60.2007 74.4279V68.9369C60.2007 68.5629 60.1497 68.2513 60.0477 68.0019C59.957 67.7413 59.838 67.5316 59.6907 67.3729C59.5547 67.2143 59.4243 67.1009 59.2997 67.0329C59.3337 66.9649 59.4017 66.8856 59.5037 66.7949C59.6057 66.6929 59.736 66.6079 59.8947 66.5399C60.0647 66.4606 60.2573 66.4209 60.4727 66.4209C60.722 66.4209 60.9543 66.4833 61.1697 66.6079C61.385 66.7326 61.5607 66.9366 61.6967 67.2199C61.8327 67.5033 61.9007 67.8773 61.9007 68.3419V74.4279C61.9007 75.0399 61.7647 75.5896 61.4927 76.0769C61.232 76.5643 60.8693 76.9496 60.4047 77.2329C59.94 77.5049 59.4017 77.6409 58.7897 77.6409H58.2457ZM58.2457 77.6409C58.121 77.6409 58.036 77.5786 57.9907 77.4539C57.934 77.3293 57.9057 77.1649 57.9057 76.9609C57.9057 76.7456 57.934 76.5813 57.9907 76.4679C58.036 76.3546 58.121 76.2979 58.2457 76.2979V77.6409ZM63.9917 77.6409V76.2979C64.1277 76.2979 64.2183 76.3546 64.2637 76.4679C64.309 76.5813 64.3317 76.7456 64.3317 76.9609C64.3317 77.1649 64.309 77.3293 64.2637 77.4539C64.2183 77.5786 64.1277 77.6409 63.9917 77.6409ZM63.9898 77.6409V76.2979H67.7808C68.4948 76.2979 69.0388 76.0599 69.4128 75.5839C69.7981 75.1079 69.9908 74.4279 69.9908 73.5439C69.9908 72.6259 69.8038 71.9459 69.4298 71.5039C69.0671 71.0506 68.5288 70.8239 67.8148 70.8239C67.4181 70.8239 67.1178 70.8749 66.9138 70.9769C66.7098 71.0676 66.5965 71.1979 66.5738 71.3679V77.6409H64.8738V71.3679C64.8738 70.8126 65.1458 70.3593 65.6898 70.0079C66.2451 69.6566 66.9535 69.4809 67.8148 69.4809C69.0048 69.4809 69.9511 69.8379 70.6538 70.5519C71.3565 71.2659 71.7078 72.2633 71.7078 73.5439C71.7078 74.4053 71.5548 75.1419 71.2488 75.7539C70.9541 76.3659 70.5405 76.8363 70.0078 77.1649C69.4865 77.4823 68.8915 77.6409 68.2228 77.6409H63.9898ZM63.9898 77.6409C63.8651 77.6409 63.7801 77.5786 63.7348 77.4539C63.6781 77.3293 63.6498 77.1649 63.6498 76.9609C63.6498 76.7456 63.6781 76.5813 63.7348 76.4679C63.7801 76.3546 63.8651 76.2979 63.9898 76.2979V77.6409Z" fill="black"/>
</svg>
